<?xml version="1.0" encoding="UTF-8" standalone="no"?><!-- Generator: Gravit.io --><svg xmlns="http://www.w3.org/2000/svg" xmlns:xlink="http://www.w3.org/1999/xlink" style="isolation:isolate" viewBox="292 1763 805.565 155.193" width="805.565pt" height="155.193pt"><g><g><path d=" M 314.795 1915.085 L 314.795 1915.085 L 314.795 1915.085 Q 312.275 1915.085 310.605 1913.384 L 310.605 1913.384 L 310.605 1913.384 Q 308.936 1911.683 308.936 1909.226 L 308.936 1909.226 L 308.936 1909.226 Q 308.936 1906.79 310.616 1905.078 L 310.616 1905.078 L 310.616 1905.078 Q 312.296 1903.367 314.837 1903.367 L 314.837 1903.367 L 314.837 1903.367 Q 317.546 1903.367 319.31 1905.341 L 319.31 1905.341 L 317.441 1907.231 L 317.441 1907.231 Q 316.265 1906.118 314.816 1906.118 L 314.816 1906.118 L 314.816 1906.118 Q 313.64 1906.118 312.863 1907.021 L 312.863 1907.021 L 312.863 1907.021 Q 312.086 1907.924 312.086 1909.226 L 312.086 1909.226 L 312.086 1909.226 Q 312.086 1910.549 312.873 1911.441 L 312.873 1911.441 L 312.873 1911.441 Q 313.661 1912.334 314.942 1912.334 L 314.942 1912.334 L 314.942 1912.334 Q 316.265 1912.334 317.525 1911.137 L 317.525 1911.137 L 319.394 1913.027 L 319.394 1913.027 Q 318.47 1914.035 317.42 1914.56 L 317.42 1914.56 L 317.42 1914.56 Q 316.37 1915.085 314.795 1915.085 Z  M 324.674 1915.043 L 324.674 1915.043 L 324.674 1915.043 Q 323.015 1915.043 321.912 1914.119 L 321.912 1914.119 L 321.912 1914.119 Q 320.81 1913.195 320.81 1911.557 L 320.81 1911.557 L 320.81 1911.557 Q 320.81 1909.772 322.038 1908.869 L 322.038 1908.869 L 322.038 1908.869 Q 323.267 1907.966 325.346 1907.966 L 325.346 1907.966 L 325.346 1907.966 Q 326.753 1907.966 328.097 1908.428 L 328.097 1908.428 L 328.097 1908.239 L 328.097 1908.239 Q 328.097 1906.181 325.682 1906.181 L 325.682 1906.181 L 325.682 1906.181 Q 324.233 1906.181 322.574 1906.79 L 322.574 1906.79 L 321.776 1904.354 L 321.776 1904.354 Q 323.834 1903.451 326.144 1903.451 L 326.144 1903.451 L 326.144 1903.451 Q 328.685 1903.451 329.945 1904.711 L 329.945 1904.711 L 329.945 1904.711 Q 331.163 1905.929 331.163 1908.302 L 331.163 1908.302 L 331.163 1914.833 L 328.076 1914.833 L 328.076 1913.615 L 328.076 1913.615 Q 326.795 1915.043 324.674 1915.043 Z  M 325.64 1912.838 L 325.64 1912.838 L 325.64 1912.838 Q 326.753 1912.838 327.446 1912.281 L 327.446 1912.281 L 327.446 1912.281 Q 328.139 1911.725 328.139 1910.864 L 328.139 1910.864 L 328.139 1910.297 L 328.139 1910.297 Q 327.236 1909.877 326.102 1909.877 L 326.102 1909.877 L 326.102 1909.877 Q 325.052 1909.877 324.474 1910.286 L 324.474 1910.286 L 324.474 1910.286 Q 323.897 1910.696 323.897 1911.473 L 323.897 1911.473 L 323.897 1911.473 Q 323.897 1912.103 324.38 1912.47 L 324.38 1912.47 L 324.38 1912.47 Q 324.863 1912.838 325.64 1912.838 Z  M 340.958 1903.577 L 343.961 1903.577 L 343.961 1914.833 L 340.874 1914.833 L 340.874 1908.281 L 336.485 1914.833 L 333.482 1914.833 L 333.482 1903.577 L 336.569 1903.577 L 336.569 1910.15 L 340.958 1903.577 L 340.958 1903.577 Z  M 341.199 1901.666 L 341.199 1901.666 L 341.199 1901.666 Q 340.265 1902.506 338.816 1902.506 L 338.816 1902.506 L 338.816 1902.506 Q 337.367 1902.506 336.432 1901.666 L 336.432 1901.666 L 336.432 1901.666 Q 335.498 1900.826 335.288 1899.314 L 335.288 1899.314 L 337.157 1898.978 L 337.157 1898.978 Q 337.598 1900.385 338.816 1900.385 L 338.816 1900.385 L 338.816 1900.385 Q 340.034 1900.385 340.475 1898.978 L 340.475 1898.978 L 342.344 1899.314 L 342.344 1899.314 Q 342.134 1900.826 341.199 1901.666 Z  M 345.369 1903.577 L 355.281 1903.577 L 355.281 1906.307 L 351.942 1906.307 L 351.942 1914.833 L 348.708 1914.833 L 348.708 1906.307 L 345.369 1906.307 L 345.369 1903.577 L 345.369 1903.577 Z  M 363.152 1914.833 L 357.482 1914.833 L 357.482 1903.577 L 360.674 1903.577 L 360.674 1907.294 L 362.984 1907.294 L 362.984 1907.294 Q 365.021 1907.294 366.249 1908.239 L 366.249 1908.239 L 366.249 1908.239 Q 367.478 1909.184 367.478 1911.011 L 367.478 1911.011 L 367.478 1911.011 Q 367.478 1912.796 366.333 1913.814 L 366.333 1913.814 L 366.333 1913.814 Q 365.189 1914.833 363.152 1914.833 L 363.152 1914.833 L 363.152 1914.833 Z  M 362.669 1909.709 L 362.669 1909.709 L 360.674 1909.709 L 360.674 1912.313 L 362.69 1912.313 L 362.69 1912.313 Q 364.265 1912.313 364.265 1910.969 L 364.265 1910.969 L 364.265 1910.969 Q 364.265 1910.381 363.855 1910.045 L 363.855 1910.045 L 363.855 1910.045 Q 363.446 1909.709 362.669 1909.709 Z  M 372.161 1914.833 L 368.969 1914.833 L 368.969 1903.577 L 372.161 1903.577 L 372.161 1914.833 L 372.161 1914.833 Z  M 328.811 1896.143 L 321.818 1896.143 L 321.818 1881.443 L 328.643 1881.443 L 328.643 1881.443 Q 331.184 1881.443 332.486 1882.745 L 332.486 1882.745 L 332.486 1882.745 Q 333.494 1883.753 333.494 1885.286 L 333.494 1885.286 L 333.494 1885.286 Q 333.494 1887.365 331.562 1888.457 L 331.562 1888.457 L 331.562 1888.457 Q 332.927 1888.982 333.62 1889.832 L 333.62 1889.832 L 333.62 1889.832 Q 334.313 1890.683 334.313 1892.111 L 334.313 1892.111 L 334.313 1892.111 Q 334.313 1894.085 332.843 1895.114 L 332.843 1895.114 L 332.843 1895.114 Q 331.373 1896.143 328.811 1896.143 L 328.811 1896.143 L 328.811 1896.143 Z  M 324.968 1884.278 L 324.968 1887.386 L 327.95 1887.386 L 327.95 1887.386 Q 330.281 1887.386 330.281 1885.79 L 330.281 1885.79 L 330.281 1885.79 Q 330.281 1885.055 329.735 1884.666 L 329.735 1884.666 L 329.735 1884.666 Q 329.189 1884.278 328.16 1884.278 L 328.16 1884.278 L 324.968 1884.278 L 324.968 1884.278 Z  M 324.968 1890.074 L 324.968 1893.308 L 328.811 1893.308 L 328.811 1893.308 Q 331.1 1893.308 331.1 1891.67 L 331.1 1891.67 L 331.1 1891.67 Q 331.1 1890.074 328.706 1890.074 L 328.706 1890.074 L 324.968 1890.074 L 324.968 1890.074 Z  M 341.816 1896.395 L 341.816 1896.395 L 341.816 1896.395 Q 339.254 1896.395 337.595 1894.767 L 337.595 1894.767 L 337.595 1894.767 Q 335.936 1893.14 335.936 1890.536 L 335.936 1890.536 L 335.936 1890.536 Q 335.936 1888.079 337.511 1886.378 L 337.511 1886.378 L 337.511 1886.378 Q 339.086 1884.677 341.501 1884.677 L 341.501 1884.677 L 341.501 1884.677 Q 344.168 1884.677 345.575 1886.441 L 345.575 1886.441 L 345.575 1886.441 Q 346.982 1888.205 346.982 1890.788 L 346.982 1890.788 L 346.982 1890.788 Q 346.982 1891.04 346.94 1891.628 L 346.94 1891.628 L 339.107 1891.628 L 339.107 1891.628 Q 339.338 1892.699 340.052 1893.266 L 340.052 1893.266 L 340.052 1893.266 Q 340.766 1893.833 341.858 1893.833 L 341.858 1893.833 L 341.858 1893.833 Q 343.349 1893.833 344.588 1892.678 L 344.588 1892.678 L 346.415 1894.295 L 346.415 1894.295 Q 344.714 1896.395 341.816 1896.395 Z  M 339.065 1889.633 L 339.065 1889.633 L 343.874 1889.633 L 343.874 1889.633 Q 343.727 1888.541 343.107 1887.89 L 343.107 1887.89 L 343.107 1887.89 Q 342.488 1887.239 341.501 1887.239 L 341.501 1887.239 L 341.501 1887.239 Q 340.535 1887.239 339.894 1887.879 L 339.894 1887.879 L 339.894 1887.879 Q 339.254 1888.52 339.065 1889.633 Z  M 355.089 1893.644 L 355.089 1893.644 L 355.089 1893.644 Q 356.286 1893.644 357.042 1892.814 L 357.042 1892.814 L 357.042 1892.814 Q 357.798 1891.985 357.798 1890.746 L 357.798 1890.746 L 357.798 1890.746 Q 357.798 1889.528 357.01 1888.667 L 357.01 1888.667 L 357.01 1888.667 Q 356.223 1887.806 355.047 1887.806 L 355.047 1887.806 L 355.047 1887.806 Q 353.85 1887.806 353.094 1888.656 L 353.094 1888.656 L 353.094 1888.656 Q 352.338 1889.507 352.338 1890.746 L 352.338 1890.746 L 352.338 1890.746 Q 352.338 1891.964 353.125 1892.804 L 353.125 1892.804 L 353.125 1892.804 Q 353.913 1893.644 355.089 1893.644 Z  M 355.047 1896.395 L 355.047 1896.395 L 355.047 1896.395 Q 352.191 1896.395 350.679 1894.662 L 350.679 1894.662 L 350.679 1894.662 Q 349.167 1892.93 349.167 1889.675 L 349.167 1889.675 L 349.167 1889.675 Q 349.167 1888.52 349.251 1887.627 L 349.251 1887.627 L 349.251 1887.627 Q 349.335 1886.735 349.618 1885.727 L 349.618 1885.727 L 349.618 1885.727 Q 349.902 1884.719 350.395 1884.005 L 350.395 1884.005 L 350.395 1884.005 Q 350.889 1883.291 351.781 1882.724 L 351.781 1882.724 L 351.781 1882.724 Q 352.674 1882.157 353.892 1881.926 L 353.892 1881.926 L 359.919 1880.813 L 360.423 1883.333 L 354.249 1884.551 L 354.249 1884.551 Q 351.687 1885.076 351.519 1887.197 L 351.519 1887.197 L 351.519 1887.197 Q 351.918 1886.504 352.989 1885.905 L 352.989 1885.905 L 352.989 1885.905 Q 354.06 1885.307 355.614 1885.307 L 355.614 1885.307 L 355.614 1885.307 Q 357.798 1885.307 359.373 1886.861 L 359.373 1886.861 L 359.373 1886.861 Q 360.948 1888.415 360.948 1890.704 L 360.948 1890.704 L 360.948 1890.704 Q 360.948 1893.077 359.268 1894.736 L 359.268 1894.736 L 359.268 1894.736 Q 357.588 1896.395 355.047 1896.395 Z " fill="rgb(28,28,28)"/><g><path d=" M 303.528 1799.474 C 303.814 1799.76 304.189 1799.904 304.564 1799.904 C 304.939 1799.904 305.314 1799.761 305.6 1799.474 C 306.172 1798.902 306.172 1797.974 305.6 1797.402 L 302.043 1793.845 L 305.6 1790.288 C 306.172 1789.715 306.172 1788.788 305.6 1788.216 C 305.028 1787.644 304.1 1787.644 303.528 1788.216 L 298.935 1792.809 C 298.66 1793.084 298.506 1793.457 298.506 1793.845 C 298.506 1794.233 298.66 1794.606 298.935 1794.881 L 303.528 1799.474 Z " fill="rgb(47,47,47)"/><path d=" M 318.067 1793.845 L 314.51 1797.402 C 313.938 1797.974 313.938 1798.902 314.511 1799.474 C 314.796 1799.76 315.171 1799.904 315.546 1799.904 C 315.921 1799.904 316.296 1799.76 316.582 1799.474 L 321.176 1794.88 C 321.748 1794.308 321.748 1793.38 321.176 1792.809 L 316.582 1788.215 C 316.01 1787.643 315.083 1787.643 314.511 1788.215 C 313.938 1788.788 313.938 1789.715 314.511 1790.287 L 318.067 1793.845 Z " fill="rgb(47,47,47)"/><path d=" M 307.871 1799.802 C 308.047 1799.871 308.229 1799.904 308.406 1799.904 C 308.992 1799.904 309.544 1799.551 309.771 1798.974 L 313.379 1789.787 C 313.676 1789.034 313.305 1788.184 312.551 1787.887 C 311.799 1787.592 310.948 1787.962 310.653 1788.715 L 307.043 1797.903 C 306.748 1798.656 307.118 1799.507 307.871 1799.802 Z " fill="rgb(255,8,8)"/><path d=" M 300.8 1808.499 L 310.67 1808.499 C 311.479 1808.499 312.135 1807.843 312.135 1807.033 C 312.135 1806.225 311.479 1805.569 310.67 1805.569 L 300.8 1805.569 C 299.991 1805.569 299.335 1806.225 299.335 1807.033 C 299.335 1807.843 299.991 1808.499 300.8 1808.499 Z " fill="rgb(47,47,47)"/><path d=" M 333.403 1805.569 L 316.05 1805.569 C 315.241 1805.569 314.585 1806.225 314.585 1807.033 C 314.585 1807.843 315.241 1808.499 316.05 1808.499 L 333.403 1808.499 C 334.213 1808.499 334.869 1807.843 334.869 1807.033 C 334.869 1806.225 334.213 1805.569 333.403 1805.569 Z " fill="rgb(47,47,47)"/><path d=" M 300.8 1814.679 L 305.005 1814.679 C 305.813 1814.679 306.47 1814.023 306.47 1813.213 C 306.47 1812.404 305.813 1811.748 305.005 1811.748 L 300.8 1811.748 C 299.991 1811.748 299.335 1812.404 299.335 1813.213 C 299.335 1814.023 299.991 1814.679 300.8 1814.679 Z " fill="rgb(47,47,47)"/><path d=" M 328.043 1811.748 C 327.233 1811.748 326.578 1812.404 326.578 1813.213 C 326.578 1814.023 327.233 1814.679 328.043 1814.679 L 330.603 1814.679 C 331.413 1814.679 332.069 1814.023 332.069 1813.213 C 332.069 1812.404 331.413 1811.748 330.603 1811.748 L 328.043 1811.748 Z " fill="rgb(47,47,47)"/><path d=" M 324.187 1813.213 C 324.187 1812.404 323.531 1811.748 322.722 1811.748 L 310.146 1811.748 C 309.336 1811.748 308.681 1812.404 308.681 1813.213 C 308.681 1814.023 309.336 1814.679 310.146 1814.679 L 322.722 1814.679 C 323.531 1814.679 324.187 1814.023 324.187 1813.213 Z " fill="rgb(47,47,47)"/><path d=" M 333.784 1813.213 C 333.784 1814.023 334.44 1814.679 335.249 1814.679 L 340.045 1814.679 C 340.854 1814.679 341.51 1814.023 341.51 1813.213 C 341.51 1812.404 340.854 1811.748 340.045 1811.748 L 335.249 1811.748 C 334.44 1811.748 333.784 1812.404 333.784 1813.213 Z " fill="rgb(47,47,47)"/><path d=" M 325.805 1795.02 L 330.864 1795.02 C 331.673 1795.02 332.329 1794.364 332.329 1793.554 C 332.329 1792.746 331.673 1792.09 330.864 1792.09 L 325.805 1792.09 C 324.995 1792.09 324.339 1792.746 324.339 1793.554 C 324.339 1794.364 324.995 1795.02 325.805 1795.02 Z " fill="rgb(47,47,47)"/><path d=" M 336.529 1795.02 L 367.394 1795.02 C 368.203 1795.02 368.859 1794.364 368.859 1793.554 C 368.859 1792.746 368.203 1792.09 367.394 1792.09 L 336.529 1792.09 C 335.72 1792.09 335.063 1792.746 335.063 1793.554 C 335.063 1794.364 335.72 1795.02 336.529 1795.02 L 336.529 1795.02 Z " fill="rgb(47,47,47)"/><path d=" M 362.706 1798.536 L 350.203 1798.536 C 349.394 1798.536 348.738 1799.192 348.738 1800.001 C 348.738 1800.81 349.394 1801.466 350.203 1801.466 L 362.706 1801.466 C 363.515 1801.466 364.171 1800.81 364.171 1800.001 C 364.171 1799.192 363.515 1798.536 362.706 1798.536 Z " fill="rgb(47,47,47)"/><path d=" M 345.515 1798.536 L 341.217 1798.536 C 340.408 1798.536 339.752 1799.192 339.752 1800.001 C 339.752 1800.81 340.408 1801.466 341.217 1801.466 L 345.515 1801.466 C 346.324 1801.466 346.98 1800.81 346.98 1800.001 C 346.98 1799.192 346.324 1798.536 345.515 1798.536 Z " fill="rgb(47,47,47)"/><path d=" M 325.805 1801.466 L 336.334 1801.466 C 337.142 1801.466 337.799 1800.81 337.799 1800.001 C 337.799 1799.192 337.142 1798.536 336.334 1798.536 L 325.805 1798.536 C 324.995 1798.536 324.339 1799.192 324.339 1800.001 C 324.339 1800.81 324.995 1801.466 325.805 1801.466 Z " fill="rgb(47,47,47)"/><path d=" M 322.74 1817.876 L 312.871 1817.876 C 312.061 1817.876 311.405 1818.532 311.405 1819.341 C 311.405 1820.15 312.061 1820.806 312.871 1820.806 L 322.74 1820.806 C 323.549 1820.806 324.205 1820.15 324.205 1819.341 C 324.205 1818.532 323.549 1817.876 322.74 1817.876 Z " fill="rgb(47,47,47)"/><path d=" M 308.383 1817.876 L 300.8 1817.876 C 299.991 1817.876 299.335 1818.532 299.335 1819.341 C 299.335 1820.15 299.991 1820.806 300.8 1820.806 L 308.383 1820.806 C 309.192 1820.806 309.848 1820.15 309.848 1819.341 C 309.848 1818.532 309.192 1817.876 308.383 1817.876 Z " fill="rgb(47,47,47)"/><path d=" M 340.631 1817.876 L 327.738 1817.876 C 326.929 1817.876 326.273 1818.532 326.273 1819.341 C 326.273 1820.15 326.929 1820.806 327.738 1820.806 L 340.631 1820.806 C 341.44 1820.806 342.096 1820.15 342.096 1819.341 C 342.096 1818.532 341.44 1817.876 340.631 1817.876 L 340.631 1817.876 Z " fill="rgb(47,47,47)"/><path d=" M 358.067 1810.35 L 351.017 1810.35 C 350.208 1810.35 349.552 1811.006 349.552 1811.815 C 349.552 1812.624 350.208 1813.28 351.017 1813.28 L 358.067 1813.28 C 358.877 1813.28 359.532 1812.624 359.532 1811.815 C 359.532 1811.006 358.877 1810.35 358.067 1810.35 L 358.067 1810.35 Z " fill="rgb(47,47,47)"/><path d=" M 370.301 1813.28 L 380.254 1813.28 C 381.064 1813.28 381.72 1812.624 381.72 1811.815 C 381.72 1811.006 381.064 1810.35 380.254 1810.35 L 370.301 1810.35 C 369.492 1810.35 368.836 1811.006 368.836 1811.815 C 368.836 1812.624 369.493 1813.28 370.301 1813.28 Z " fill="rgb(47,47,47)"/><path d=" M 365.325 1810.35 L 363.044 1810.35 C 362.234 1810.35 361.578 1811.006 361.578 1811.815 C 361.578 1812.624 362.234 1813.28 363.044 1813.28 L 365.325 1813.28 C 366.134 1813.28 366.79 1812.624 366.79 1811.815 C 366.79 1811.006 366.134 1810.35 365.325 1810.35 Z " fill="rgb(255,8,8)"/><path d=" M 351.017 1829.246 L 358.067 1829.246 C 358.877 1829.246 359.532 1828.591 359.532 1827.781 C 359.532 1826.972 358.877 1826.316 358.067 1826.316 L 351.017 1826.316 C 350.208 1826.316 349.552 1826.972 349.552 1827.781 C 349.552 1828.591 350.208 1829.246 351.017 1829.246 L 351.017 1829.246 Z " fill="rgb(255,8,8)"/><path d=" M 370.301 1829.246 L 380.254 1829.246 C 381.064 1829.246 381.72 1828.591 381.72 1827.781 C 381.72 1826.972 381.064 1826.316 380.254 1826.316 L 370.301 1826.316 C 369.492 1826.316 368.836 1826.972 368.836 1827.781 C 368.836 1828.591 369.493 1829.246 370.301 1829.246 Z " fill="rgb(47,47,47)"/><path d=" M 363.044 1829.246 L 365.325 1829.246 C 366.134 1829.246 366.79 1828.591 366.79 1827.781 C 366.79 1826.972 366.134 1826.316 365.325 1826.316 L 363.044 1826.316 C 362.234 1826.316 361.579 1826.972 361.579 1827.781 C 361.579 1828.591 362.234 1829.246 363.044 1829.246 Z " fill="rgb(47,47,47)"/><path d=" M 358.067 1842.283 L 351.017 1842.283 C 350.208 1842.283 349.552 1842.939 349.552 1843.748 C 349.552 1844.557 350.208 1845.213 351.017 1845.213 L 358.067 1845.213 C 358.877 1845.213 359.532 1844.557 359.532 1843.748 C 359.532 1842.939 358.877 1842.283 358.067 1842.283 L 358.067 1842.283 Z " fill="rgb(47,47,47)"/><path d=" M 380.254 1842.283 L 370.301 1842.283 C 369.492 1842.283 368.836 1842.939 368.836 1843.748 C 368.836 1844.557 369.492 1845.213 370.301 1845.213 L 380.254 1845.213 C 381.064 1845.213 381.72 1844.557 381.72 1843.748 C 381.72 1842.939 381.064 1842.283 380.254 1842.283 L 380.254 1842.283 Z " fill="rgb(255,8,8)"/><path d=" M 365.325 1842.283 L 363.044 1842.283 C 362.234 1842.283 361.578 1842.939 361.578 1843.748 C 361.578 1844.557 362.234 1845.213 363.044 1845.213 L 365.325 1845.213 C 366.134 1845.213 366.79 1844.557 366.79 1843.748 C 366.79 1842.939 366.134 1842.283 365.325 1842.283 Z " fill="rgb(47,47,47)"/><path d=" M 385.661 1763 L 298.448 1763 C 294.893 1763 292 1765.892 292 1769.448 L 292 1840.339 C 292 1843.894 294.893 1846.787 298.448 1846.787 L 303.962 1846.787 C 304.771 1846.787 305.427 1846.131 305.427 1845.322 C 305.427 1844.513 304.771 1843.857 303.962 1843.857 L 298.448 1843.857 C 296.509 1843.857 294.931 1842.279 294.931 1840.339 L 294.931 1834.781 L 348.308 1834.781 L 348.308 1837.306 L 347.146 1837.306 C 345.557 1837.306 344.265 1838.598 344.265 1840.188 L 344.265 1843.857 L 312.87 1843.857 C 312.061 1843.857 311.405 1844.513 311.405 1845.322 C 311.405 1846.131 312.061 1846.787 312.87 1846.787 L 326.957 1846.787 L 326.957 1852.041 L 322.533 1852.041 C 319.582 1852.041 317.181 1854.443 317.181 1857.393 L 317.181 1860.558 C 317.181 1861.905 318.277 1863 319.623 1863 L 364.374 1863 C 365.72 1863 366.816 1861.905 366.816 1860.558 L 366.816 1857.393 C 366.816 1854.443 364.415 1852.041 361.464 1852.041 L 357.04 1852.041 L 357.04 1850.189 L 384.126 1850.189 C 385.714 1850.189 387.006 1848.897 387.006 1847.308 L 387.006 1846.618 C 389.862 1845.955 391.997 1843.393 391.997 1840.339 L 392.108 1769.448 C 392.108 1765.892 389.216 1763 385.661 1763 L 385.661 1763 Z  M 347.195 1831.293 L 347.195 1824.27 L 384.077 1824.27 L 384.077 1831.293 L 347.195 1831.293 Z  M 351.238 1821.34 L 351.238 1818.257 L 380.033 1818.257 L 380.033 1821.34 L 351.238 1821.34 Z  M 380.033 1834.223 L 380.033 1837.306 L 351.238 1837.306 L 351.238 1834.223 L 380.033 1834.223 Z  M 329.887 1846.787 L 344.265 1846.787 L 344.265 1847.308 C 344.265 1848.897 345.557 1850.189 347.146 1850.189 L 354.11 1850.189 L 354.11 1852.041 L 329.887 1852.041 L 329.887 1846.787 Z  M 361.465 1854.972 C 362.8 1854.972 363.886 1856.058 363.886 1857.393 L 363.886 1860.07 L 320.111 1860.07 L 320.111 1857.393 C 320.111 1856.058 321.198 1854.972 322.533 1854.972 L 361.465 1854.972 Z  M 384.077 1847.259 L 347.195 1847.259 L 347.195 1840.237 L 384.077 1840.237 L 384.077 1847.259 Z  M 389.067 1840.339 C 389.067 1841.758 388.221 1842.981 387.007 1843.536 L 387.007 1840.187 C 387.007 1838.598 385.714 1837.306 384.126 1837.306 L 382.964 1837.306 L 382.964 1834.781 L 389.067 1834.781 L 389.067 1840.339 Z  M 389.067 1831.851 L 386.959 1831.851 C 386.989 1831.686 387.007 1824.221 387.007 1824.221 C 387.007 1822.632 385.714 1821.34 384.126 1821.34 L 382.964 1821.34 L 382.964 1818.257 L 384.126 1818.257 C 385.714 1818.257 387.007 1816.964 387.007 1815.375 L 387.007 1808.255 C 387.007 1806.666 385.714 1805.373 384.126 1805.373 L 375.85 1805.373 C 375.041 1805.373 374.385 1806.029 374.385 1806.839 C 374.385 1807.648 375.041 1808.304 375.85 1808.304 L 384.077 1808.304 L 384.077 1815.326 L 347.195 1815.326 L 347.195 1808.304 L 366.734 1808.304 C 367.543 1808.304 368.199 1807.648 368.199 1806.839 C 368.199 1806.029 367.543 1805.373 366.734 1805.373 L 347.146 1805.373 C 345.557 1805.373 344.265 1806.666 344.265 1808.255 L 344.265 1815.375 C 344.265 1816.964 345.557 1818.257 347.146 1818.257 L 348.308 1818.257 L 348.308 1821.34 L 347.146 1821.34 C 345.557 1821.34 344.265 1822.633 344.265 1824.221 C 344.265 1824.221 344.283 1831.686 344.313 1831.851 L 294.931 1831.851 L 294.931 1782.93 L 389.067 1782.93 L 389.067 1831.851 Z  M 389.067 1779.999 L 295.038 1779.999 L 295.038 1769.448 C 295.038 1767.509 296.616 1765.931 298.556 1765.931 L 385.549 1765.931 C 387.489 1765.931 389.067 1767.509 389.067 1769.448 L 389.067 1779.999 Z " fill="rgb(47,47,47)"/><path d=" M 302.805 1768.624 C 300.434 1768.624 298.506 1770.552 298.506 1772.923 C 298.506 1775.294 300.434 1777.223 302.805 1777.223 C 305.176 1777.223 307.105 1775.294 307.105 1772.923 C 307.105 1770.552 305.176 1768.624 302.805 1768.624 Z  M 302.805 1774.292 C 302.05 1774.292 301.436 1773.678 301.436 1772.923 C 301.436 1772.168 302.05 1771.553 302.805 1771.553 C 303.56 1771.553 304.174 1772.168 304.174 1772.923 C 304.174 1773.678 303.56 1774.292 302.805 1774.292 Z " fill="rgb(47,47,47)"/><path d=" M 313.752 1768.624 C 311.381 1768.624 309.452 1770.552 309.452 1772.923 C 309.452 1775.294 311.381 1777.223 313.752 1777.223 C 316.123 1777.223 318.051 1775.294 318.051 1772.923 C 318.051 1770.552 316.122 1768.624 313.752 1768.624 Z  M 313.752 1774.292 C 312.997 1774.292 312.383 1773.678 312.383 1772.923 C 312.383 1772.168 312.997 1771.553 313.752 1771.553 C 314.507 1771.553 315.122 1772.168 315.122 1772.923 C 315.122 1773.678 314.507 1774.292 313.752 1774.292 Z " fill="rgb(255,8,8)"/><path d=" M 324.698 1768.624 C 322.328 1768.624 320.399 1770.552 320.399 1772.923 C 320.399 1775.294 322.328 1777.223 324.698 1777.223 C 327.069 1777.223 328.998 1775.294 328.998 1772.923 C 328.998 1770.552 327.069 1768.624 324.698 1768.624 Z  M 324.698 1774.292 C 323.944 1774.292 323.329 1773.678 323.329 1772.923 C 323.329 1772.168 323.944 1771.553 324.698 1771.553 C 325.454 1771.553 326.068 1772.168 326.068 1772.923 C 326.068 1773.678 325.454 1774.292 324.698 1774.292 Z " fill="rgb(47,47,47)"/></g></g><g><g><path d=" M 598.199 1903.577 L 608.426 1903.577 L 608.426 1914.833 L 605.234 1914.833 L 605.234 1906.307 L 601.391 1906.307 L 601.391 1914.833 L 598.199 1914.833 L 598.199 1903.577 L 598.199 1903.577 Z  M 614.391 1918.193 L 611.199 1918.193 L 611.199 1903.577 L 614.391 1903.577 L 614.391 1905.194 L 614.391 1905.194 Q 615.735 1903.367 617.898 1903.367 L 617.898 1903.367 L 617.898 1903.367 Q 619.998 1903.367 621.51 1904.942 L 621.51 1904.942 L 621.51 1904.942 Q 623.022 1906.517 623.022 1909.226 L 623.022 1909.226 L 623.022 1909.226 Q 623.022 1911.914 621.521 1913.478 L 621.521 1913.478 L 621.521 1913.478 Q 620.019 1915.043 617.898 1915.043 L 617.898 1915.043 L 617.898 1915.043 Q 615.798 1915.043 614.391 1913.363 L 614.391 1913.363 L 614.391 1918.193 L 614.391 1918.193 Z  M 615.137 1911.462 L 615.137 1911.462 L 615.137 1911.462 Q 615.924 1912.334 617.079 1912.334 L 617.079 1912.334 L 617.079 1912.334 Q 618.234 1912.334 619.032 1911.462 L 619.032 1911.462 L 619.032 1911.462 Q 619.83 1910.591 619.83 1909.184 L 619.83 1909.184 L 619.83 1909.184 Q 619.83 1907.819 619.032 1906.947 L 619.032 1906.947 L 619.032 1906.947 Q 618.234 1906.076 617.079 1906.076 L 617.079 1906.076 L 617.079 1906.076 Q 615.924 1906.076 615.137 1906.947 L 615.137 1906.947 L 615.137 1906.947 Q 614.349 1907.819 614.349 1909.226 L 614.349 1909.226 L 614.349 1909.226 Q 614.349 1910.591 615.137 1911.462 Z  M 632.675 1903.577 L 635.678 1903.577 L 635.678 1914.833 L 632.591 1914.833 L 632.591 1908.281 L 628.202 1914.833 L 625.199 1914.833 L 625.199 1903.577 L 628.286 1903.577 L 628.286 1910.15 L 632.675 1903.577 L 632.675 1903.577 Z  M 639.543 1903.577 L 639.543 1903.577 L 648.594 1903.577 L 648.594 1914.833 L 645.402 1914.833 L 645.402 1906.307 L 642.546 1906.307 L 642.546 1906.307 Q 642.546 1908.533 642.378 1910.066 L 642.378 1910.066 L 642.378 1910.066 Q 642.21 1911.599 641.916 1912.565 L 641.916 1912.565 L 641.916 1912.565 Q 641.622 1913.531 641.097 1914.056 L 641.097 1914.056 L 641.097 1914.056 Q 640.572 1914.581 639.963 1914.77 L 639.963 1914.77 L 639.963 1914.77 Q 639.354 1914.959 638.451 1914.959 L 638.451 1914.959 L 638.451 1914.959 Q 637.59 1914.959 636.834 1914.77 L 636.834 1914.77 L 637.044 1912.187 L 637.044 1912.187 Q 637.422 1912.25 637.716 1912.25 L 637.716 1912.25 L 637.716 1912.25 Q 638.22 1912.25 638.514 1912.008 L 638.514 1912.008 L 638.514 1912.008 Q 638.808 1911.767 639.071 1910.916 L 639.071 1910.916 L 639.071 1910.916 Q 639.333 1910.066 639.438 1908.291 L 639.438 1908.291 L 639.438 1908.291 Q 639.543 1906.517 639.543 1903.577 Z  M 661.08 1913.384 L 661.08 1913.384 L 661.08 1913.384 Q 659.326 1915.085 656.722 1915.085 L 656.722 1915.085 L 656.722 1915.085 Q 654.118 1915.085 652.386 1913.394 L 652.386 1913.394 L 652.386 1913.394 Q 650.653 1911.704 650.653 1909.226 L 650.653 1909.226 L 650.653 1909.226 Q 650.653 1906.769 652.407 1905.068 L 652.407 1905.068 L 652.407 1905.068 Q 654.16 1903.367 656.764 1903.367 L 656.764 1903.367 L 656.764 1903.367 Q 659.368 1903.367 661.101 1905.057 L 661.101 1905.057 L 661.101 1905.057 Q 662.833 1906.748 662.833 1909.226 L 662.833 1909.226 L 662.833 1909.226 Q 662.833 1911.683 661.08 1913.384 Z  M 656.764 1912.334 L 656.764 1912.334 L 656.764 1912.334 Q 658.087 1912.334 658.885 1911.441 L 658.885 1911.441 L 658.885 1911.441 Q 659.683 1910.549 659.683 1909.226 L 659.683 1909.226 L 659.683 1909.226 Q 659.683 1907.945 658.854 1907.031 L 658.854 1907.031 L 658.854 1907.031 Q 658.024 1906.118 656.722 1906.118 L 656.722 1906.118 L 656.722 1906.118 Q 655.399 1906.118 654.601 1907.01 L 654.601 1907.01 L 654.601 1907.01 Q 653.803 1907.903 653.803 1909.226 L 653.803 1909.226 L 653.803 1909.226 Q 653.803 1910.507 654.633 1911.42 L 654.633 1911.42 L 654.633 1911.42 Q 655.462 1912.334 656.764 1912.334 Z  M 674.733 1911.914 L 674.733 1914.833 L 671.52 1914.833 L 671.52 1911.914 L 670.176 1910.339 L 667.341 1914.833 L 663.771 1914.833 L 668.034 1908.239 L 663.897 1903.577 L 667.572 1903.577 L 671.52 1908.365 L 671.52 1903.577 L 674.733 1903.577 L 674.733 1908.365 L 678.681 1903.577 L 682.377 1903.577 L 678.24 1908.239 L 682.482 1914.833 L 678.933 1914.833 L 676.077 1910.339 L 674.733 1911.914 L 674.733 1911.914 Z  M 689.533 1915.085 L 689.533 1915.085 L 689.533 1915.085 Q 686.971 1915.085 685.312 1913.457 L 685.312 1913.457 L 685.312 1913.457 Q 683.653 1911.83 683.653 1909.226 L 683.653 1909.226 L 683.653 1909.226 Q 683.653 1906.769 685.228 1905.068 L 685.228 1905.068 L 685.228 1905.068 Q 686.803 1903.367 689.218 1903.367 L 689.218 1903.367 L 689.218 1903.367 Q 691.885 1903.367 693.292 1905.131 L 693.292 1905.131 L 693.292 1905.131 Q 694.699 1906.895 694.699 1909.478 L 694.699 1909.478 L 694.699 1909.478 Q 694.699 1909.73 694.657 1910.318 L 694.657 1910.318 L 686.824 1910.318 L 686.824 1910.318 Q 687.055 1911.389 687.769 1911.956 L 687.769 1911.956 L 687.769 1911.956 Q 688.483 1912.523 689.575 1912.523 L 689.575 1912.523 L 689.575 1912.523 Q 691.066 1912.523 692.305 1911.368 L 692.305 1911.368 L 694.132 1912.985 L 694.132 1912.985 Q 692.431 1915.085 689.533 1915.085 Z  M 686.782 1908.323 L 686.782 1908.323 L 691.591 1908.323 L 691.591 1908.323 Q 691.444 1907.231 690.825 1906.58 L 690.825 1906.58 L 690.825 1906.58 Q 690.205 1905.929 689.218 1905.929 L 689.218 1905.929 L 689.218 1905.929 Q 688.252 1905.929 687.612 1906.569 L 687.612 1906.569 L 687.612 1906.569 Q 686.971 1907.21 686.782 1908.323 Z  M 704.318 1903.577 L 707.51 1903.577 L 707.51 1914.833 L 704.318 1914.833 L 704.318 1910.528 L 700.391 1910.528 L 700.391 1914.833 L 697.199 1914.833 L 697.199 1903.577 L 700.391 1903.577 L 700.391 1907.903 L 704.318 1907.903 L 704.318 1903.577 L 704.318 1903.577 Z  M 717.675 1903.577 L 720.678 1903.577 L 720.678 1914.833 L 717.591 1914.833 L 717.591 1908.281 L 713.202 1914.833 L 710.199 1914.833 L 710.199 1903.577 L 713.286 1903.577 L 713.286 1910.15 L 717.675 1903.577 L 717.675 1903.577 Z  M 727.273 1903.577 L 733.174 1903.577 L 733.174 1914.833 L 729.982 1914.833 L 729.982 1911.221 L 728.26 1911.221 L 725.887 1914.833 L 722.191 1914.833 L 725.068 1910.696 L 725.068 1910.696 Q 722.716 1909.793 722.716 1907.336 L 722.716 1907.336 L 722.716 1907.336 Q 722.716 1905.614 723.913 1904.595 L 723.913 1904.595 L 723.913 1904.595 Q 725.11 1903.577 727.273 1903.577 L 727.273 1903.577 L 727.273 1903.577 Z  M 727.819 1908.911 L 727.819 1908.911 L 729.982 1908.911 L 729.982 1906.076 L 727.798 1906.076 L 727.798 1906.076 Q 726.916 1906.076 726.433 1906.443 L 726.433 1906.443 L 726.433 1906.443 Q 725.95 1906.811 725.95 1907.504 L 725.95 1907.504 L 725.95 1907.504 Q 725.95 1908.176 726.444 1908.543 L 726.444 1908.543 L 726.444 1908.543 Q 726.937 1908.911 727.819 1908.911 Z  M 606.706 1896.143 L 603.535 1896.143 L 603.535 1881.443 L 607.021 1881.443 L 610.885 1887.659 L 614.749 1881.443 L 618.235 1881.443 L 618.235 1896.143 L 615.022 1896.143 L 615.022 1886.546 L 610.885 1892.825 L 610.801 1892.825 L 606.706 1886.609 L 606.706 1896.143 L 606.706 1896.143 Z  M 631.08 1894.694 L 631.08 1894.694 L 631.08 1894.694 Q 629.326 1896.395 626.722 1896.395 L 626.722 1896.395 L 626.722 1896.395 Q 624.118 1896.395 622.386 1894.704 L 622.386 1894.704 L 622.386 1894.704 Q 620.653 1893.014 620.653 1890.536 L 620.653 1890.536 L 620.653 1890.536 Q 620.653 1888.079 622.407 1886.378 L 622.407 1886.378 L 622.407 1886.378 Q 624.16 1884.677 626.764 1884.677 L 626.764 1884.677 L 626.764 1884.677 Q 629.368 1884.677 631.101 1886.367 L 631.101 1886.367 L 631.101 1886.367 Q 632.833 1888.058 632.833 1890.536 L 632.833 1890.536 L 632.833 1890.536 Q 632.833 1892.993 631.08 1894.694 Z  M 626.764 1893.644 L 626.764 1893.644 L 626.764 1893.644 Q 628.087 1893.644 628.885 1892.751 L 628.885 1892.751 L 628.885 1892.751 Q 629.683 1891.859 629.683 1890.536 L 629.683 1890.536 L 629.683 1890.536 Q 629.683 1889.255 628.854 1888.341 L 628.854 1888.341 L 628.854 1888.341 Q 628.024 1887.428 626.722 1887.428 L 626.722 1887.428 L 626.722 1887.428 Q 625.399 1887.428 624.601 1888.32 L 624.601 1888.32 L 624.601 1888.32 Q 623.803 1889.213 623.803 1890.536 L 623.803 1890.536 L 623.803 1890.536 Q 623.803 1891.817 624.633 1892.73 L 624.633 1892.73 L 624.633 1892.73 Q 625.462 1893.644 626.764 1893.644 Z  M 640.806 1893.644 L 640.806 1893.644 L 640.806 1893.644 Q 642.003 1893.644 642.759 1892.814 L 642.759 1892.814 L 642.759 1892.814 Q 643.515 1891.985 643.515 1890.746 L 643.515 1890.746 L 643.515 1890.746 Q 643.515 1889.528 642.728 1888.667 L 642.728 1888.667 L 642.728 1888.667 Q 641.94 1887.806 640.764 1887.806 L 640.764 1887.806 L 640.764 1887.806 Q 639.567 1887.806 638.811 1888.656 L 638.811 1888.656 L 638.811 1888.656 Q 638.055 1889.507 638.055 1890.746 L 638.055 1890.746 L 638.055 1890.746 Q 638.055 1891.964 638.843 1892.804 L 638.843 1892.804 L 638.843 1892.804 Q 639.63 1893.644 640.806 1893.644 Z  M 640.764 1896.395 L 640.764 1896.395 L 640.764 1896.395 Q 637.908 1896.395 636.396 1894.662 L 636.396 1894.662 L 636.396 1894.662 Q 634.884 1892.93 634.884 1889.675 L 634.884 1889.675 L 634.884 1889.675 Q 634.884 1888.52 634.968 1887.627 L 634.968 1887.627 L 634.968 1887.627 Q 635.052 1886.735 635.336 1885.727 L 635.336 1885.727 L 635.336 1885.727 Q 635.619 1884.719 636.113 1884.005 L 636.113 1884.005 L 636.113 1884.005 Q 636.606 1883.291 637.499 1882.724 L 637.499 1882.724 L 637.499 1882.724 Q 638.391 1882.157 639.609 1881.926 L 639.609 1881.926 L 645.636 1880.813 L 646.14 1883.333 L 639.966 1884.551 L 639.966 1884.551 Q 637.404 1885.076 637.236 1887.197 L 637.236 1887.197 L 637.236 1887.197 Q 637.635 1886.504 638.706 1885.905 L 638.706 1885.905 L 638.706 1885.905 Q 639.777 1885.307 641.331 1885.307 L 641.331 1885.307 L 641.331 1885.307 Q 643.515 1885.307 645.09 1886.861 L 645.09 1886.861 L 645.09 1886.861 Q 646.665 1888.415 646.665 1890.704 L 646.665 1890.704 L 646.665 1890.704 Q 646.665 1893.077 644.985 1894.736 L 644.985 1894.736 L 644.985 1894.736 Q 643.305 1896.395 640.764 1896.395 Z  M 656.675 1884.887 L 659.678 1884.887 L 659.678 1896.143 L 656.591 1896.143 L 656.591 1889.591 L 652.202 1896.143 L 649.199 1896.143 L 649.199 1884.887 L 652.286 1884.887 L 652.286 1891.46 L 656.675 1884.887 L 656.675 1884.887 Z  M 663.543 1884.887 L 663.543 1884.887 L 672.594 1884.887 L 672.594 1896.143 L 669.402 1896.143 L 669.402 1887.617 L 666.546 1887.617 L 666.546 1887.617 Q 666.546 1889.843 666.378 1891.376 L 666.378 1891.376 L 666.378 1891.376 Q 666.21 1892.909 665.916 1893.875 L 665.916 1893.875 L 665.916 1893.875 Q 665.622 1894.841 665.097 1895.366 L 665.097 1895.366 L 665.097 1895.366 Q 664.572 1895.891 663.963 1896.08 L 663.963 1896.08 L 663.963 1896.08 Q 663.354 1896.269 662.451 1896.269 L 662.451 1896.269 L 662.451 1896.269 Q 661.59 1896.269 660.834 1896.08 L 660.834 1896.08 L 661.044 1893.497 L 661.044 1893.497 Q 661.422 1893.56 661.716 1893.56 L 661.716 1893.56 L 661.716 1893.56 Q 662.22 1893.56 662.514 1893.318 L 662.514 1893.318 L 662.514 1893.318 Q 662.808 1893.077 663.071 1892.226 L 663.071 1892.226 L 663.071 1892.226 Q 663.333 1891.376 663.438 1889.601 L 663.438 1889.601 L 663.438 1889.601 Q 663.543 1887.827 663.543 1884.887 Z  M 680.869 1896.143 L 675.199 1896.143 L 675.199 1884.887 L 678.391 1884.887 L 678.391 1888.604 L 680.701 1888.604 L 680.701 1888.604 Q 682.738 1888.604 683.967 1889.549 L 683.967 1889.549 L 683.967 1889.549 Q 685.195 1890.494 685.195 1892.321 L 685.195 1892.321 L 685.195 1892.321 Q 685.195 1894.106 684.051 1895.124 L 684.051 1895.124 L 684.051 1895.124 Q 682.906 1896.143 680.869 1896.143 L 680.869 1896.143 L 680.869 1896.143 Z  M 680.386 1891.019 L 680.386 1891.019 L 678.391 1891.019 L 678.391 1893.623 L 680.407 1893.623 L 680.407 1893.623 Q 681.982 1893.623 681.982 1892.279 L 681.982 1892.279 L 681.982 1892.279 Q 681.982 1891.691 681.573 1891.355 L 681.573 1891.355 L 681.573 1891.355 Q 681.163 1891.019 680.386 1891.019 Z  M 694.318 1884.887 L 697.51 1884.887 L 697.51 1896.143 L 694.318 1896.143 L 694.318 1891.838 L 690.391 1891.838 L 690.391 1896.143 L 687.199 1896.143 L 687.199 1884.887 L 690.391 1884.887 L 690.391 1889.213 L 694.318 1889.213 L 694.318 1884.887 L 694.318 1884.887 Z  M 705.869 1896.143 L 700.199 1896.143 L 700.199 1884.887 L 703.391 1884.887 L 703.391 1888.604 L 705.701 1888.604 L 705.701 1888.604 Q 707.738 1888.604 708.967 1889.549 L 708.967 1889.549 L 708.967 1889.549 Q 710.195 1890.494 710.195 1892.321 L 710.195 1892.321 L 710.195 1892.321 Q 710.195 1894.106 709.051 1895.124 L 709.051 1895.124 L 709.051 1895.124 Q 707.906 1896.143 705.869 1896.143 L 705.869 1896.143 L 705.869 1896.143 Z  M 705.386 1891.019 L 705.386 1891.019 L 703.391 1891.019 L 703.391 1893.623 L 705.407 1893.623 L 705.407 1893.623 Q 706.982 1893.623 706.982 1892.279 L 706.982 1892.279 L 706.982 1892.279 Q 706.982 1891.691 706.573 1891.355 L 706.573 1891.355 L 706.573 1891.355 Q 706.163 1891.019 705.386 1891.019 Z  M 714.878 1896.143 L 711.686 1896.143 L 711.686 1884.887 L 714.878 1884.887 L 714.878 1896.143 L 714.878 1896.143 Z  M 723.533 1896.395 L 723.533 1896.395 L 723.533 1896.395 Q 720.971 1896.395 719.312 1894.767 L 719.312 1894.767 L 719.312 1894.767 Q 717.653 1893.14 717.653 1890.536 L 717.653 1890.536 L 717.653 1890.536 Q 717.653 1888.079 719.228 1886.378 L 719.228 1886.378 L 719.228 1886.378 Q 720.803 1884.677 723.218 1884.677 L 723.218 1884.677 L 723.218 1884.677 Q 725.885 1884.677 727.292 1886.441 L 727.292 1886.441 L 727.292 1886.441 Q 728.699 1888.205 728.699 1890.788 L 728.699 1890.788 L 728.699 1890.788 Q 728.699 1891.04 728.657 1891.628 L 728.657 1891.628 L 720.824 1891.628 L 720.824 1891.628 Q 721.055 1892.699 721.769 1893.266 L 721.769 1893.266 L 721.769 1893.266 Q 722.483 1893.833 723.575 1893.833 L 723.575 1893.833 L 723.575 1893.833 Q 725.066 1893.833 726.305 1892.678 L 726.305 1892.678 L 728.132 1894.295 L 728.132 1894.295 Q 726.431 1896.395 723.533 1896.395 Z  M 720.782 1889.633 L 720.782 1889.633 L 725.591 1889.633 L 725.591 1889.633 Q 725.444 1888.541 724.825 1887.89 L 724.825 1887.89 L 724.825 1887.89 Q 724.205 1887.239 723.218 1887.239 L 723.218 1887.239 L 723.218 1887.239 Q 722.252 1887.239 721.612 1887.879 L 721.612 1887.879 L 721.612 1887.879 Q 720.971 1888.52 720.782 1889.633 Z " fill="rgb(28,28,28)"/><g><path d=" M 689.701 1774.119 C 689.338 1773.756 688.834 1773.547 688.32 1773.547 C 687.804 1773.547 687.302 1773.756 686.939 1774.119 C 686.574 1774.482 686.367 1774.986 686.367 1775.5 C 686.367 1776.014 686.574 1776.518 686.939 1776.881 C 687.302 1777.244 687.804 1777.453 688.32 1777.453 C 688.834 1777.453 689.338 1777.244 689.701 1776.881 C 690.064 1776.518 690.273 1776.014 690.273 1775.5 C 690.273 1774.986 690.064 1774.482 689.701 1774.119 Z " fill="rgb(255,8,8)"/><path d=" M 684.812 1782.922 L 672.312 1782.922 C 671.234 1782.922 670.359 1783.796 670.359 1784.875 L 670.359 1797.375 C 670.359 1798.454 671.234 1799.328 672.312 1799.328 L 684.812 1799.328 C 685.891 1799.328 686.765 1798.454 686.765 1797.375 L 686.765 1784.875 C 686.765 1783.796 685.891 1782.922 684.812 1782.922 Z  M 682.859 1795.422 L 674.265 1795.422 L 674.265 1786.828 L 682.859 1786.828 L 682.859 1795.422 Z " fill="rgb(47,47,47)"/><path d=" M 684.812 1804.797 L 672.312 1804.797 C 671.234 1804.797 670.359 1805.671 670.359 1806.75 L 670.359 1819.25 C 670.359 1820.329 671.234 1821.203 672.312 1821.203 L 684.812 1821.203 C 685.891 1821.203 686.765 1820.329 686.765 1819.25 L 686.765 1806.75 C 686.765 1805.671 685.891 1804.797 684.812 1804.797 Z  M 682.859 1817.297 L 674.265 1817.297 L 674.265 1808.703 L 682.859 1808.703 L 682.859 1817.297 Z " fill="rgb(255,8,8)"/><path d=" M 678.562 1826.672 L 672.312 1826.672 C 671.234 1826.672 670.359 1827.546 670.359 1828.625 L 670.359 1841.125 C 670.359 1842.204 671.234 1843.078 672.312 1843.078 C 673.391 1843.078 674.265 1842.204 674.265 1841.125 L 674.265 1830.578 L 678.562 1830.578 C 679.641 1830.578 680.515 1829.704 680.515 1828.625 C 680.515 1827.546 679.641 1826.672 678.562 1826.672 Z " fill="rgb(47,47,47)"/><path d=" M 662.93 1782.922 C 661.852 1782.922 660.977 1783.796 660.977 1784.875 L 660.977 1795.422 L 650.43 1795.422 C 649.352 1795.422 648.477 1796.296 648.477 1797.375 C 648.477 1798.454 649.352 1799.328 650.43 1799.328 L 662.93 1799.328 C 664.009 1799.328 664.883 1798.454 664.883 1797.375 L 664.883 1784.875 C 664.883 1783.796 664.009 1782.922 662.93 1782.922 Z " fill="rgb(255,8,8)"/><path d=" M 662.93 1804.797 L 650.43 1804.797 C 649.352 1804.797 648.477 1805.671 648.477 1806.75 L 648.477 1819.25 C 648.477 1820.329 649.352 1821.203 650.43 1821.203 L 662.93 1821.203 C 664.009 1821.203 664.883 1820.329 664.883 1819.25 L 664.883 1806.75 C 664.883 1805.671 664.009 1804.797 662.93 1804.797 Z  M 660.977 1817.297 L 652.383 1817.297 L 652.383 1808.703 L 660.977 1808.703 L 660.977 1817.297 Z " fill="rgb(47,47,47)"/><path d=" M 662.93 1826.672 L 650.43 1826.672 C 649.352 1826.672 648.477 1827.546 648.477 1828.625 L 648.477 1841.125 C 648.477 1842.204 649.352 1843.078 650.43 1843.078 L 662.93 1843.078 C 664.009 1843.078 664.883 1842.204 664.883 1841.125 L 664.883 1828.625 C 664.883 1827.546 664.009 1826.672 662.93 1826.672 Z  M 660.977 1839.172 L 652.383 1839.172 L 652.383 1830.578 L 660.977 1830.578 L 660.977 1839.172 Z " fill="rgb(47,47,47)"/><path d=" M 668.099 1854.641 C 667.736 1854.275 667.232 1854.068 666.718 1854.068 C 666.205 1854.068 665.701 1854.275 665.338 1854.641 C 664.974 1855.004 664.765 1855.506 664.765 1856.021 C 664.765 1856.535 664.974 1857.037 665.338 1857.402 C 665.701 1857.766 666.205 1857.975 666.718 1857.975 C 667.232 1857.975 667.736 1857.766 668.099 1857.402 C 668.462 1857.037 668.671 1856.535 668.671 1856.021 C 668.671 1855.506 668.463 1855.004 668.099 1854.641 Z " fill="rgb(255,8,8)"/><path d=" M 693.333 1763 L 640.21 1763 C 636.979 1763 634.351 1765.629 634.351 1768.859 L 634.351 1769.638 L 622.631 1769.638 C 619.4 1769.638 616.771 1772.267 616.771 1775.497 L 616.771 1793.466 C 616.771 1796.697 619.4 1799.326 622.631 1799.326 L 640.599 1799.326 C 643.83 1799.326 646.459 1796.697 646.459 1793.466 L 646.459 1777.453 L 679.271 1777.453 C 680.35 1777.453 681.224 1776.579 681.224 1775.5 C 681.224 1774.421 680.35 1773.547 679.271 1773.547 L 646.124 1773.547 C 645.318 1771.272 643.146 1769.638 640.599 1769.638 L 638.257 1769.638 L 638.257 1768.859 C 638.257 1767.782 639.133 1766.906 640.21 1766.906 L 693.333 1766.906 C 694.41 1766.906 695.286 1767.782 695.286 1768.859 L 695.286 1813 C 695.286 1814.079 696.16 1814.953 697.239 1814.953 C 698.317 1814.953 699.192 1814.079 699.192 1813 L 699.192 1768.859 C 699.192 1765.629 696.563 1763 693.333 1763 Z  M 642.552 1793.466 C 642.552 1794.543 641.676 1795.419 640.599 1795.419 L 622.631 1795.419 C 621.554 1795.419 620.677 1794.543 620.677 1793.466 L 620.677 1792.757 C 620.786 1792.685 620.889 1792.602 620.984 1792.506 L 627.172 1786.319 L 631.503 1790.651 C 632.266 1791.413 633.503 1791.413 634.266 1790.651 L 642.552 1782.364 L 642.552 1793.466 Z  M 640.599 1773.544 C 641.676 1773.544 642.552 1774.421 642.552 1775.497 L 642.552 1776.839 L 632.885 1786.507 L 628.553 1782.176 C 627.79 1781.413 626.553 1781.413 625.79 1782.176 L 620.677 1787.288 L 620.677 1775.497 C 620.677 1774.421 621.554 1773.544 622.631 1773.544 L 640.599 1773.544 Z " fill="rgb(47,47,47)"/><path d=" M 710.912 1819.641 L 689.818 1819.641 C 686.587 1819.641 683.959 1822.269 683.959 1825.5 L 683.959 1846.594 C 683.959 1849.825 686.587 1852.453 689.818 1852.453 L 695.286 1852.453 L 695.286 1857.141 C 695.286 1858.218 694.41 1859.094 693.333 1859.094 L 640.21 1859.094 C 639.133 1859.094 638.257 1858.218 638.257 1857.141 L 638.257 1852.453 L 679.535 1852.453 C 680.613 1852.453 681.488 1851.579 681.488 1850.5 C 681.488 1849.421 680.613 1848.547 679.535 1848.547 L 638.257 1848.547 L 638.257 1806.75 C 638.257 1805.671 637.382 1804.797 636.304 1804.797 C 635.225 1804.797 634.351 1805.671 634.351 1806.75 L 634.351 1857.141 C 634.351 1860.371 636.979 1863 640.21 1863 L 693.333 1863 C 696.563 1863 699.192 1860.371 699.192 1857.141 L 699.192 1852.453 L 710.912 1852.453 C 714.143 1852.453 716.771 1849.825 716.771 1846.594 L 716.771 1825.5 C 716.771 1822.269 714.143 1819.641 710.912 1819.641 Z  M 712.865 1846.594 C 712.865 1847.671 711.989 1848.547 710.912 1848.547 L 689.818 1848.547 C 688.741 1848.547 687.865 1847.671 687.865 1846.594 L 687.865 1825.5 C 687.865 1824.423 688.741 1823.547 689.818 1823.547 L 710.912 1823.547 C 711.989 1823.547 712.865 1824.423 712.865 1825.5 L 712.865 1846.594 Z " fill="rgb(47,47,47)"/><path d=" M 706.237 1782.922 C 705.158 1782.922 704.284 1783.796 704.284 1784.875 L 704.284 1800.431 C 704.284 1801.51 705.158 1802.384 706.237 1802.384 C 707.315 1802.384 708.19 1801.51 708.19 1800.431 L 708.19 1784.875 C 708.19 1783.796 707.315 1782.922 706.237 1782.922 Z " fill="rgb(47,47,47)"/><path d=" M 707.617 1806.484 C 707.254 1806.121 706.75 1805.912 706.236 1805.912 C 705.722 1805.912 705.219 1806.121 704.855 1806.484 C 704.492 1806.848 704.283 1807.352 704.283 1807.865 C 704.283 1808.379 704.492 1808.883 704.855 1809.246 C 705.219 1809.609 705.722 1809.818 706.236 1809.818 C 706.75 1809.818 707.254 1809.609 707.617 1809.246 C 707.982 1808.883 708.189 1808.379 708.189 1807.865 C 708.189 1807.352 707.982 1806.848 707.617 1806.484 Z " fill="rgb(47,47,47)"/><path d=" M 627.318 1808.114 C 626.24 1808.114 625.365 1808.988 625.365 1810.067 L 625.365 1823.517 C 625.365 1824.596 626.24 1825.47 627.318 1825.47 C 628.397 1825.47 629.271 1824.596 629.271 1823.517 L 629.271 1810.067 C 629.271 1808.988 628.397 1808.114 627.318 1808.114 Z " fill="rgb(47,47,47)"/><path d=" M 706.455 1832.37 L 699.599 1828.415 C 698.269 1827.648 696.682 1827.649 695.353 1828.416 C 694.024 1829.184 693.231 1830.559 693.231 1832.093 L 693.231 1840 C 693.231 1841.534 694.024 1842.909 695.353 1843.677 C 696.018 1844.061 696.748 1844.253 697.477 1844.253 C 698.206 1844.253 698.934 1844.062 699.598 1843.679 L 706.454 1839.727 C 707.785 1838.96 708.58 1837.584 708.58 1836.048 C 708.58 1834.512 707.785 1833.137 706.455 1832.37 Z  M 704.503 1836.343 L 697.647 1840.295 C 697.534 1840.36 697.42 1840.36 697.307 1840.295 C 697.194 1840.229 697.137 1840.13 697.137 1840 L 697.137 1832.094 C 697.137 1831.963 697.194 1831.864 697.307 1831.799 C 697.364 1831.766 697.42 1831.75 697.477 1831.75 C 697.534 1831.75 697.591 1831.766 697.647 1831.799 L 704.503 1835.754 C 704.616 1835.819 704.674 1835.918 704.674 1836.048 C 704.674 1836.178 704.616 1836.278 704.503 1836.343 Z " fill="rgb(255,8,8)"/></g></g></g><g><path d=" M 987.152 1915.085 L 987.152 1915.085 L 987.152 1915.085 Q 983.918 1915.085 981.765 1912.89 L 981.765 1912.89 L 981.765 1912.89 Q 979.613 1910.696 979.613 1907.483 L 979.613 1907.483 L 979.613 1907.483 Q 979.613 1904.291 981.776 1902.086 L 981.776 1902.086 L 981.776 1902.086 Q 983.939 1899.881 987.278 1899.881 L 987.278 1899.881 L 987.278 1899.881 Q 989.189 1899.881 990.491 1900.5 L 990.491 1900.5 L 990.491 1900.5 Q 991.793 1901.12 992.969 1902.275 L 992.969 1902.275 L 991.037 1904.501 L 991.037 1904.501 Q 990.092 1903.64 989.262 1903.251 L 989.262 1903.251 L 989.262 1903.251 Q 988.433 1902.863 987.257 1902.863 L 987.257 1902.863 L 987.257 1902.863 Q 985.409 1902.863 984.201 1904.196 L 984.201 1904.196 L 984.201 1904.196 Q 982.994 1905.53 982.994 1907.483 L 982.994 1907.483 L 982.994 1907.483 Q 982.994 1909.415 984.201 1910.759 L 984.201 1910.759 L 984.201 1910.759 Q 985.409 1912.103 987.257 1912.103 L 987.257 1912.103 L 987.257 1912.103 Q 988.433 1912.103 989.294 1911.683 L 989.294 1911.683 L 989.294 1911.683 Q 990.155 1911.263 991.121 1910.381 L 991.121 1910.381 L 993.179 1912.586 L 993.179 1912.586 Q 991.982 1913.867 990.585 1914.476 L 990.585 1914.476 L 990.585 1914.476 Q 989.189 1915.085 987.152 1915.085 Z  M 1002.404 1903.577 L 1005.407 1903.577 L 1005.407 1914.833 L 1002.32 1914.833 L 1002.32 1908.281 L 997.931 1914.833 L 994.928 1914.833 L 994.928 1903.577 L 998.015 1903.577 L 998.015 1910.15 L 1002.404 1903.577 L 1002.404 1903.577 Z  M 1013.241 1915.085 L 1013.241 1915.085 L 1013.241 1915.085 Q 1010.721 1915.085 1009.051 1913.384 L 1009.051 1913.384 L 1009.051 1913.384 Q 1007.382 1911.683 1007.382 1909.226 L 1007.382 1909.226 L 1007.382 1909.226 Q 1007.382 1906.79 1009.062 1905.078 L 1009.062 1905.078 L 1009.062 1905.078 Q 1010.742 1903.367 1013.283 1903.367 L 1013.283 1903.367 L 1013.283 1903.367 Q 1015.992 1903.367 1017.756 1905.341 L 1017.756 1905.341 L 1015.887 1907.231 L 1015.887 1907.231 Q 1014.711 1906.118 1013.262 1906.118 L 1013.262 1906.118 L 1013.262 1906.118 Q 1012.086 1906.118 1011.309 1907.021 L 1011.309 1907.021 L 1011.309 1907.021 Q 1010.532 1907.924 1010.532 1909.226 L 1010.532 1909.226 L 1010.532 1909.226 Q 1010.532 1910.549 1011.319 1911.441 L 1011.319 1911.441 L 1011.319 1911.441 Q 1012.107 1912.334 1013.388 1912.334 L 1013.388 1912.334 L 1013.388 1912.334 Q 1014.711 1912.334 1015.971 1911.137 L 1015.971 1911.137 L 1017.84 1913.027 L 1017.84 1913.027 Q 1016.916 1914.035 1015.866 1914.56 L 1015.866 1914.56 L 1015.866 1914.56 Q 1014.816 1915.085 1013.241 1915.085 Z  M 1018.815 1903.577 L 1028.727 1903.577 L 1028.727 1906.307 L 1025.388 1906.307 L 1025.388 1914.833 L 1022.154 1914.833 L 1022.154 1906.307 L 1018.815 1906.307 L 1018.815 1903.577 L 1018.815 1903.577 Z  M 1036.262 1915.085 L 1036.262 1915.085 L 1036.262 1915.085 Q 1033.7 1915.085 1032.041 1913.457 L 1032.041 1913.457 L 1032.041 1913.457 Q 1030.382 1911.83 1030.382 1909.226 L 1030.382 1909.226 L 1030.382 1909.226 Q 1030.382 1906.769 1031.957 1905.068 L 1031.957 1905.068 L 1031.957 1905.068 Q 1033.532 1903.367 1035.947 1903.367 L 1035.947 1903.367 L 1035.947 1903.367 Q 1038.614 1903.367 1040.021 1905.131 L 1040.021 1905.131 L 1040.021 1905.131 Q 1041.428 1906.895 1041.428 1909.478 L 1041.428 1909.478 L 1041.428 1909.478 Q 1041.428 1909.73 1041.386 1910.318 L 1041.386 1910.318 L 1033.553 1910.318 L 1033.553 1910.318 Q 1033.784 1911.389 1034.498 1911.956 L 1034.498 1911.956 L 1034.498 1911.956 Q 1035.212 1912.523 1036.304 1912.523 L 1036.304 1912.523 L 1036.304 1912.523 Q 1037.795 1912.523 1039.034 1911.368 L 1039.034 1911.368 L 1040.861 1912.985 L 1040.861 1912.985 Q 1039.16 1915.085 1036.262 1915.085 Z  M 1033.511 1908.323 L 1033.511 1908.323 L 1038.32 1908.323 L 1038.32 1908.323 Q 1038.173 1907.231 1037.553 1906.58 L 1037.553 1906.58 L 1037.553 1906.58 Q 1036.934 1905.929 1035.947 1905.929 L 1035.947 1905.929 L 1035.947 1905.929 Q 1034.981 1905.929 1034.34 1906.569 L 1034.34 1906.569 L 1034.34 1906.569 Q 1033.7 1907.21 1033.511 1908.323 Z  M 1047.078 1914.833 L 1043.928 1914.833 L 1043.928 1903.577 L 1047.162 1903.577 L 1050.207 1908.302 L 1053.294 1903.577 L 1056.528 1903.577 L 1056.528 1914.833 L 1053.294 1914.833 L 1053.294 1908.071 L 1050.165 1912.691 L 1047.078 1908.134 L 1047.078 1914.833 L 1047.078 1914.833 Z  M 1064.598 1914.833 L 1058.928 1914.833 L 1058.928 1903.577 L 1062.12 1903.577 L 1062.12 1907.294 L 1064.43 1907.294 L 1064.43 1907.294 Q 1066.467 1907.294 1067.695 1908.239 L 1067.695 1908.239 L 1067.695 1908.239 Q 1068.924 1909.184 1068.924 1911.011 L 1068.924 1911.011 L 1068.924 1911.011 Q 1068.924 1912.796 1067.779 1913.814 L 1067.779 1913.814 L 1067.779 1913.814 Q 1066.635 1914.833 1064.598 1914.833 L 1064.598 1914.833 L 1064.598 1914.833 Z  M 1064.115 1909.709 L 1064.115 1909.709 L 1062.12 1909.709 L 1062.12 1912.313 L 1064.136 1912.313 L 1064.136 1912.313 Q 1065.711 1912.313 1065.711 1910.969 L 1065.711 1910.969 L 1065.711 1910.969 Q 1065.711 1910.381 1065.301 1910.045 L 1065.301 1910.045 L 1065.301 1910.045 Q 1064.892 1909.709 1064.115 1909.709 Z  M 1073.607 1914.833 L 1070.415 1914.833 L 1070.415 1903.577 L 1073.607 1903.577 L 1073.607 1914.833 L 1073.607 1914.833 Z  M 1011.197 1896.395 L 1011.197 1896.395 L 1011.197 1896.395 Q 1007.963 1896.395 1005.811 1894.2 L 1005.811 1894.2 L 1005.811 1894.2 Q 1003.658 1892.006 1003.658 1888.793 L 1003.658 1888.793 L 1003.658 1888.793 Q 1003.658 1885.601 1005.821 1883.396 L 1005.821 1883.396 L 1005.821 1883.396 Q 1007.984 1881.191 1011.323 1881.191 L 1011.323 1881.191 L 1011.323 1881.191 Q 1013.234 1881.191 1014.536 1881.81 L 1014.536 1881.81 L 1014.536 1881.81 Q 1015.838 1882.43 1017.014 1883.585 L 1017.014 1883.585 L 1015.082 1885.811 L 1015.082 1885.811 Q 1014.137 1884.95 1013.308 1884.561 L 1013.308 1884.561 L 1013.308 1884.561 Q 1012.478 1884.173 1011.302 1884.173 L 1011.302 1884.173 L 1011.302 1884.173 Q 1009.454 1884.173 1008.247 1885.506 L 1008.247 1885.506 L 1008.247 1885.506 Q 1007.039 1886.84 1007.039 1888.793 L 1007.039 1888.793 L 1007.039 1888.793 Q 1007.039 1890.725 1008.247 1892.069 L 1008.247 1892.069 L 1008.247 1892.069 Q 1009.454 1893.413 1011.302 1893.413 L 1011.302 1893.413 L 1011.302 1893.413 Q 1012.478 1893.413 1013.339 1892.993 L 1013.339 1892.993 L 1013.339 1892.993 Q 1014.2 1892.573 1015.166 1891.691 L 1015.166 1891.691 L 1017.224 1893.896 L 1017.224 1893.896 Q 1016.027 1895.177 1014.631 1895.786 L 1014.631 1895.786 L 1014.631 1895.786 Q 1013.234 1896.395 1011.197 1896.395 Z  M 1023.041 1896.143 L 1019.807 1896.143 L 1019.807 1881.443 L 1026.527 1881.443 L 1026.527 1881.443 Q 1029.32 1881.443 1030.811 1882.934 L 1030.811 1882.934 L 1030.811 1882.934 Q 1032.071 1884.194 1032.071 1886.336 L 1032.071 1886.336 L 1032.071 1886.336 Q 1032.071 1889.717 1028.921 1890.893 L 1028.921 1890.893 L 1032.512 1896.143 L 1028.732 1896.143 L 1025.54 1891.439 L 1023.041 1891.439 L 1023.041 1896.143 L 1023.041 1896.143 Z  M 1023.041 1884.362 L 1023.041 1888.583 L 1026.317 1888.583 L 1026.317 1888.583 Q 1027.493 1888.583 1028.144 1888.005 L 1028.144 1888.005 L 1028.144 1888.005 Q 1028.795 1887.428 1028.795 1886.462 L 1028.795 1886.462 L 1028.795 1886.462 Q 1028.795 1885.433 1028.123 1884.897 L 1028.123 1884.897 L 1028.123 1884.897 Q 1027.451 1884.362 1026.254 1884.362 L 1026.254 1884.362 L 1023.041 1884.362 L 1023.041 1884.362 Z  M 1038.161 1896.143 L 1034.99 1896.143 L 1034.99 1881.443 L 1038.476 1881.443 L 1042.34 1887.659 L 1046.204 1881.443 L 1049.69 1881.443 L 1049.69 1896.143 L 1046.477 1896.143 L 1046.477 1886.546 L 1042.34 1892.825 L 1042.256 1892.825 L 1038.161 1886.609 L 1038.161 1896.143 L 1038.161 1896.143 Z " fill="rgb(28,28,28)"/><g><g><path d=" M 1086.696 1763 L 969.304 1763 C 963.311 1763 958.435 1767.876 958.435 1773.87 L 958.435 1852.13 C 958.435 1858.124 963.311 1863 969.304 1863 L 1086.696 1863 C 1092.689 1863 1097.565 1858.124 1097.565 1852.13 L 1097.565 1773.87 C 1097.565 1767.876 1092.689 1763 1086.696 1763 Z  M 962.783 1852.13 L 962.783 1780.391 L 991.043 1780.391 L 991.043 1858.652 L 969.304 1858.652 C 965.708 1858.652 962.783 1855.726 962.783 1852.13 Z  M 1086.696 1858.652 L 995.391 1858.652 L 995.391 1780.391 L 1080.174 1780.391 C 1081.374 1780.391 1082.348 1779.418 1082.348 1778.217 C 1082.348 1777.017 1081.374 1776.043 1080.174 1776.043 L 962.783 1776.043 L 962.783 1773.87 C 962.783 1770.274 965.708 1767.348 969.304 1767.348 L 1086.696 1767.348 C 1090.292 1767.348 1093.217 1770.274 1093.217 1773.87 L 1093.217 1776.043 L 1088.87 1776.043 C 1087.669 1776.043 1086.696 1777.017 1086.696 1778.217 C 1086.696 1779.418 1087.669 1780.391 1088.87 1780.391 L 1093.217 1780.391 L 1093.217 1852.13 C 1093.217 1855.726 1090.292 1858.652 1086.696 1858.652 Z " fill="rgb(47,47,47)"/><path d=" M 969.304 1769.522 C 968.734 1769.522 968.171 1769.753 967.766 1770.158 C 967.361 1770.563 967.13 1771.122 967.13 1771.696 C 967.13 1772.269 967.361 1772.829 967.766 1773.234 C 968.171 1773.638 968.734 1773.87 969.304 1773.87 C 969.875 1773.87 970.435 1773.638 970.842 1773.234 C 971.247 1772.829 971.478 1772.269 971.478 1771.696 C 971.478 1771.122 971.247 1770.563 970.842 1770.158 C 970.437 1769.753 969.875 1769.522 969.304 1769.522 Z " fill="rgb(47,47,47)"/><path d=" M 975.826 1769.522 C 975.255 1769.522 974.693 1769.753 974.288 1770.158 C 973.883 1770.563 973.652 1771.122 973.652 1771.696 C 973.652 1772.269 973.883 1772.829 974.288 1773.234 C 974.693 1773.638 975.255 1773.87 975.826 1773.87 C 976.397 1773.87 976.957 1773.638 977.364 1773.234 C 977.769 1772.829 978 1772.269 978 1771.696 C 978 1771.122 977.769 1770.563 977.364 1770.158 C 976.959 1769.753 976.397 1769.522 975.826 1769.522 Z " fill="rgb(255,8,8)"/><path d=" M 982.348 1769.522 C 981.777 1769.522 981.215 1769.753 980.81 1770.158 C 980.405 1770.563 980.174 1771.122 980.174 1771.696 C 980.174 1772.269 980.405 1772.829 980.81 1773.234 C 981.215 1773.638 981.777 1773.87 982.348 1773.87 C 982.918 1773.87 983.481 1773.638 983.886 1773.234 C 984.291 1772.829 984.522 1772.266 984.522 1771.696 C 984.522 1771.125 984.291 1770.563 983.886 1770.158 C 983.481 1769.753 982.921 1769.522 982.348 1769.522 Z " fill="rgb(47,47,47)"/><path d=" M 969.304 1789.087 L 984.522 1789.087 C 985.722 1789.087 986.696 1788.114 986.696 1786.913 C 986.696 1785.713 985.722 1784.739 984.522 1784.739 L 969.304 1784.739 C 968.104 1784.739 967.13 1785.713 967.13 1786.913 C 967.13 1788.114 968.104 1789.087 969.304 1789.087 Z " fill="rgb(47,47,47)"/><path d=" M 984.522 1793.435 L 969.304 1793.435 C 968.104 1793.435 967.13 1794.408 967.13 1795.609 C 967.13 1796.809 968.104 1797.783 969.304 1797.783 L 984.522 1797.783 C 985.722 1797.783 986.696 1796.809 986.696 1795.609 C 986.696 1794.408 985.722 1793.435 984.522 1793.435 Z " fill="rgb(255,8,8)"/><path d=" M 984.522 1802.13 L 969.304 1802.13 C 968.104 1802.13 967.13 1803.104 967.13 1804.304 C 967.13 1805.505 968.104 1806.478 969.304 1806.478 L 984.522 1806.478 C 985.722 1806.478 986.696 1805.505 986.696 1804.304 C 986.696 1803.104 985.722 1802.13 984.522 1802.13 Z " fill="rgb(47,47,47)"/><path d=" M 978 1810.826 L 969.304 1810.826 C 968.104 1810.826 967.13 1811.799 967.13 1813 C 967.13 1814.201 968.104 1815.174 969.304 1815.174 L 978 1815.174 C 979.201 1815.174 980.174 1814.201 980.174 1813 C 980.174 1811.799 979.201 1810.826 978 1810.826 Z " fill="rgb(47,47,47)"/><path d=" M 978 1819.522 L 969.304 1819.522 C 968.104 1819.522 967.13 1820.495 967.13 1821.696 C 967.13 1822.896 968.104 1823.87 969.304 1823.87 L 978 1823.87 C 979.201 1823.87 980.174 1822.896 980.174 1821.696 C 980.174 1820.495 979.201 1819.522 978 1819.522 Z " fill="rgb(47,47,47)"/><path d=" M 971.478 1828.217 L 969.304 1828.217 C 968.104 1828.217 967.13 1829.191 967.13 1830.391 C 967.13 1831.592 968.104 1832.565 969.304 1832.565 L 971.478 1832.565 C 972.679 1832.565 973.652 1831.592 973.652 1830.391 C 973.652 1829.191 972.679 1828.217 971.478 1828.217 Z " fill="rgb(255,8,8)"/><path d=" M 1017.13 1808.652 C 1020.034 1808.652 1022.763 1809.783 1024.816 1811.836 C 1025.665 1812.685 1027.042 1812.685 1027.89 1811.836 C 1028.74 1810.987 1028.74 1809.611 1027.89 1808.761 C 1021.957 1802.828 1012.303 1802.829 1006.37 1808.761 C 1003.496 1811.636 1001.913 1815.457 1001.913 1819.522 C 1001.913 1823.586 1003.496 1827.408 1006.37 1830.282 C 1009.337 1833.249 1013.233 1834.732 1017.13 1834.732 C 1021.027 1834.732 1024.924 1833.249 1027.891 1830.282 C 1028.74 1829.433 1028.74 1828.057 1027.891 1827.208 C 1027.042 1826.359 1025.665 1826.359 1024.817 1827.208 C 1022.763 1829.261 1020.034 1830.391 1017.13 1830.391 C 1014.227 1830.391 1011.498 1829.261 1009.445 1827.208 C 1007.392 1825.155 1006.261 1822.425 1006.261 1819.522 C 1006.261 1816.618 1007.392 1813.889 1009.445 1811.836 C 1011.498 1809.783 1014.227 1808.652 1017.13 1808.652 Z " fill="rgb(47,47,47)"/><path d=" M 1047.571 1825.138 C 1051.409 1823.459 1054.098 1819.624 1054.098 1815.174 C 1054.098 1809.18 1049.222 1804.304 1043.228 1804.304 L 1034.522 1804.304 C 1033.321 1804.304 1032.348 1805.278 1032.348 1806.478 C 1032.348 1806.551 1032.351 1806.623 1032.358 1806.694 L 1032.358 1832.565 C 1032.358 1833.766 1033.332 1834.739 1034.532 1834.739 C 1035.733 1834.739 1036.706 1833.766 1036.706 1832.565 L 1036.706 1808.652 L 1043.228 1808.652 C 1046.824 1808.652 1049.75 1811.578 1049.75 1815.174 C 1049.75 1818.77 1046.824 1821.696 1043.228 1821.696 C 1042.349 1821.696 1041.556 1822.225 1041.22 1823.037 C 1040.883 1823.85 1041.069 1824.785 1041.691 1825.407 L 1050.386 1834.102 C 1050.811 1834.527 1051.367 1834.739 1051.924 1834.739 C 1052.48 1834.739 1053.036 1834.527 1053.461 1834.102 C 1054.31 1833.253 1054.31 1831.877 1053.461 1831.028 L 1047.571 1825.138 Z " fill="rgb(255,8,8)"/><path d=" M 1082.904 1804.374 C 1081.945 1804.127 1080.939 1804.557 1080.458 1805.423 L 1071.489 1821.567 L 1062.52 1805.423 C 1062.039 1804.556 1061.033 1804.125 1060.074 1804.374 C 1059.115 1804.622 1058.445 1805.488 1058.445 1806.478 L 1058.445 1832.565 C 1058.445 1833.766 1059.419 1834.739 1060.619 1834.739 C 1061.82 1834.739 1062.793 1833.766 1062.793 1832.565 L 1062.793 1814.868 L 1069.589 1827.099 C 1069.972 1827.789 1070.699 1828.217 1071.489 1828.217 C 1072.278 1828.217 1073.006 1827.789 1073.389 1827.099 L 1080.185 1814.868 L 1080.185 1832.565 C 1080.185 1833.766 1081.158 1834.739 1082.358 1834.739 C 1083.559 1834.739 1084.532 1833.766 1084.532 1832.565 L 1084.532 1806.478 C 1084.532 1805.488 1083.863 1804.622 1082.904 1804.374 Z " fill="rgb(47,47,47)"/></g></g></g><path d=" M 493.175 1813 L 493.175 1832.378 L 473.797 1832.378 L 473.797 1834.906 L 493.175 1834.906 L 493.175 1854.284 L 495.704 1854.284 L 495.704 1834.906 L 515.082 1834.906 L 515.082 1832.378 L 495.704 1832.378 L 495.704 1813 L 493.175 1813 Z " fill-rule="evenodd" fill="rgb(121,121,121)"/><path d=" M 854.839 1813 L 854.839 1832.378 L 835.461 1832.378 L 835.461 1834.906 L 854.839 1834.906 L 854.839 1854.284 L 857.367 1854.284 L 857.367 1834.906 L 876.745 1834.906 L 876.745 1832.378 L 857.367 1832.378 L 857.367 1813 L 854.839 1813 Z " fill-rule="evenodd" fill="rgb(121,121,121)"/></g></svg>