<?xml version="1.0" encoding="UTF-8" standalone="no"?><!-- Generator: Gravit.io --><svg xmlns="http://www.w3.org/2000/svg" xmlns:xlink="http://www.w3.org/1999/xlink" style="isolation:isolate" viewBox="48 405.072 337.11 91.888" width="337.11pt" height="91.888pt"><g><path d=" M 156.956 476.867 L 148.463 468.373 L 148.463 433.659 L 156.956 425.165 L 182.217 425.165 L 190.563 433.511 L 190.563 441.414 L 180.518 441.414 L 180.518 437.204 L 177.046 433.732 L 162.274 433.732 L 158.508 437.499 L 158.508 464.532 L 162.274 468.299 L 177.046 468.299 L 180.518 464.827 L 180.518 460.617 L 190.563 460.617 L 190.563 468.52 L 182.217 476.867 L 156.956 476.867 Z  M 232.885 453.896 L 238.202 459.731 L 238.202 476.867 L 228.158 476.867 L 228.158 462.021 L 223.726 457.072 L 207.624 457.072 L 207.624 476.867 L 197.579 476.867 L 197.579 425.165 L 230.004 425.165 L 237.907 433.142 L 237.907 448.8 L 232.885 453.896 Z  M 207.624 433.585 L 207.624 448.8 L 225.425 448.8 L 228.01 446.215 L 228.01 436.17 L 225.425 433.585 L 207.624 433.585 Z  M 255.19 476.867 L 246.696 468.373 L 246.696 433.659 L 255.19 425.165 L 281.78 425.165 L 290.274 433.659 L 290.274 468.373 L 281.78 476.867 L 255.19 476.867 Z  M 260.508 468.299 L 276.462 468.299 L 280.229 464.532 L 280.229 437.499 L 276.462 433.732 L 260.508 433.732 L 256.741 437.499 L 256.741 464.532 L 260.508 468.299 Z  M 306.006 476.867 L 298.029 468.89 L 298.029 461.504 L 307.926 461.504 L 307.926 465.862 L 310.364 468.299 L 325.653 468.299 L 328.164 465.788 L 328.164 457.22 L 325.727 454.782 L 306.154 454.782 L 298.177 446.806 L 298.177 433.142 L 306.154 425.165 L 329.494 425.165 L 337.47 433.142 L 337.47 440.601 L 327.573 440.601 L 327.573 436.17 L 325.136 433.732 L 310.511 433.732 L 308.074 436.17 L 308.074 443.777 L 310.511 446.215 L 330.084 446.215 L 338.061 454.192 L 338.061 468.742 L 329.937 476.867 L 306.006 476.867 Z  M 353.055 476.867 L 345.078 468.89 L 345.078 461.504 L 354.975 461.504 L 354.975 465.862 L 357.413 468.299 L 372.702 468.299 L 375.213 465.788 L 375.213 457.22 L 372.776 454.782 L 353.203 454.782 L 345.226 446.806 L 345.226 433.142 L 353.203 425.165 L 376.542 425.165 L 384.519 433.142 L 384.519 440.601 L 374.622 440.601 L 374.622 436.17 L 372.185 433.732 L 357.56 433.732 L 355.123 436.17 L 355.123 443.777 L 357.56 446.215 L 377.133 446.215 L 385.11 454.192 L 385.11 468.742 L 376.986 476.867 L 353.055 476.867 Z " fill="rgb(255,255,255)"/><g><path d=" M 86.322 430.955 L 81.291 424.233 L 89.084 419.865 L 91.632 421.407 Q 97.648 418.709 104.777 418.26 Q 85.273 404.237 78.379 413.25 Q 71.914 421.578 96.042 444.336 Q 92.895 452.236 83.839 458.295 L 80.756 456.475 L 81.527 450.566 Q 76.388 446.819 71.529 441.296 L 66.219 441.895 Q 58.94 432.347 58.555 424.34 L 62.472 423.89 Q 62.023 415.113 63.179 411.302 L 59.604 405.072 Q 53.416 411.024 48.771 421.257 L 53.031 425.068 Q 51.104 429.371 51.532 434.659 L 48 439.305 Q 50.376 449.067 55.964 455.811 L 60.76 455.255 Q 62.087 457.866 64.292 459.729 Q 64.185 465.36 69.752 466.794 Q 75.339 468.25 86.922 460.114 Q 98.418 451.893 102.614 437.143 Q 106.746 422.456 86.322 430.955 Z " fill="rgb(255,255,255)"/><path d=" M 120.234 421.471 L 116.53 425.068 Q 119.849 433.182 117.194 442.773 L 122.61 443.437 Q 118.243 453.884 111.499 461.934 L 105.376 461.613 Q 100.238 467.907 94.329 472.489 L 94.886 477.07 Q 86.279 483.921 76.945 485.805 L 76.281 480.453 Q 68.274 482.144 62.194 479.275 L 57.399 483.707 Q 63.8 490.708 72.085 495.14 L 75.939 491.265 Q 79.707 492.314 83.903 491.757 L 91.674 496.959 Q 101.116 495.075 109.958 488.182 L 109.294 482.872 Q 115.374 477.948 121.176 471.162 L 125.308 472.382 Q 131.988 464.311 135.092 454.099 L 131.281 450.737 Q 131.559 444.229 129.782 437.913 L 132.095 433.781 Q 126.314 426.652 120.234 421.471 L 120.234 421.471 Z " fill="rgb(255,255,255)"/></g></g></svg>