<?xml version="1.0" encoding="UTF-8" standalone="no"?><!-- Generator: Gravit.io --><svg xmlns="http://www.w3.org/2000/svg" xmlns:xlink="http://www.w3.org/1999/xlink" style="isolation:isolate" viewBox="733.591 405.072 206.043 90.928" width="206.043pt" height="90.928pt"><g><path d=" M 743.602 434.521 L 754.546 434.521 L 754.546 434.521 C 754.813 434.495 755.079 434.462 755.345 434.422 C 755.549 434.391 755.752 434.352 755.953 434.306 C 756.017 434.291 756.081 434.275 756.145 434.258 C 756.198 434.244 756.251 434.228 756.304 434.213 C 756.374 434.191 756.442 434.168 756.51 434.144 C 756.559 434.126 756.608 434.107 756.655 434.085 C 756.709 434.062 756.762 434.035 756.814 434.007 C 756.833 433.995 756.852 433.983 756.871 433.97 C 756.932 433.924 756.993 433.875 757.051 433.825 C 757.164 433.726 757.275 433.624 757.381 433.518 C 757.473 433.428 757.563 433.336 757.651 433.243 C 757.769 433.119 757.885 432.994 757.999 432.866 C 758.179 432.666 758.355 432.462 758.528 432.256 C 758.74 432.003 758.95 431.747 759.156 431.489 L 776.103 405.072 L 780.511 405.072 L 762.349 433.622 C 762.311 433.682 762.27 433.741 762.225 433.797 C 761.977 434.109 761.725 434.417 761.47 434.722 C 761.269 434.961 761.065 435.197 760.857 435.429 C 760.718 435.583 760.578 435.735 760.436 435.885 C 760.317 436.011 760.196 436.134 760.072 436.255 C 760.044 436.283 760.017 436.31 759.989 436.336 C 759.996 436.342 760.003 436.347 760.01 436.352 C 760.206 436.496 760.39 436.658 760.559 436.833 C 760.754 437.036 760.938 437.249 761.11 437.471 C 761.229 437.624 761.343 437.78 761.453 437.939 C 761.584 438.13 761.71 438.322 761.834 438.518 C 762.022 438.819 762.203 439.125 762.376 439.435 C 762.601 439.842 762.82 440.252 763.03 440.666 C 763.033 440.673 763.037 440.679 763.039 440.685 L 775.15 465.17 C 775.175 465.221 775.198 465.273 775.219 465.326 C 775.309 465.558 775.407 465.787 775.512 466.013 C 775.587 466.172 775.668 466.328 775.755 466.48 C 775.782 466.528 775.81 466.574 775.839 466.62 C 775.863 466.659 775.888 466.699 775.914 466.738 C 775.948 466.787 775.982 466.837 776.019 466.885 C 776.046 466.922 776.074 466.957 776.103 466.992 C 776.138 467.032 776.174 467.071 776.212 467.108 C 776.231 467.127 776.252 467.145 776.274 467.162 C 776.326 467.204 776.384 467.24 776.445 467.268 C 776.634 467.358 776.831 467.432 777.032 467.491 C 777.211 467.544 777.392 467.589 777.575 467.626 C 777.802 467.671 778.029 467.71 778.258 467.742 L 782.165 467.742 L 782.165 471.58 L 778.128 471.58 C 778.045 471.58 777.962 471.575 777.879 471.564 C 777.524 471.518 777.172 471.459 776.821 471.389 C 776.528 471.33 776.238 471.259 775.951 471.175 C 775.559 471.06 775.176 470.914 774.806 470.739 C 774.482 470.586 774.176 470.397 773.895 470.175 C 773.765 470.073 773.642 469.964 773.524 469.848 C 773.401 469.728 773.285 469.602 773.174 469.472 C 773.095 469.379 773.019 469.283 772.945 469.185 C 772.869 469.082 772.795 468.977 772.723 468.87 C 772.672 468.794 772.623 468.717 772.575 468.639 C 772.525 468.558 772.476 468.476 772.428 468.393 C 772.286 468.147 772.155 467.895 772.036 467.638 C 771.906 467.362 771.785 467.082 771.674 466.799 L 759.604 442.396 C 759.417 442.028 759.222 441.663 759.022 441.302 C 758.881 441.049 758.734 440.801 758.58 440.556 C 758.488 440.407 758.391 440.261 758.292 440.116 C 758.223 440.016 758.151 439.918 758.077 439.822 C 757.988 439.708 757.795 439.17 756.655 438.756 C 755.661 438.243 754.608 438.404 754.416 438.359 L 743.564 438.359 L 743.253 469.68 L 743.234 471.6 L 739.395 471.561 L 739.415 469.642 L 740.009 409.8 C 740.004 409.694 739.991 409.59 739.969 409.487 C 739.957 409.432 739.94 409.377 739.917 409.325 C 739.902 409.291 739.882 409.258 739.86 409.227 C 739.84 409.199 739.817 409.174 739.792 409.151 C 739.759 409.122 739.723 409.096 739.685 409.074 C 739.636 409.045 739.584 409.021 739.53 409.001 C 739.455 408.974 739.378 408.955 739.299 408.943 C 739.162 408.921 739.024 408.91 738.885 408.91 L 735.51 408.91 L 733.591 408.91 L 733.591 405.072 L 735.51 405.072 L 738.885 405.072 C 739.223 405.072 739.561 405.098 739.896 405.151 C 740.21 405.2 740.52 405.279 740.82 405.386 C 741.101 405.487 741.373 405.613 741.63 405.765 C 741.885 405.914 742.125 406.09 742.346 406.287 C 742.577 406.492 742.784 406.721 742.965 406.97 C 743.146 407.219 743.3 407.487 743.426 407.77 C 743.557 408.067 743.658 408.377 743.725 408.694 C 743.795 409.028 743.836 409.366 743.847 409.706 C 743.848 409.734 743.848 409.762 743.848 409.79 L 743.602 434.521 Z " fill="rgb(255,255,255)"/><path d=" M 908.319 442.528 L 915.327 442.609 L 915.327 442.609 C 915.595 442.584 915.861 442.551 916.126 442.511 C 916.331 442.48 916.533 442.441 916.734 442.394 C 916.799 442.379 916.863 442.363 916.926 442.346 C 916.979 442.332 917.033 442.317 917.086 442.301 C 917.155 442.28 917.223 442.257 917.291 442.232 C 917.34 442.214 917.389 442.195 917.436 442.174 C 917.491 442.15 917.544 442.124 917.595 442.095 C 917.614 442.084 917.634 442.071 917.652 442.058 C 917.714 442.013 917.774 441.964 917.832 441.913 C 917.945 441.814 918.056 441.712 918.162 441.606 C 918.254 441.516 918.344 441.425 918.432 441.332 C 918.55 441.208 918.666 441.082 918.781 440.955 C 918.96 440.754 919.137 440.551 919.309 440.345 C 919.522 440.091 919.731 439.836 919.937 439.578 L 933.572 424.065 L 937.979 424.065 L 923.13 441.711 C 923.093 441.771 923.051 441.83 923.007 441.885 C 922.758 442.197 922.506 442.505 922.251 442.811 C 922.05 443.05 921.846 443.285 921.638 443.517 C 921.5 443.672 921.359 443.823 921.217 443.973 C 921.098 444.099 920.977 444.222 920.853 444.344 C 920.826 444.371 920.798 444.398 920.77 444.425 C 920.777 444.43 920.785 444.435 920.792 444.441 C 920.988 444.585 921.172 444.746 921.34 444.922 C 921.536 445.124 921.72 445.337 921.892 445.56 C 922.01 445.712 922.125 445.869 922.234 446.028 C 922.365 446.218 922.492 446.411 922.615 446.607 C 922.803 446.908 922.984 447.213 923.157 447.524 C 923.383 447.93 923.601 448.34 923.811 448.755 C 923.815 448.761 923.818 448.767 923.821 448.773 L 932.618 465.17 C 932.643 465.221 932.667 465.273 932.687 465.326 C 932.777 465.558 932.875 465.787 932.981 466.013 C 933.055 466.172 933.136 466.328 933.224 466.48 C 933.251 466.528 933.279 466.574 933.307 466.62 C 933.332 466.659 933.357 466.699 933.383 466.738 C 933.416 466.787 933.451 466.837 933.487 466.885 C 933.514 466.921 933.543 466.957 933.572 466.992 C 933.606 467.032 933.642 467.071 933.68 467.108 C 933.7 467.127 933.72 467.145 933.742 467.162 C 933.795 467.204 933.853 467.24 933.913 467.268 C 934.103 467.358 934.299 467.432 934.5 467.491 C 934.679 467.544 934.86 467.589 935.044 467.626 C 935.27 467.671 935.498 467.71 935.727 467.742 L 939.634 467.742 L 939.634 471.58 L 935.597 471.58 C 935.514 471.58 935.43 471.575 935.347 471.564 C 934.993 471.518 934.64 471.459 934.289 471.389 C 933.996 471.33 933.706 471.259 933.42 471.175 C 933.027 471.06 932.644 470.914 932.274 470.739 C 931.951 470.586 931.645 470.397 931.364 470.175 C 931.234 470.073 931.11 469.964 930.992 469.848 C 930.87 469.728 930.753 469.602 930.643 469.472 C 930.563 469.379 930.487 469.283 930.414 469.185 C 930.337 469.082 930.263 468.977 930.192 468.87 C 930.141 468.794 930.091 468.717 930.043 468.639 C 929.993 468.558 929.944 468.476 929.896 468.393 C 929.755 468.147 929.624 467.895 929.504 467.638 C 929.375 467.362 929.254 467.082 929.142 466.799 L 920.385 450.485 C 920.198 450.117 920.004 449.751 919.803 449.391 C 919.662 449.138 919.515 448.889 919.362 448.644 C 919.269 448.496 919.172 448.349 919.073 448.205 C 919.004 448.105 918.932 448.007 918.858 447.91 C 918.769 447.796 918.577 447.258 917.436 446.845 C 916.442 446.332 915.389 446.493 915.198 446.448 L 908.281 446.367 L 907.969 469.68 L 907.95 471.6 L 904.112 471.561 L 904.131 469.642 L 904.726 409.8 C 904.72 409.694 904.707 409.59 904.685 409.487 C 904.673 409.432 904.656 409.377 904.633 409.325 C 904.618 409.291 904.599 409.258 904.576 409.227 C 904.556 409.199 904.533 409.174 904.508 409.151 C 904.475 409.122 904.439 409.096 904.401 409.074 C 904.352 409.045 904.3 409.021 904.247 409.001 C 904.171 408.974 904.094 408.955 904.016 408.943 C 903.879 408.921 903.74 408.91 903.601 408.91 L 900.226 408.91 L 898.307 408.91 L 898.307 405.072 L 900.226 405.072 L 903.601 405.072 C 903.94 405.072 904.278 405.098 904.612 405.151 C 904.926 405.2 905.236 405.279 905.536 405.386 C 905.818 405.487 906.089 405.613 906.346 405.765 C 906.601 405.914 906.841 406.09 907.062 406.287 C 907.293 406.492 907.5 406.721 907.681 406.97 C 907.863 407.219 908.017 407.487 908.142 407.77 C 908.274 408.067 908.374 408.377 908.441 408.694 C 908.511 409.028 908.552 409.366 908.563 409.706 C 908.565 409.734 908.565 409.762 908.565 409.79 L 908.319 442.528 Z " fill="rgb(255,255,255)"/><path d=" M 786.732 447.69 C 786.731 446.012 786.9 444.338 787.236 442.694 C 787.563 441.096 788.049 439.535 788.684 438.032 C 789.933 435.086 791.739 432.408 794.003 430.145 C 796.266 427.881 798.944 426.075 801.89 424.826 C 803.392 424.191 804.954 423.706 806.551 423.378 C 808.196 423.042 809.87 422.873 811.548 422.874 C 813.226 422.873 814.901 423.042 816.545 423.378 C 818.143 423.706 819.704 424.191 821.206 424.826 C 824.152 426.075 826.831 427.881 829.093 430.145 C 831.357 432.408 833.163 435.086 834.413 438.032 C 835.048 439.535 835.533 441.096 835.861 442.693 C 836.197 444.338 836.366 446.012 836.365 447.69 C 836.366 449.369 836.197 451.043 835.861 452.687 C 835.533 454.285 835.048 455.846 834.413 457.348 C 833.163 460.294 831.357 462.973 829.093 465.235 C 826.831 467.499 824.152 469.305 821.206 470.555 C 819.704 471.19 818.143 471.675 816.545 472.003 C 814.901 472.339 813.226 472.508 811.548 472.507 C 809.87 472.508 808.196 472.339 806.551 472.003 C 804.954 471.675 803.392 471.19 801.89 470.555 C 798.944 469.305 796.266 467.499 794.003 465.235 C 791.739 462.973 789.933 460.294 788.684 457.348 C 788.049 455.846 787.563 454.285 787.236 452.687 C 786.9 451.043 786.731 449.369 786.732 447.69 Z  M 790.57 447.69 C 790.569 446.27 790.712 444.854 790.997 443.462 C 791.273 442.115 791.682 440.797 792.218 439.53 C 793.275 437.038 794.803 434.772 796.718 432.86 C 798.63 430.945 800.896 429.417 803.388 428.36 C 804.655 427.824 805.973 427.415 807.321 427.139 C 808.712 426.854 810.128 426.711 811.548 426.712 C 812.968 426.711 814.385 426.854 815.776 427.139 C 817.124 427.415 818.441 427.824 819.709 428.36 C 822.201 429.417 824.466 430.945 826.379 432.86 C 828.294 434.772 829.822 437.038 830.878 439.53 C 831.414 440.797 831.824 442.115 832.1 443.463 C 832.384 444.854 832.527 446.27 832.527 447.69 C 832.527 449.11 832.384 450.527 832.1 451.918 C 831.824 453.266 831.414 454.583 830.878 455.851 C 829.822 458.343 828.294 460.608 826.379 462.521 C 824.466 464.436 822.201 465.964 819.709 467.02 C 818.441 467.556 817.124 467.966 815.776 468.242 C 814.385 468.526 812.968 468.669 811.548 468.669 C 810.128 468.669 808.712 468.526 807.321 468.242 C 805.973 467.966 804.655 467.556 803.388 467.02 C 800.896 465.964 798.63 464.436 796.718 462.521 C 794.803 460.608 793.275 458.343 792.218 455.851 C 791.682 454.583 791.273 453.266 790.997 451.918 C 790.712 450.527 790.569 449.11 790.57 447.69 Z " fill-rule="evenodd" fill="rgb(255,255,255)"/><path d=" M 843.639 447.69 C 843.638 446.012 843.807 444.338 844.143 442.694 C 844.47 441.096 844.955 439.535 845.591 438.032 C 846.84 435.086 848.647 432.408 850.911 430.145 C 853.173 427.881 855.851 426.075 858.798 424.826 C 860.299 424.191 861.861 423.706 863.459 423.378 C 865.103 423.042 866.777 422.873 868.456 422.874 C 870.134 422.873 871.808 423.042 873.452 423.378 C 875.05 423.706 876.611 424.191 878.113 424.826 C 881.06 426.075 883.738 427.881 886 430.145 C 888.265 432.408 890.071 435.086 891.319 438.032 C 891.955 439.535 892.441 441.096 892.767 442.693 C 893.104 444.338 893.273 446.012 893.272 447.69 C 893.273 449.369 893.104 451.043 892.767 452.687 C 892.441 454.285 891.955 455.846 891.319 457.348 C 890.071 460.294 888.265 462.973 886 465.235 C 883.738 467.499 881.06 469.305 878.113 470.555 C 876.611 471.19 875.05 471.675 873.452 472.003 C 871.808 472.339 870.134 472.508 868.456 472.507 C 866.777 472.508 865.103 472.339 863.459 472.003 C 861.861 471.675 860.299 471.19 858.798 470.555 C 855.851 469.305 853.173 467.499 850.911 465.235 C 848.647 462.973 846.84 460.294 845.591 457.348 C 844.955 455.846 844.47 454.285 844.143 452.687 C 843.807 451.043 843.638 449.369 843.639 447.69 Z  M 847.477 447.69 C 847.477 446.27 847.62 444.854 847.904 443.462 C 848.18 442.115 848.589 440.797 849.126 439.53 C 850.182 437.038 851.709 434.772 853.625 432.86 C 855.538 430.945 857.802 429.417 860.295 428.36 C 861.562 427.824 862.88 427.415 864.228 427.139 C 865.619 426.854 867.036 426.711 868.456 426.712 C 869.875 426.711 871.291 426.854 872.683 427.139 C 874.031 427.415 875.349 427.824 876.616 428.36 C 879.108 429.417 881.373 430.945 883.286 432.86 C 885.201 434.772 886.729 437.038 887.785 439.53 C 888.322 440.797 888.731 442.115 889.007 443.463 C 889.292 444.854 889.435 446.27 889.434 447.69 C 889.435 449.11 889.292 450.527 889.007 451.918 C 888.731 453.266 888.322 454.583 887.785 455.851 C 886.729 458.343 885.201 460.608 883.286 462.521 C 881.373 464.436 879.108 465.964 876.616 467.02 C 875.349 467.556 874.031 467.966 872.683 468.242 C 871.291 468.526 869.875 468.669 868.456 468.669 C 867.036 468.669 865.619 468.526 864.228 468.242 C 862.88 467.966 861.562 467.556 860.295 467.02 C 857.802 465.964 855.538 464.436 853.625 462.521 C 851.709 460.608 850.182 458.343 849.126 455.851 C 848.589 454.583 848.18 453.266 847.904 451.918 C 847.619 450.527 847.477 449.11 847.477 447.69 Z " fill-rule="evenodd" fill="rgb(255,255,255)"/><circle vector-effect="non-scaling-stroke" cx="801.8862768431682" cy="439.00152625178305" r="7.014834284631206" fill="rgb(255,255,255)"/><circle vector-effect="non-scaling-stroke" cx="878.9170986102513" cy="454.7051264753781" r="7.014834284631206" fill="rgb(255,255,255)"/><polygon points="839.674,496,827.902,475.611,851.446,475.611" fill="rgb(255,255,255)"/></g></svg>