<?xml version="1.0" encoding="UTF-8" standalone="no"?><!-- Generator: Gravit.io --><svg xmlns="http://www.w3.org/2000/svg" xmlns:xlink="http://www.w3.org/1999/xlink" style="isolation:isolate" viewBox="-3691.987 1753.478 332.987 121.856" width="332.987pt" height="121.856pt"><g><rect x="-3691.987" y="1753.478" width="332.987" height="121.856" transform="matrix(1,0,0,1,0,0)" fill="rgb(255,255,255)"/><g><path d=" M -3670.315 1770.095 L -3649.536 1770.095 L -3649.536 1770.095 Q -3638.896 1770.095 -3634.014 1775.068 L -3634.014 1775.068 L -3634.014 1775.068 Q -3629.132 1780.041 -3629.132 1790.363 L -3629.132 1790.363 L -3629.132 1793.51 L -3629.132 1793.51 Q -3629.132 1807.107 -3638.02 1811.261 L -3638.02 1811.261 L -3638.02 1811.261 Q -3627.756 1815.289 -3627.756 1830.144 L -3627.756 1830.144 L -3627.756 1837.32 L -3627.756 1837.32 Q -3627.756 1847.517 -3633.075 1852.867 L -3633.075 1852.867 L -3633.075 1852.867 Q -3638.395 1858.217 -3648.66 1858.217 L -3648.66 1858.217 L -3670.315 1858.217 L -3670.315 1770.095 Z  M -3650.412 1818.562 L -3650.412 1818.562 L -3656.546 1818.562 L -3656.546 1845.628 L -3648.66 1845.628 L -3648.66 1845.628 Q -3645.029 1845.628 -3643.277 1843.677 L -3643.277 1843.677 L -3643.277 1843.677 Q -3641.525 1841.726 -3641.525 1836.942 L -3641.525 1836.942 L -3641.525 1829.263 L -3641.525 1829.263 Q -3641.525 1823.22 -3643.59 1820.891 L -3643.59 1820.891 L -3643.59 1820.891 Q -3645.655 1818.562 -3650.412 1818.562 Z  M -3649.911 1782.684 L -3649.911 1782.684 L -3656.546 1782.684 L -3656.546 1805.974 L -3651.163 1805.974 L -3651.163 1805.974 Q -3647.032 1805.974 -3644.967 1803.833 L -3644.967 1803.833 L -3644.967 1803.833 Q -3642.902 1801.693 -3642.902 1796.658 L -3642.902 1796.658 L -3642.902 1791.748 L -3642.902 1791.748 Q -3642.902 1782.684 -3649.911 1782.684 Z " fill="rgb(35,31,32)"/><path d=" M -3594.289 1846.201 L -3607.908 1846.201 L -3607.908 1846.201 Q -3608.034 1845.575 -3608.034 1844.323 L -3608.034 1844.323 L -3608.034 1844.323 Q -3608.034 1840.443 -3605.217 1836.124 L -3605.217 1836.124 L -3605.217 1836.124 Q -3602.401 1831.806 -3598.395 1827.55 L -3598.395 1827.55 L -3598.395 1827.55 Q -3594.389 1823.294 -3590.322 1818.412 L -3590.322 1818.412 L -3590.322 1818.412 Q -3586.253 1813.531 -3583.437 1806.646 L -3583.437 1806.646 L -3583.437 1806.646 Q -3580.621 1799.761 -3580.621 1792.126 L -3580.621 1792.126 L -3580.621 1792.126 Q -3580.621 1781.486 -3585.878 1775.79 L -3585.878 1775.79 L -3585.878 1775.79 Q -3591.135 1770.095 -3601.149 1770.095 L -3601.149 1770.095 L -3601.149 1770.095 Q -3611.163 1770.095 -3616.42 1775.79 L -3616.42 1775.79 L -3616.42 1775.79 Q -3621.678 1781.486 -3621.678 1792.126 L -3621.678 1792.126 L -3621.678 1800.637 L -3608.659 1800.637 L -3608.659 1791.249 L -3608.659 1791.249 Q -3608.659 1782.613 -3601.524 1782.613 L -3601.524 1782.613 L -3601.524 1782.613 Q -3598.02 1782.613 -3596.205 1784.803 L -3596.205 1784.803 L -3596.205 1784.803 Q -3594.389 1786.993 -3594.389 1792.626 L -3594.389 1792.626 L -3594.389 1792.626 Q -3594.389 1799.636 -3597.206 1805.519 L -3597.206 1805.519 L -3597.206 1805.519 Q -3600.022 1811.402 -3604.028 1815.721 L -3604.028 1815.721 L -3604.028 1815.721 Q -3608.034 1820.039 -3612.039 1824.483 L -3612.039 1824.483 L -3612.039 1824.483 Q -3616.045 1828.927 -3618.861 1834.872 L -3618.861 1834.872 L -3618.861 1834.872 Q -3621.678 1840.818 -3621.678 1847.953 L -3621.678 1847.953 L -3621.678 1858.718 L -3594.203 1858.718 C -3595.464 1856.93 -3596.205 1854.749 -3596.205 1852.397 C -3596.205 1850.099 -3595.498 1847.965 -3594.289 1846.201 Z " fill="rgb(35,31,32)"/><circle vector-effect="non-scaling-stroke" cx="-3585.219424585382" cy="1852.396934507748" r="6.258682518461228" fill="rgb(255,0,0)"/></g><g><path d=" M -3492.118 1824.853 L -3492.118 1824.853 Q -3494.971 1820.486 -3500.355 1820.536 L -3500.355 1820.536 L -3500.355 1820.536 Q -3505.144 1820.536 -3507.935 1824.22 L -3507.935 1824.22 L -3507.935 1824.22 Q -3510.726 1827.905 -3510.726 1834.206 L -3510.726 1834.206 L -3510.726 1834.603 L -3510.726 1834.603 L -3510.726 1834.603 Q -3510.726 1840.93 -3507.897 1844.651 L -3507.897 1844.651 L -3507.897 1844.651 Q -3505.069 1848.372 -3500.405 1848.372 L -3500.405 1848.372 L -3500.405 1848.372 Q -3494.947 1848.372 -3492.094 1844.403 L -3492.094 1844.403 L -3492.094 1847.777 L -3492.094 1847.777 Q -3492.168 1851.672 -3494.252 1853.868 L -3494.252 1853.868 L -3494.252 1853.868 Q -3496.336 1856.063 -3500.058 1856.063 L -3500.058 1856.063 L -3500.058 1856.063 Q -3504.399 1856.063 -3507.55 1852.193 L -3507.55 1852.193 L -3509.212 1853.979 L -3509.212 1853.979 Q -3507.749 1856.063 -3505.206 1857.316 L -3505.206 1857.316 L -3505.206 1857.316 Q -3502.663 1858.569 -3499.859 1858.569 L -3499.859 1858.569 L -3499.859 1858.569 Q -3494.897 1858.569 -3491.994 1855.542 L -3491.994 1855.542 L -3491.994 1855.542 Q -3489.092 1852.516 -3489.092 1847.33 L -3489.092 1847.33 L -3489.053 1781.326 L -3489.053 1781.326 L -3492.03 1781.326 L -3492.118 1824.853 Z  M -3529.134 1845.743 L -3529.134 1845.743 L -3529.134 1845.743 Q -3526.157 1845.743 -3523.813 1844.304 L -3523.813 1844.304 L -3523.813 1844.304 Q -3521.468 1842.865 -3520.401 1840.458 L -3520.401 1840.458 L -3520.401 1834.554 L -3525.711 1834.554 L -3525.711 1834.554 Q -3530.152 1834.603 -3532.657 1836.179 L -3532.657 1836.179 L -3532.657 1836.179 Q -3535.163 1837.754 -3535.163 1840.508 L -3535.163 1840.508 L -3535.163 1840.508 Q -3535.163 1842.765 -3533.488 1844.254 L -3533.488 1844.254 L -3533.488 1844.254 Q -3531.814 1845.743 -3529.134 1845.743 L -3529.134 1845.743 Z  M -3507.724 1834.727 L -3507.724 1834.727 L -3507.724 1834.727 Q -3507.724 1839.863 -3505.665 1842.828 L -3505.665 1842.828 L -3505.665 1842.828 Q -3503.605 1845.792 -3499.859 1845.792 L -3499.859 1845.792 L -3499.859 1845.792 Q -3494.376 1845.792 -3492.094 1840.88 L -3492.094 1840.88 L -3492.094 1828.401 L -3492.094 1828.401 Q -3493.136 1825.821 -3495.096 1824.468 L -3495.096 1824.468 L -3495.096 1824.468 Q -3497.056 1823.116 -3499.809 1823.116 L -3499.809 1823.116 L -3499.809 1823.116 Q -3503.556 1823.116 -3505.64 1826.056 L -3505.64 1826.056 L -3505.64 1826.056 Q -3507.724 1828.996 -3507.724 1834.727 L -3507.724 1834.727 Z  M -3471.502 1823.067 L -3471.502 1823.067 L -3471.502 1823.067 Q -3474.851 1823.067 -3477.146 1825.523 L -3477.146 1825.523 L -3477.146 1825.523 Q -3479.441 1827.979 -3479.937 1832.122 L -3479.937 1832.122 L -3463.836 1832.122 L -3463.836 1831.8 L -3463.836 1831.8 Q -3463.96 1827.929 -3466.044 1825.498 L -3466.044 1825.498 L -3466.044 1825.498 Q -3468.128 1823.067 -3471.502 1823.067 L -3471.502 1823.067 Z  M -3455.103 1821.032 L -3452.274 1821.032 L -3452.175 1825.622 L -3452.175 1825.622 Q -3450.662 1823.141 -3448.404 1821.839 L -3448.404 1821.839 L -3448.404 1821.839 Q -3446.146 1820.536 -3443.417 1820.536 L -3443.417 1820.536 L -3443.417 1820.536 Q -3439.1 1820.536 -3436.992 1822.967 L -3436.992 1822.967 L -3436.992 1822.967 Q -3434.883 1825.399 -3434.858 1830.261 L -3434.858 1830.261 L -3434.858 1847.876 L -3437.81 1847.876 L -3437.81 1830.237 L -3437.81 1830.237 Q -3437.835 1826.639 -3439.336 1824.878 L -3439.336 1824.878 L -3439.336 1824.878 Q -3440.837 1823.116 -3444.137 1823.116 L -3444.137 1823.116 L -3444.137 1823.116 Q -3446.891 1823.116 -3449.012 1824.841 L -3449.012 1824.841 L -3449.012 1824.841 Q -3451.133 1826.565 -3452.15 1829.492 L -3452.15 1829.492 L -3452.15 1847.876 L -3455.103 1847.876 L -3455.103 1821.032 L -3455.103 1821.032 Z  M -3417.268 1845.867 L -3417.268 1845.867 L -3417.268 1845.867 Q -3414.167 1845.867 -3412.07 1844.118 L -3412.07 1844.118 L -3412.07 1844.118 Q -3409.974 1842.369 -3409.8 1839.59 L -3409.8 1839.59 L -3406.947 1839.59 L -3406.947 1839.59 Q -3407.071 1842.046 -3408.485 1844.068 L -3408.485 1844.068 L -3408.485 1844.068 Q -3409.9 1846.09 -3412.244 1847.231 L -3412.244 1847.231 L -3412.244 1847.231 Q -3414.589 1848.372 -3417.268 1848.372 L -3417.268 1848.372 L -3417.268 1848.372 Q -3422.552 1848.372 -3425.641 1844.701 L -3425.641 1844.701 L -3425.641 1844.701 Q -3428.73 1841.029 -3428.73 1834.826 L -3428.73 1834.826 L -3428.73 1833.933 L -3428.73 1833.933 Q -3428.73 1829.964 -3427.341 1826.912 L -3427.341 1826.912 L -3427.341 1826.912 Q -3425.951 1823.861 -3423.359 1822.198 L -3423.359 1822.198 L -3423.359 1822.198 Q -3420.766 1820.536 -3417.293 1820.536 L -3417.293 1820.536 L -3417.293 1820.536 Q -3412.877 1820.536 -3410.011 1823.166 L -3410.011 1823.166 L -3410.011 1823.166 Q -3407.146 1825.796 -3406.947 1830.088 L -3406.947 1830.088 L -3409.8 1830.088 L -3409.8 1830.088 Q -3409.999 1826.937 -3412.07 1825.002 L -3412.07 1825.002 L -3412.07 1825.002 Q -3414.142 1823.067 -3417.293 1823.067 L -3417.293 1823.067 L -3417.293 1823.067 Q -3421.312 1823.067 -3423.532 1825.969 L -3423.532 1825.969 L -3423.532 1825.969 Q -3425.753 1828.872 -3425.753 1834.107 L -3425.753 1834.107 L -3425.753 1834.975 L -3425.753 1834.975 Q -3425.753 1840.111 -3423.532 1842.989 L -3423.532 1842.989 L -3423.532 1842.989 Q -3421.312 1845.867 -3417.268 1845.867 L -3417.268 1845.867 Z  M -3400.844 1821.032 L -3392.508 1843.609 L -3384.668 1821.032 L -3381.468 1821.032 L -3392.93 1852.441 L -3393.525 1853.831 L -3393.525 1853.831 Q -3395.733 1858.718 -3400.348 1858.718 L -3400.348 1858.718 L -3400.348 1858.718 Q -3401.415 1858.718 -3402.63 1858.371 L -3402.63 1858.371 L -3402.655 1855.915 L -3401.117 1856.063 L -3401.117 1856.063 Q -3398.934 1856.063 -3397.582 1854.984 L -3397.582 1854.984 L -3397.582 1854.984 Q -3396.229 1853.905 -3395.287 1851.275 L -3395.287 1851.275 L -3393.972 1847.653 L -3404.094 1821.032 L -3400.844 1821.032 L -3400.844 1821.032 Z  M -3516.63 1847.876 L -3519.806 1847.876 L -3519.806 1847.876 Q -3520.253 1846.611 -3520.377 1844.13 L -3520.377 1844.13 L -3520.377 1844.13 Q -3521.94 1846.164 -3524.359 1847.268 L -3524.359 1847.268 L -3524.359 1847.268 Q -3526.778 1848.372 -3529.482 1848.372 L -3529.482 1848.372 L -3529.482 1848.372 Q -3533.352 1848.372 -3535.746 1846.214 L -3535.746 1846.214 L -3535.746 1846.214 Q -3538.14 1844.056 -3538.14 1840.756 L -3538.14 1840.756 L -3538.14 1840.756 Q -3538.14 1836.836 -3534.878 1834.554 L -3534.878 1834.554 L -3534.878 1834.554 Q -3531.615 1832.271 -3525.785 1832.271 L -3525.785 1832.271 L -3520.401 1832.271 L -3520.401 1829.219 L -3520.401 1829.219 Q -3520.401 1826.342 -3522.175 1824.692 L -3522.175 1824.692 L -3522.175 1824.692 Q -3523.949 1823.042 -3527.348 1823.042 L -3527.348 1823.042 L -3527.348 1823.042 Q -3530.449 1823.042 -3532.484 1824.63 L -3532.484 1824.63 L -3532.484 1824.63 Q -3534.518 1826.217 -3534.518 1828.45 L -3534.518 1828.45 L -3537.495 1828.426 L -3537.495 1828.426 Q -3537.495 1825.225 -3534.518 1822.881 L -3534.518 1822.881 L -3534.518 1822.881 Q -3531.541 1820.536 -3527.199 1820.536 L -3527.199 1820.536 L -3527.199 1820.536 Q -3522.709 1820.536 -3520.116 1822.781 L -3520.116 1822.781 L -3520.116 1822.781 Q -3517.524 1825.027 -3517.449 1829.046 L -3517.449 1829.046 L -3517.449 1841.748 L -3517.449 1841.748 Q -3517.449 1845.643 -3516.63 1847.579 L -3516.63 1847.579 L -3516.63 1847.876 L -3516.63 1847.876 Z  M -3470.956 1848.372 L -3470.956 1848.372 L -3470.956 1848.372 Q -3474.38 1848.372 -3477.146 1846.685 L -3477.146 1846.685 L -3477.146 1846.685 Q -3479.912 1844.998 -3481.45 1841.984 L -3481.45 1841.984 L -3481.45 1841.984 Q -3482.989 1838.97 -3482.989 1835.223 L -3482.989 1835.223 L -3482.989 1834.157 L -3482.989 1834.157 Q -3482.989 1830.286 -3481.488 1827.185 L -3481.488 1827.185 L -3481.488 1827.185 Q -3479.987 1824.084 -3477.307 1822.31 L -3477.307 1822.31 L -3477.307 1822.31 Q -3474.628 1820.536 -3471.502 1820.536 L -3471.502 1820.536 L -3471.502 1820.536 Q -3466.614 1820.536 -3463.749 1823.873 L -3463.749 1823.873 L -3463.749 1823.873 Q -3460.883 1827.21 -3460.883 1832.991 L -3460.883 1832.991 L -3460.883 1834.653 L -3480.036 1834.653 L -3480.036 1835.223 L -3480.036 1835.223 Q -3480.036 1839.788 -3477.419 1842.828 L -3477.419 1842.828 L -3477.419 1842.828 Q -3474.801 1845.867 -3470.832 1845.867 L -3470.832 1845.867 L -3470.832 1845.867 Q -3468.45 1845.867 -3466.627 1844.998 L -3466.627 1844.998 L -3466.627 1844.998 Q -3464.803 1844.13 -3463.315 1842.22 L -3463.315 1842.22 L -3461.454 1843.634 L -3461.454 1843.634 Q -3464.729 1848.372 -3470.956 1848.372 L -3470.956 1848.372 Z  M -3434.124 1770.063 L -3434.124 1808.17 L -3437.102 1808.17 L -3437.102 1770.063 L -3434.124 1770.063 L -3434.124 1770.063 Z  M -3528.624 1781.326 L -3528.624 1808.17 L -3531.601 1808.17 L -3531.601 1781.326 L -3528.624 1781.326 L -3528.624 1781.326 Z  M -3532.122 1773.561 L -3532.122 1773.561 L -3532.122 1773.561 Q -3532.122 1772.718 -3531.576 1772.134 L -3531.576 1772.134 L -3531.576 1772.134 Q -3531.031 1771.551 -3530.088 1771.551 L -3530.088 1771.551 L -3530.088 1771.551 Q -3529.145 1771.551 -3528.587 1772.134 L -3528.587 1772.134 L -3528.587 1772.134 Q -3528.029 1772.718 -3528.029 1773.561 L -3528.029 1773.561 L -3528.029 1773.561 Q -3528.029 1774.405 -3528.587 1774.975 L -3528.587 1774.975 L -3528.587 1774.975 Q -3529.145 1775.546 -3530.088 1775.546 L -3530.088 1775.546 L -3530.088 1775.546 Q -3531.031 1775.546 -3531.576 1774.975 L -3531.576 1774.975 L -3531.576 1774.975 Q -3532.122 1774.405 -3532.122 1773.561 L -3532.122 1773.561 Z  M -3457.048 1806.037 L -3457.048 1806.037 L -3457.048 1806.037 Q -3454.071 1806.037 -3451.727 1804.598 L -3451.727 1804.598 L -3451.727 1804.598 Q -3449.382 1803.159 -3448.315 1800.752 L -3448.315 1800.752 L -3448.315 1794.848 L -3453.625 1794.848 L -3453.625 1794.848 Q -3458.066 1794.897 -3460.571 1796.473 L -3460.571 1796.473 L -3460.571 1796.473 Q -3463.077 1798.048 -3463.077 1800.802 L -3463.077 1800.802 L -3463.077 1800.802 Q -3463.077 1803.06 -3461.403 1804.548 L -3461.403 1804.548 L -3461.403 1804.548 Q -3459.728 1806.037 -3457.048 1806.037 L -3457.048 1806.037 Z  M -3518.75 1795.021 L -3518.75 1795.021 L -3518.75 1795.021 Q -3518.75 1800.157 -3516.691 1803.122 L -3516.691 1803.122 L -3516.691 1803.122 Q -3514.631 1806.086 -3510.885 1806.086 L -3510.885 1806.086 L -3510.885 1806.086 Q -3505.402 1806.086 -3503.12 1801.174 L -3503.12 1801.174 L -3503.12 1788.695 L -3503.12 1788.695 Q -3504.162 1786.115 -3506.122 1784.763 L -3506.122 1784.763 L -3506.122 1784.763 Q -3508.082 1783.41 -3510.836 1783.41 L -3510.836 1783.41 L -3510.836 1783.41 Q -3514.582 1783.41 -3516.666 1786.35 L -3516.666 1786.35 L -3516.666 1786.35 Q -3518.75 1789.29 -3518.75 1795.021 L -3518.75 1795.021 Z  M -3558.371 1795.021 L -3558.371 1795.021 L -3558.371 1795.021 Q -3558.371 1800.157 -3556.312 1803.122 L -3556.312 1803.122 L -3556.312 1803.122 Q -3554.252 1806.086 -3550.506 1806.086 L -3550.506 1806.086 L -3550.506 1806.086 Q -3545.023 1806.086 -3542.716 1801.249 L -3542.716 1801.249 L -3542.716 1788.645 L -3542.716 1788.645 Q -3545.023 1783.41 -3550.457 1783.41 L -3550.457 1783.41 L -3550.457 1783.41 Q -3554.203 1783.41 -3556.287 1786.35 L -3556.287 1786.35 L -3556.287 1786.35 Q -3558.371 1789.29 -3558.371 1795.021 L -3558.371 1795.021 Z  M -3492.551 1773.561 L -3492.551 1773.561 L -3492.551 1773.561 Q -3492.551 1772.718 -3492.005 1772.134 L -3492.005 1772.134 L -3492.005 1772.134 Q -3491.459 1771.551 -3490.517 1771.551 L -3490.517 1771.551 L -3490.517 1771.551 Q -3489.574 1771.551 -3489.016 1772.134 L -3489.016 1772.134 L -3489.016 1772.134 Q -3488.457 1772.718 -3488.457 1773.561 L -3488.457 1773.561 L -3488.457 1773.561 Q -3488.457 1774.405 -3489.016 1774.975 L -3489.016 1774.975 L -3489.016 1774.975 Q -3489.574 1775.546 -3490.517 1775.546 L -3490.517 1775.546 L -3490.517 1775.546 Q -3491.459 1775.546 -3492.005 1774.975 L -3492.005 1774.975 L -3492.005 1774.975 Q -3492.551 1774.405 -3492.551 1773.561 L -3492.551 1773.561 Z  M -3479.352 1774.454 L -3476.375 1774.454 L -3476.375 1781.326 L -3470.818 1781.326 L -3470.818 1783.758 L -3476.375 1783.758 L -3476.375 1801.645 L -3476.375 1801.645 Q -3476.375 1803.878 -3475.569 1804.97 L -3475.569 1804.97 L -3475.569 1804.97 Q -3474.762 1806.062 -3472.877 1806.062 L -3472.877 1806.062 L -3472.877 1806.062 Q -3472.133 1806.062 -3470.47 1805.813 L -3470.47 1805.813 L -3470.346 1808.245 L -3470.346 1808.245 Q -3471.512 1808.667 -3473.522 1808.667 L -3473.522 1808.667 L -3473.522 1808.667 Q -3476.574 1808.667 -3477.963 1806.893 L -3477.963 1806.893 L -3477.963 1806.893 Q -3479.352 1805.119 -3479.352 1801.67 L -3479.352 1801.67 L -3479.352 1783.758 L -3484.289 1783.758 L -3484.289 1781.326 L -3479.352 1781.326 L -3479.352 1774.454 L -3479.352 1774.454 Z  M -3444.544 1808.17 L -3447.72 1808.17 L -3447.72 1808.17 Q -3448.167 1806.905 -3448.291 1804.424 L -3448.291 1804.424 L -3448.291 1804.424 Q -3449.854 1806.459 -3452.273 1807.563 L -3452.273 1807.563 L -3452.273 1807.563 Q -3454.692 1808.667 -3457.396 1808.667 L -3457.396 1808.667 L -3457.396 1808.667 Q -3461.266 1808.667 -3463.66 1806.508 L -3463.66 1806.508 L -3463.66 1806.508 Q -3466.054 1804.35 -3466.054 1801.05 L -3466.054 1801.05 L -3466.054 1801.05 Q -3466.054 1797.13 -3462.792 1794.848 L -3462.792 1794.848 L -3462.792 1794.848 Q -3459.529 1792.565 -3453.699 1792.565 L -3453.699 1792.565 L -3448.315 1792.565 L -3448.315 1789.514 L -3448.315 1789.514 Q -3448.315 1786.636 -3450.089 1784.986 L -3450.089 1784.986 L -3450.089 1784.986 Q -3451.863 1783.336 -3455.262 1783.336 L -3455.262 1783.336 L -3455.262 1783.336 Q -3458.363 1783.336 -3460.398 1784.924 L -3460.398 1784.924 L -3460.398 1784.924 Q -3462.432 1786.512 -3462.432 1788.744 L -3462.432 1788.744 L -3465.409 1788.72 L -3465.409 1788.72 Q -3465.409 1785.519 -3462.432 1783.175 L -3462.432 1783.175 L -3462.432 1783.175 Q -3459.455 1780.83 -3455.113 1780.83 L -3455.113 1780.83 L -3455.113 1780.83 Q -3450.623 1780.83 -3448.03 1783.076 L -3448.03 1783.076 L -3448.03 1783.076 Q -3445.438 1785.321 -3445.363 1789.34 L -3445.363 1789.34 L -3445.363 1802.042 L -3445.363 1802.042 Q -3445.363 1805.938 -3444.544 1807.873 L -3444.544 1807.873 L -3444.544 1808.17 L -3444.544 1808.17 Z  M -3521.752 1794.897 L -3521.752 1794.5 L -3521.752 1794.5 Q -3521.752 1788.199 -3518.961 1784.514 L -3518.961 1784.514 L -3518.961 1784.514 Q -3516.17 1780.83 -3511.381 1780.83 L -3511.381 1780.83 L -3511.381 1780.83 Q -3505.899 1780.83 -3503.045 1785.197 L -3503.045 1785.197 L -3502.897 1781.326 L -3500.118 1781.326 L -3500.118 1807.625 L -3500.118 1807.625 Q -3500.118 1812.81 -3503.021 1815.837 L -3503.021 1815.837 L -3503.021 1815.837 Q -3505.923 1818.863 -3510.885 1818.863 L -3510.885 1818.863 L -3510.885 1818.863 Q -3513.689 1818.863 -3516.232 1817.61 L -3516.232 1817.61 L -3516.232 1817.61 Q -3518.775 1816.358 -3520.238 1814.274 L -3520.238 1814.274 L -3518.576 1812.487 L -3518.576 1812.487 Q -3515.425 1816.358 -3511.084 1816.358 L -3511.084 1816.358 L -3511.084 1816.358 Q -3507.362 1816.358 -3505.278 1814.162 L -3505.278 1814.162 L -3505.278 1814.162 Q -3503.194 1811.966 -3503.12 1808.071 L -3503.12 1808.071 L -3503.12 1804.697 L -3503.12 1804.697 Q -3505.973 1808.667 -3511.431 1808.667 L -3511.431 1808.667 L -3511.431 1808.667 Q -3516.095 1808.667 -3518.924 1804.945 L -3518.924 1804.945 L -3518.924 1804.945 Q -3521.752 1801.224 -3521.752 1794.897 L -3521.752 1794.897 L -3521.752 1794.897 Z  M -3561.373 1794.848 L -3561.373 1794.5 L -3561.373 1794.5 Q -3561.373 1788.248 -3558.582 1784.539 L -3558.582 1784.539 L -3558.582 1784.539 Q -3555.791 1780.83 -3551.002 1780.83 L -3551.002 1780.83 L -3551.002 1780.83 Q -3545.569 1780.83 -3542.716 1785.122 L -3542.716 1785.122 L -3542.716 1770.063 L -3539.764 1770.063 L -3539.764 1808.17 L -3542.542 1808.17 L -3542.666 1804.598 L -3542.666 1804.598 Q -3545.519 1808.667 -3551.052 1808.667 L -3551.052 1808.667 L -3551.052 1808.667 Q -3555.691 1808.667 -3558.532 1804.933 L -3558.532 1804.933 L -3558.532 1804.933 Q -3561.373 1801.199 -3561.373 1794.848 L -3561.373 1794.848 L -3561.373 1794.848 Z " fill-rule="evenodd" fill="rgb(35,31,32)"/><circle vector-effect="non-scaling-stroke" cx="-3490.516572706381" cy="1773.5610274191065" r="2.0591952229792696" fill="rgb(255,0,0)"/></g></g></svg>