<?xml version="1.0" encoding="UTF-8" standalone="no"?><!-- Generator: Gravit.io --><svg xmlns="http://www.w3.org/2000/svg" xmlns:xlink="http://www.w3.org/1999/xlink" style="isolation:isolate" viewBox="-3691.987 1883.154 332.987 121.856" width="332.987pt" height="121.856pt"><g><rect x="-3691.987" y="1883.154" width="332.987" height="121.856" transform="matrix(1,0,0,1,0,0)" fill="rgb(35,31,32)"/><g><path d=" M -3669.917 1899.787 L -3649.138 1899.787 L -3649.138 1899.787 Q -3638.498 1899.787 -3633.617 1904.76 L -3633.617 1904.76 L -3633.617 1904.76 Q -3628.735 1909.733 -3628.735 1920.055 L -3628.735 1920.055 L -3628.735 1923.203 L -3628.735 1923.203 Q -3628.735 1936.799 -3637.622 1940.953 L -3637.622 1940.953 L -3637.622 1940.953 Q -3627.358 1944.981 -3627.358 1959.836 L -3627.358 1959.836 L -3627.358 1967.012 L -3627.358 1967.012 Q -3627.358 1977.209 -3632.678 1982.559 L -3632.678 1982.559 L -3632.678 1982.559 Q -3637.998 1987.91 -3648.262 1987.91 L -3648.262 1987.91 L -3669.917 1987.91 L -3669.917 1899.787 Z  M -3650.014 1948.255 L -3650.014 1948.255 L -3656.148 1948.255 L -3656.148 1975.321 L -3648.262 1975.321 L -3648.262 1975.321 Q -3644.632 1975.321 -3642.879 1973.369 L -3642.879 1973.369 L -3642.879 1973.369 Q -3641.127 1971.418 -3641.127 1966.634 L -3641.127 1966.634 L -3641.127 1958.955 L -3641.127 1958.955 Q -3641.127 1952.912 -3643.192 1950.584 L -3643.192 1950.584 L -3643.192 1950.584 Q -3645.258 1948.255 -3650.014 1948.255 Z  M -3649.514 1912.376 L -3649.514 1912.376 L -3656.148 1912.376 L -3656.148 1935.666 L -3650.765 1935.666 L -3650.765 1935.666 Q -3646.635 1935.666 -3644.569 1933.526 L -3644.569 1933.526 L -3644.569 1933.526 Q -3642.504 1931.386 -3642.504 1926.35 L -3642.504 1926.35 L -3642.504 1921.44 L -3642.504 1921.44 Q -3642.504 1912.376 -3649.514 1912.376 Z " fill="rgb(255,255,255)"/><path d=" M -3593.892 1975.893 L -3607.511 1975.893 L -3607.511 1975.893 Q -3607.636 1975.267 -3607.636 1974.015 L -3607.636 1974.015 L -3607.636 1974.015 Q -3607.636 1970.135 -3604.82 1965.816 L -3604.82 1965.816 L -3604.82 1965.816 Q -3602.003 1961.498 -3597.997 1957.242 L -3597.997 1957.242 L -3597.997 1957.242 Q -3593.992 1952.986 -3589.924 1948.104 L -3589.924 1948.104 L -3589.924 1948.104 Q -3585.856 1943.223 -3583.039 1936.338 L -3583.039 1936.338 L -3583.039 1936.338 Q -3580.223 1929.454 -3580.223 1921.818 L -3580.223 1921.818 L -3580.223 1921.818 Q -3580.223 1911.178 -3585.48 1905.483 L -3585.48 1905.483 L -3585.48 1905.483 Q -3590.738 1899.787 -3600.751 1899.787 L -3600.751 1899.787 L -3600.751 1899.787 Q -3610.765 1899.787 -3616.022 1905.483 L -3616.022 1905.483 L -3616.022 1905.483 Q -3621.28 1911.178 -3621.28 1921.818 L -3621.28 1921.818 L -3621.28 1930.329 L -3608.262 1930.329 L -3608.262 1920.941 L -3608.262 1920.941 Q -3608.262 1912.305 -3601.127 1912.305 L -3601.127 1912.305 L -3601.127 1912.305 Q -3597.622 1912.305 -3595.807 1914.495 L -3595.807 1914.495 L -3595.807 1914.495 Q -3593.992 1916.686 -3593.992 1922.319 L -3593.992 1922.319 L -3593.992 1922.319 Q -3593.992 1929.328 -3596.808 1935.211 L -3596.808 1935.211 L -3596.808 1935.211 Q -3599.625 1941.095 -3603.63 1945.413 L -3603.63 1945.413 L -3603.63 1945.413 Q -3607.636 1949.732 -3611.641 1954.175 L -3611.641 1954.175 L -3611.641 1954.175 Q -3615.647 1958.619 -3618.463 1964.565 L -3618.463 1964.565 L -3618.463 1964.565 Q -3621.28 1970.51 -3621.28 1977.645 L -3621.28 1977.645 L -3621.28 1988.41 L -3593.805 1988.41 C -3595.066 1986.622 -3595.807 1984.441 -3595.807 1982.089 C -3595.807 1979.791 -3595.1 1977.657 -3593.892 1975.893 Z " fill="rgb(255,255,255)"/><circle vector-effect="non-scaling-stroke" cx="-3584.821741889805" cy="1982.0891263328879" r="6.258682518461228" fill="rgb(255,0,0)"/></g><g><path d=" M -3491.72 1954.545 L -3491.72 1954.545 Q -3494.573 1950.179 -3499.958 1950.228 L -3499.958 1950.228 L -3499.958 1950.228 Q -3504.746 1950.228 -3507.537 1953.913 L -3507.537 1953.913 L -3507.537 1953.913 Q -3510.328 1957.597 -3510.328 1963.898 L -3510.328 1963.898 L -3510.328 1964.295 L -3510.328 1964.295 L -3510.328 1964.295 Q -3510.328 1970.622 -3507.5 1974.343 L -3507.5 1974.343 L -3507.5 1974.343 Q -3504.671 1978.065 -3500.007 1978.065 L -3500.007 1978.065 L -3500.007 1978.065 Q -3494.549 1978.065 -3491.696 1974.095 L -3491.696 1974.095 L -3491.696 1977.469 L -3491.696 1977.469 Q -3491.77 1981.364 -3493.854 1983.56 L -3493.854 1983.56 L -3493.854 1983.56 Q -3495.938 1985.756 -3499.66 1985.756 L -3499.66 1985.756 L -3499.66 1985.756 Q -3504.002 1985.756 -3507.152 1981.885 L -3507.152 1981.885 L -3508.815 1983.672 L -3508.815 1983.672 Q -3507.351 1985.756 -3504.808 1987.008 L -3504.808 1987.008 L -3504.808 1987.008 Q -3502.265 1988.261 -3499.461 1988.261 L -3499.461 1988.261 L -3499.461 1988.261 Q -3494.5 1988.261 -3491.597 1985.235 L -3491.597 1985.235 L -3491.597 1985.235 Q -3488.694 1982.208 -3488.694 1977.023 L -3488.694 1977.023 L -3488.655 1911.019 L -3488.655 1911.019 L -3491.632 1911.019 L -3491.72 1954.545 Z  M -3528.737 1975.435 L -3528.737 1975.435 L -3528.737 1975.435 Q -3525.76 1975.435 -3523.415 1973.996 L -3523.415 1973.996 L -3523.415 1973.996 Q -3521.071 1972.557 -3520.004 1970.15 L -3520.004 1970.15 L -3520.004 1964.246 L -3525.313 1964.246 L -3525.313 1964.246 Q -3529.754 1964.295 -3532.26 1965.871 L -3532.26 1965.871 L -3532.26 1965.871 Q -3534.765 1967.446 -3534.765 1970.2 L -3534.765 1970.2 L -3534.765 1970.2 Q -3534.765 1972.458 -3533.091 1973.946 L -3533.091 1973.946 L -3533.091 1973.946 Q -3531.416 1975.435 -3528.737 1975.435 L -3528.737 1975.435 Z  M -3507.326 1964.419 L -3507.326 1964.419 L -3507.326 1964.419 Q -3507.326 1969.555 -3505.267 1972.52 L -3505.267 1972.52 L -3505.267 1972.52 Q -3503.208 1975.484 -3499.461 1975.484 L -3499.461 1975.484 L -3499.461 1975.484 Q -3493.979 1975.484 -3491.696 1970.572 L -3491.696 1970.572 L -3491.696 1958.093 L -3491.696 1958.093 Q -3492.738 1955.513 -3494.698 1954.161 L -3494.698 1954.161 L -3494.698 1954.161 Q -3496.658 1952.808 -3499.412 1952.808 L -3499.412 1952.808 L -3499.412 1952.808 Q -3503.158 1952.808 -3505.242 1955.748 L -3505.242 1955.748 L -3505.242 1955.748 Q -3507.326 1958.688 -3507.326 1964.419 L -3507.326 1964.419 Z  M -3471.104 1952.759 L -3471.104 1952.759 L -3471.104 1952.759 Q -3474.453 1952.759 -3476.748 1955.215 L -3476.748 1955.215 L -3476.748 1955.215 Q -3479.043 1957.671 -3479.539 1961.814 L -3479.539 1961.814 L -3463.438 1961.814 L -3463.438 1961.492 L -3463.438 1961.492 Q -3463.562 1957.622 -3465.646 1955.19 L -3465.646 1955.19 L -3465.646 1955.19 Q -3467.73 1952.759 -3471.104 1952.759 L -3471.104 1952.759 Z  M -3454.705 1950.724 L -3451.877 1950.724 L -3451.777 1955.314 L -3451.777 1955.314 Q -3450.264 1952.833 -3448.006 1951.531 L -3448.006 1951.531 L -3448.006 1951.531 Q -3445.749 1950.228 -3443.02 1950.228 L -3443.02 1950.228 L -3443.02 1950.228 Q -3438.703 1950.228 -3436.594 1952.66 L -3436.594 1952.66 L -3436.594 1952.66 Q -3434.485 1955.091 -3434.46 1959.954 L -3434.46 1959.954 L -3434.46 1977.568 L -3437.413 1977.568 L -3437.413 1959.929 L -3437.413 1959.929 Q -3437.437 1956.331 -3438.938 1954.57 L -3438.938 1954.57 L -3438.938 1954.57 Q -3440.439 1952.808 -3443.739 1952.808 L -3443.739 1952.808 L -3443.739 1952.808 Q -3446.493 1952.808 -3448.614 1954.533 L -3448.614 1954.533 L -3448.614 1954.533 Q -3450.735 1956.257 -3451.753 1959.185 L -3451.753 1959.185 L -3451.753 1977.568 L -3454.705 1977.568 L -3454.705 1950.724 L -3454.705 1950.724 Z  M -3416.87 1975.559 L -3416.87 1975.559 L -3416.87 1975.559 Q -3413.769 1975.559 -3411.673 1973.81 L -3411.673 1973.81 L -3411.673 1973.81 Q -3409.576 1972.061 -3409.403 1969.282 L -3409.403 1969.282 L -3406.55 1969.282 L -3406.55 1969.282 Q -3406.674 1971.738 -3408.088 1973.76 L -3408.088 1973.76 L -3408.088 1973.76 Q -3409.502 1975.782 -3411.846 1976.923 L -3411.846 1976.923 L -3411.846 1976.923 Q -3414.191 1978.065 -3416.87 1978.065 L -3416.87 1978.065 L -3416.87 1978.065 Q -3422.155 1978.065 -3425.244 1974.393 L -3425.244 1974.393 L -3425.244 1974.393 Q -3428.332 1970.721 -3428.332 1964.519 L -3428.332 1964.519 L -3428.332 1963.625 L -3428.332 1963.625 Q -3428.332 1959.656 -3426.943 1956.604 L -3426.943 1956.604 L -3426.943 1956.604 Q -3425.554 1953.553 -3422.961 1951.891 L -3422.961 1951.891 L -3422.961 1951.891 Q -3420.368 1950.228 -3416.895 1950.228 L -3416.895 1950.228 L -3416.895 1950.228 Q -3412.479 1950.228 -3409.614 1952.858 L -3409.614 1952.858 L -3409.614 1952.858 Q -3406.748 1955.488 -3406.55 1959.78 L -3406.55 1959.78 L -3409.403 1959.78 L -3409.403 1959.78 Q -3409.601 1956.629 -3411.673 1954.694 L -3411.673 1954.694 L -3411.673 1954.694 Q -3413.744 1952.759 -3416.895 1952.759 L -3416.895 1952.759 L -3416.895 1952.759 Q -3420.914 1952.759 -3423.135 1955.662 L -3423.135 1955.662 L -3423.135 1955.662 Q -3425.355 1958.564 -3425.355 1963.799 L -3425.355 1963.799 L -3425.355 1964.667 L -3425.355 1964.667 Q -3425.355 1969.803 -3423.135 1972.681 L -3423.135 1972.681 L -3423.135 1972.681 Q -3420.914 1975.559 -3416.87 1975.559 L -3416.87 1975.559 Z  M -3400.446 1950.724 L -3392.11 1973.301 L -3384.271 1950.724 L -3381.07 1950.724 L -3392.532 1982.133 L -3393.128 1983.523 L -3393.128 1983.523 Q -3395.336 1988.41 -3399.95 1988.41 L -3399.95 1988.41 L -3399.95 1988.41 Q -3401.017 1988.41 -3402.233 1988.063 L -3402.233 1988.063 L -3402.257 1985.607 L -3400.719 1985.756 L -3400.719 1985.756 Q -3398.536 1985.756 -3397.184 1984.676 L -3397.184 1984.676 L -3397.184 1984.676 Q -3395.832 1983.597 -3394.889 1980.967 L -3394.889 1980.967 L -3393.574 1977.345 L -3403.696 1950.724 L -3400.446 1950.724 L -3400.446 1950.724 Z  M -3516.233 1977.568 L -3519.408 1977.568 L -3519.408 1977.568 Q -3519.855 1976.303 -3519.979 1973.822 L -3519.979 1973.822 L -3519.979 1973.822 Q -3521.542 1975.857 -3523.961 1976.961 L -3523.961 1976.961 L -3523.961 1976.961 Q -3526.38 1978.065 -3529.084 1978.065 L -3529.084 1978.065 L -3529.084 1978.065 Q -3532.954 1978.065 -3535.348 1975.906 L -3535.348 1975.906 L -3535.348 1975.906 Q -3537.743 1973.748 -3537.743 1970.448 L -3537.743 1970.448 L -3537.743 1970.448 Q -3537.743 1966.528 -3534.48 1964.246 L -3534.48 1964.246 L -3534.48 1964.246 Q -3531.218 1961.963 -3525.387 1961.963 L -3525.387 1961.963 L -3520.004 1961.963 L -3520.004 1958.912 L -3520.004 1958.912 Q -3520.004 1956.034 -3521.778 1954.384 L -3521.778 1954.384 L -3521.778 1954.384 Q -3523.552 1952.734 -3526.95 1952.734 L -3526.95 1952.734 L -3526.95 1952.734 Q -3530.052 1952.734 -3532.086 1954.322 L -3532.086 1954.322 L -3532.086 1954.322 Q -3534.12 1955.91 -3534.12 1958.143 L -3534.12 1958.143 L -3537.098 1958.118 L -3537.098 1958.118 Q -3537.098 1954.917 -3534.12 1952.573 L -3534.12 1952.573 L -3534.12 1952.573 Q -3531.143 1950.228 -3526.802 1950.228 L -3526.802 1950.228 L -3526.802 1950.228 Q -3522.311 1950.228 -3519.718 1952.474 L -3519.718 1952.474 L -3519.718 1952.474 Q -3517.126 1954.719 -3517.051 1958.738 L -3517.051 1958.738 L -3517.051 1971.44 L -3517.051 1971.44 Q -3517.051 1975.336 -3516.233 1977.271 L -3516.233 1977.271 L -3516.233 1977.568 L -3516.233 1977.568 Z  M -3470.558 1978.065 L -3470.558 1978.065 L -3470.558 1978.065 Q -3473.982 1978.065 -3476.748 1976.378 L -3476.748 1976.378 L -3476.748 1976.378 Q -3479.515 1974.691 -3481.053 1971.676 L -3481.053 1971.676 L -3481.053 1971.676 Q -3482.591 1968.662 -3482.591 1964.916 L -3482.591 1964.916 L -3482.591 1963.849 L -3482.591 1963.849 Q -3482.591 1959.978 -3481.09 1956.877 L -3481.09 1956.877 L -3481.09 1956.877 Q -3479.589 1953.776 -3476.91 1952.002 L -3476.91 1952.002 L -3476.91 1952.002 Q -3474.23 1950.228 -3471.104 1950.228 L -3471.104 1950.228 L -3471.104 1950.228 Q -3466.217 1950.228 -3463.351 1953.565 L -3463.351 1953.565 L -3463.351 1953.565 Q -3460.486 1956.902 -3460.486 1962.683 L -3460.486 1962.683 L -3460.486 1964.345 L -3479.639 1964.345 L -3479.639 1964.916 L -3479.639 1964.916 Q -3479.639 1969.481 -3477.021 1972.52 L -3477.021 1972.52 L -3477.021 1972.52 Q -3474.404 1975.559 -3470.434 1975.559 L -3470.434 1975.559 L -3470.434 1975.559 Q -3468.052 1975.559 -3466.229 1974.691 L -3466.229 1974.691 L -3466.229 1974.691 Q -3464.405 1973.822 -3462.917 1971.912 L -3462.917 1971.912 L -3461.056 1973.326 L -3461.056 1973.326 Q -3464.331 1978.065 -3470.558 1978.065 L -3470.558 1978.065 Z  M -3433.727 1899.755 L -3433.727 1937.863 L -3436.704 1937.863 L -3436.704 1899.755 L -3433.727 1899.755 L -3433.727 1899.755 Z  M -3528.226 1911.019 L -3528.226 1937.863 L -3531.204 1937.863 L -3531.204 1911.019 L -3528.226 1911.019 L -3528.226 1911.019 Z  M -3531.725 1903.253 L -3531.725 1903.253 L -3531.725 1903.253 Q -3531.725 1902.41 -3531.179 1901.827 L -3531.179 1901.827 L -3531.179 1901.827 Q -3530.633 1901.244 -3529.69 1901.244 L -3529.69 1901.244 L -3529.69 1901.244 Q -3528.747 1901.244 -3528.189 1901.827 L -3528.189 1901.827 L -3528.189 1901.827 Q -3527.631 1902.41 -3527.631 1903.253 L -3527.631 1903.253 L -3527.631 1903.253 Q -3527.631 1904.097 -3528.189 1904.667 L -3528.189 1904.667 L -3528.189 1904.667 Q -3528.747 1905.238 -3529.69 1905.238 L -3529.69 1905.238 L -3529.69 1905.238 Q -3530.633 1905.238 -3531.179 1904.667 L -3531.179 1904.667 L -3531.179 1904.667 Q -3531.725 1904.097 -3531.725 1903.253 L -3531.725 1903.253 Z  M -3456.651 1935.729 L -3456.651 1935.729 L -3456.651 1935.729 Q -3453.674 1935.729 -3451.329 1934.29 L -3451.329 1934.29 L -3451.329 1934.29 Q -3448.985 1932.851 -3447.918 1930.445 L -3447.918 1930.445 L -3447.918 1924.54 L -3453.227 1924.54 L -3453.227 1924.54 Q -3457.668 1924.589 -3460.174 1926.165 L -3460.174 1926.165 L -3460.174 1926.165 Q -3462.679 1927.74 -3462.679 1930.494 L -3462.679 1930.494 L -3462.679 1930.494 Q -3462.679 1932.752 -3461.005 1934.24 L -3461.005 1934.24 L -3461.005 1934.24 Q -3459.33 1935.729 -3456.651 1935.729 L -3456.651 1935.729 Z  M -3518.352 1924.714 L -3518.352 1924.714 L -3518.352 1924.714 Q -3518.352 1929.849 -3516.293 1932.814 L -3516.293 1932.814 L -3516.293 1932.814 Q -3514.234 1935.779 -3510.488 1935.779 L -3510.488 1935.779 L -3510.488 1935.779 Q -3505.005 1935.779 -3502.722 1930.866 L -3502.722 1930.866 L -3502.722 1918.387 L -3502.722 1918.387 Q -3503.764 1915.807 -3505.724 1914.455 L -3505.724 1914.455 L -3505.724 1914.455 Q -3507.684 1913.103 -3510.438 1913.103 L -3510.438 1913.103 L -3510.438 1913.103 Q -3514.184 1913.103 -3516.268 1916.043 L -3516.268 1916.043 L -3516.268 1916.043 Q -3518.352 1918.982 -3518.352 1924.714 L -3518.352 1924.714 Z  M -3557.973 1924.714 L -3557.973 1924.714 L -3557.973 1924.714 Q -3557.973 1929.849 -3555.914 1932.814 L -3555.914 1932.814 L -3555.914 1932.814 Q -3553.855 1935.779 -3550.108 1935.779 L -3550.108 1935.779 L -3550.108 1935.779 Q -3544.626 1935.779 -3542.318 1930.941 L -3542.318 1930.941 L -3542.318 1918.337 L -3542.318 1918.337 Q -3544.626 1913.103 -3550.059 1913.103 L -3550.059 1913.103 L -3550.059 1913.103 Q -3553.805 1913.103 -3555.889 1916.043 L -3555.889 1916.043 L -3555.889 1916.043 Q -3557.973 1918.982 -3557.973 1924.714 L -3557.973 1924.714 Z  M -3478.955 1904.146 L -3475.977 1904.146 L -3475.977 1911.019 L -3470.42 1911.019 L -3470.42 1913.45 L -3475.977 1913.45 L -3475.977 1931.338 L -3475.977 1931.338 Q -3475.977 1933.571 -3475.171 1934.662 L -3475.171 1934.662 L -3475.171 1934.662 Q -3474.365 1935.754 -3472.479 1935.754 L -3472.479 1935.754 L -3472.479 1935.754 Q -3471.735 1935.754 -3470.073 1935.506 L -3470.073 1935.506 L -3469.949 1937.937 L -3469.949 1937.937 Q -3471.115 1938.359 -3473.124 1938.359 L -3473.124 1938.359 L -3473.124 1938.359 Q -3476.176 1938.359 -3477.565 1936.585 L -3477.565 1936.585 L -3477.565 1936.585 Q -3478.955 1934.811 -3478.955 1931.362 L -3478.955 1931.362 L -3478.955 1913.45 L -3483.892 1913.45 L -3483.892 1911.019 L -3478.955 1911.019 L -3478.955 1904.146 L -3478.955 1904.146 Z  M -3444.147 1937.863 L -3447.322 1937.863 L -3447.322 1937.863 Q -3447.769 1936.597 -3447.893 1934.116 L -3447.893 1934.116 L -3447.893 1934.116 Q -3449.456 1936.151 -3451.875 1937.255 L -3451.875 1937.255 L -3451.875 1937.255 Q -3454.294 1938.359 -3456.998 1938.359 L -3456.998 1938.359 L -3456.998 1938.359 Q -3460.868 1938.359 -3463.263 1936.2 L -3463.263 1936.2 L -3463.263 1936.2 Q -3465.657 1934.042 -3465.657 1930.742 L -3465.657 1930.742 L -3465.657 1930.742 Q -3465.657 1926.822 -3462.394 1924.54 L -3462.394 1924.54 L -3462.394 1924.54 Q -3459.132 1922.257 -3453.301 1922.257 L -3453.301 1922.257 L -3447.918 1922.257 L -3447.918 1919.206 L -3447.918 1919.206 Q -3447.918 1916.328 -3449.692 1914.678 L -3449.692 1914.678 L -3449.692 1914.678 Q -3451.466 1913.028 -3454.864 1913.028 L -3454.864 1913.028 L -3454.864 1913.028 Q -3457.966 1913.028 -3460 1914.616 L -3460 1914.616 L -3460 1914.616 Q -3462.034 1916.204 -3462.034 1918.437 L -3462.034 1918.437 L -3465.012 1918.412 L -3465.012 1918.412 Q -3465.012 1915.211 -3462.034 1912.867 L -3462.034 1912.867 L -3462.034 1912.867 Q -3459.057 1910.522 -3454.716 1910.522 L -3454.716 1910.522 L -3454.716 1910.522 Q -3450.225 1910.522 -3447.632 1912.768 L -3447.632 1912.768 L -3447.632 1912.768 Q -3445.04 1915.013 -3444.965 1919.032 L -3444.965 1919.032 L -3444.965 1931.735 L -3444.965 1931.735 Q -3444.965 1935.63 -3444.147 1937.565 L -3444.147 1937.565 L -3444.147 1937.863 L -3444.147 1937.863 Z  M -3521.354 1924.589 L -3521.354 1924.193 L -3521.354 1924.193 Q -3521.354 1917.891 -3518.563 1914.207 L -3518.563 1914.207 L -3518.563 1914.207 Q -3515.772 1910.522 -3510.984 1910.522 L -3510.984 1910.522 L -3510.984 1910.522 Q -3505.501 1910.522 -3502.648 1914.889 L -3502.648 1914.889 L -3502.499 1911.019 L -3499.72 1911.019 L -3499.72 1937.317 L -3499.72 1937.317 Q -3499.72 1942.502 -3502.623 1945.529 L -3502.623 1945.529 L -3502.623 1945.529 Q -3505.526 1948.556 -3510.488 1948.556 L -3510.488 1948.556 L -3510.488 1948.556 Q -3513.291 1948.556 -3515.834 1947.303 L -3515.834 1947.303 L -3515.834 1947.303 Q -3518.377 1946.05 -3519.841 1943.966 L -3519.841 1943.966 L -3518.179 1942.179 L -3518.179 1942.179 Q -3515.028 1946.05 -3510.686 1946.05 L -3510.686 1946.05 L -3510.686 1946.05 Q -3506.965 1946.05 -3504.881 1943.854 L -3504.881 1943.854 L -3504.881 1943.854 Q -3502.797 1941.658 -3502.722 1937.763 L -3502.722 1937.763 L -3502.722 1934.389 L -3502.722 1934.389 Q -3505.575 1938.359 -3511.033 1938.359 L -3511.033 1938.359 L -3511.033 1938.359 Q -3515.698 1938.359 -3518.526 1934.637 L -3518.526 1934.637 L -3518.526 1934.637 Q -3521.354 1930.916 -3521.354 1924.589 L -3521.354 1924.589 L -3521.354 1924.589 Z  M -3560.975 1924.54 L -3560.975 1924.193 L -3560.975 1924.193 Q -3560.975 1917.94 -3558.184 1914.231 L -3558.184 1914.231 L -3558.184 1914.231 Q -3555.393 1910.522 -3550.605 1910.522 L -3550.605 1910.522 L -3550.605 1910.522 Q -3545.171 1910.522 -3542.318 1914.814 L -3542.318 1914.814 L -3542.318 1899.755 L -3539.366 1899.755 L -3539.366 1937.863 L -3542.145 1937.863 L -3542.269 1934.29 L -3542.269 1934.29 Q -3545.122 1938.359 -3550.654 1938.359 L -3550.654 1938.359 L -3550.654 1938.359 Q -3555.294 1938.359 -3558.134 1934.625 L -3558.134 1934.625 L -3558.134 1934.625 Q -3560.975 1930.891 -3560.975 1924.54 L -3560.975 1924.54 L -3560.975 1924.54 Z " fill-rule="evenodd" fill="rgb(255,255,255)"/><circle vector-effect="non-scaling-stroke" cx="-3490.118890010806" cy="1903.2532192442454" r="2.0591952229792696" fill="rgb(255,0,0)"/></g></g></svg>