<?xml version="1.0" encoding="UTF-8" standalone="no"?><!-- Generator: Gravit.io --><svg xmlns="http://www.w3.org/2000/svg" xmlns:xlink="http://www.w3.org/1999/xlink" style="isolation:isolate" viewBox="-3691.987 2020.324 332.987 121.856" width="332.987pt" height="121.856pt"><g><rect x="-3691.987" y="2020.324" width="332.987" height="121.856" transform="matrix(1,0,0,1,0,0)" fill="rgb(255,0,0)"/><g><path d=" M -3669.917 2036.957 L -3649.138 2036.957 L -3649.138 2036.957 Q -3638.498 2036.957 -3633.617 2041.93 L -3633.617 2041.93 L -3633.617 2041.93 Q -3628.735 2046.903 -3628.735 2057.225 L -3628.735 2057.225 L -3628.735 2060.372 L -3628.735 2060.372 Q -3628.735 2073.969 -3637.622 2078.123 L -3637.622 2078.123 L -3637.622 2078.123 Q -3627.358 2082.151 -3627.358 2097.006 L -3627.358 2097.006 L -3627.358 2104.182 L -3627.358 2104.182 Q -3627.358 2114.379 -3632.678 2119.729 L -3632.678 2119.729 L -3632.678 2119.729 Q -3637.998 2125.079 -3648.262 2125.079 L -3648.262 2125.079 L -3669.917 2125.079 L -3669.917 2036.957 Z  M -3650.014 2085.425 L -3650.014 2085.425 L -3656.148 2085.425 L -3656.148 2112.491 L -3648.262 2112.491 L -3648.262 2112.491 Q -3644.632 2112.491 -3642.879 2110.539 L -3642.879 2110.539 L -3642.879 2110.539 Q -3641.127 2108.588 -3641.127 2103.804 L -3641.127 2103.804 L -3641.127 2096.125 L -3641.127 2096.125 Q -3641.127 2090.082 -3643.192 2087.753 L -3643.192 2087.753 L -3643.192 2087.753 Q -3645.258 2085.425 -3650.014 2085.425 Z  M -3649.514 2049.546 L -3649.514 2049.546 L -3656.148 2049.546 L -3656.148 2072.836 L -3650.765 2072.836 L -3650.765 2072.836 Q -3646.635 2072.836 -3644.569 2070.695 L -3644.569 2070.695 L -3644.569 2070.695 Q -3642.504 2068.555 -3642.504 2063.52 L -3642.504 2063.52 L -3642.504 2058.61 L -3642.504 2058.61 Q -3642.504 2049.546 -3649.514 2049.546 Z " fill="rgb(255,255,255)"/><path d=" M -3593.892 2113.063 L -3607.511 2113.063 L -3607.511 2113.063 Q -3607.636 2112.437 -3607.636 2111.185 L -3607.636 2111.185 L -3607.636 2111.185 Q -3607.636 2107.305 -3604.82 2102.986 L -3604.82 2102.986 L -3604.82 2102.986 Q -3602.003 2098.668 -3597.997 2094.412 L -3597.997 2094.412 L -3597.997 2094.412 Q -3593.992 2090.156 -3589.924 2085.274 L -3589.924 2085.274 L -3589.924 2085.274 Q -3585.856 2080.393 -3583.039 2073.508 L -3583.039 2073.508 L -3583.039 2073.508 Q -3580.223 2066.623 -3580.223 2058.988 L -3580.223 2058.988 L -3580.223 2058.988 Q -3580.223 2048.348 -3585.48 2042.653 L -3585.48 2042.653 L -3585.48 2042.653 Q -3590.738 2036.957 -3600.751 2036.957 L -3600.751 2036.957 L -3600.751 2036.957 Q -3610.765 2036.957 -3616.022 2042.653 L -3616.022 2042.653 L -3616.022 2042.653 Q -3621.28 2048.348 -3621.28 2058.988 L -3621.28 2058.988 L -3621.28 2067.499 L -3608.262 2067.499 L -3608.262 2058.111 L -3608.262 2058.111 Q -3608.262 2049.475 -3601.127 2049.475 L -3601.127 2049.475 L -3601.127 2049.475 Q -3597.622 2049.475 -3595.807 2051.665 L -3595.807 2051.665 L -3595.807 2051.665 Q -3593.992 2053.855 -3593.992 2059.488 L -3593.992 2059.488 L -3593.992 2059.488 Q -3593.992 2066.498 -3596.808 2072.381 L -3596.808 2072.381 L -3596.808 2072.381 Q -3599.625 2078.264 -3603.63 2082.583 L -3603.63 2082.583 L -3603.63 2082.583 Q -3607.636 2086.901 -3611.641 2091.345 L -3611.641 2091.345 L -3611.641 2091.345 Q -3615.647 2095.789 -3618.463 2101.734 L -3618.463 2101.734 L -3618.463 2101.734 Q -3621.28 2107.68 -3621.28 2114.815 L -3621.28 2114.815 L -3621.28 2125.58 L -3593.805 2125.58 C -3595.066 2123.792 -3595.807 2121.611 -3595.807 2119.259 C -3595.807 2116.961 -3595.1 2114.827 -3593.892 2113.063 Z " fill="rgb(255,255,255)"/><circle vector-effect="non-scaling-stroke" cx="-3584.821741889805" cy="2119.2589718397885" r="6.258682518461228" fill="rgb(255,255,255)"/></g><g><path d=" M -3491.72 2091.715 L -3491.72 2091.715 Q -3494.573 2087.349 -3499.958 2087.398 L -3499.958 2087.398 L -3499.958 2087.398 Q -3504.746 2087.398 -3507.537 2091.082 L -3507.537 2091.082 L -3507.537 2091.082 Q -3510.328 2094.767 -3510.328 2101.068 L -3510.328 2101.068 L -3510.328 2101.465 L -3510.328 2101.465 L -3510.328 2101.465 Q -3510.328 2107.792 -3507.5 2111.513 L -3507.5 2111.513 L -3507.5 2111.513 Q -3504.671 2115.234 -3500.007 2115.234 L -3500.007 2115.234 L -3500.007 2115.234 Q -3494.549 2115.234 -3491.696 2111.265 L -3491.696 2111.265 L -3491.696 2114.639 L -3491.696 2114.639 Q -3491.77 2118.534 -3493.854 2120.73 L -3493.854 2120.73 L -3493.854 2120.73 Q -3495.938 2122.925 -3499.66 2122.925 L -3499.66 2122.925 L -3499.66 2122.925 Q -3504.002 2122.925 -3507.152 2119.055 L -3507.152 2119.055 L -3508.815 2120.841 L -3508.815 2120.841 Q -3507.351 2122.925 -3504.808 2124.178 L -3504.808 2124.178 L -3504.808 2124.178 Q -3502.265 2125.431 -3499.461 2125.431 L -3499.461 2125.431 L -3499.461 2125.431 Q -3494.5 2125.431 -3491.597 2122.404 L -3491.597 2122.404 L -3491.597 2122.404 Q -3488.694 2119.378 -3488.694 2114.192 L -3488.694 2114.192 L -3488.655 2048.188 L -3488.655 2048.188 L -3491.632 2048.188 L -3491.72 2091.715 Z  M -3528.737 2112.605 L -3528.737 2112.605 L -3528.737 2112.605 Q -3525.76 2112.605 -3523.415 2111.166 L -3523.415 2111.166 L -3523.415 2111.166 Q -3521.071 2109.727 -3520.004 2107.32 L -3520.004 2107.32 L -3520.004 2101.416 L -3525.313 2101.416 L -3525.313 2101.416 Q -3529.754 2101.465 -3532.26 2103.041 L -3532.26 2103.041 L -3532.26 2103.041 Q -3534.765 2104.616 -3534.765 2107.37 L -3534.765 2107.37 L -3534.765 2107.37 Q -3534.765 2109.628 -3533.091 2111.116 L -3533.091 2111.116 L -3533.091 2111.116 Q -3531.416 2112.605 -3528.737 2112.605 L -3528.737 2112.605 Z  M -3507.326 2101.589 L -3507.326 2101.589 L -3507.326 2101.589 Q -3507.326 2106.725 -3505.267 2109.69 L -3505.267 2109.69 L -3505.267 2109.69 Q -3503.208 2112.654 -3499.461 2112.654 L -3499.461 2112.654 L -3499.461 2112.654 Q -3493.979 2112.654 -3491.696 2107.742 L -3491.696 2107.742 L -3491.696 2095.263 L -3491.696 2095.263 Q -3492.738 2092.683 -3494.698 2091.33 L -3494.698 2091.33 L -3494.698 2091.33 Q -3496.658 2089.978 -3499.412 2089.978 L -3499.412 2089.978 L -3499.412 2089.978 Q -3503.158 2089.978 -3505.242 2092.918 L -3505.242 2092.918 L -3505.242 2092.918 Q -3507.326 2095.858 -3507.326 2101.589 L -3507.326 2101.589 Z  M -3471.104 2089.929 L -3471.104 2089.929 L -3471.104 2089.929 Q -3474.453 2089.929 -3476.748 2092.385 L -3476.748 2092.385 L -3476.748 2092.385 Q -3479.043 2094.841 -3479.539 2098.984 L -3479.539 2098.984 L -3463.438 2098.984 L -3463.438 2098.662 L -3463.438 2098.662 Q -3463.562 2094.791 -3465.646 2092.36 L -3465.646 2092.36 L -3465.646 2092.36 Q -3467.73 2089.929 -3471.104 2089.929 L -3471.104 2089.929 Z  M -3454.705 2087.894 L -3451.877 2087.894 L -3451.777 2092.484 L -3451.777 2092.484 Q -3450.264 2090.003 -3448.006 2088.701 L -3448.006 2088.701 L -3448.006 2088.701 Q -3445.749 2087.398 -3443.02 2087.398 L -3443.02 2087.398 L -3443.02 2087.398 Q -3438.703 2087.398 -3436.594 2089.829 L -3436.594 2089.829 L -3436.594 2089.829 Q -3434.485 2092.261 -3434.46 2097.123 L -3434.46 2097.123 L -3434.46 2114.738 L -3437.413 2114.738 L -3437.413 2097.099 L -3437.413 2097.099 Q -3437.437 2093.501 -3438.938 2091.74 L -3438.938 2091.74 L -3438.938 2091.74 Q -3440.439 2089.978 -3443.739 2089.978 L -3443.739 2089.978 L -3443.739 2089.978 Q -3446.493 2089.978 -3448.614 2091.703 L -3448.614 2091.703 L -3448.614 2091.703 Q -3450.735 2093.427 -3451.753 2096.354 L -3451.753 2096.354 L -3451.753 2114.738 L -3454.705 2114.738 L -3454.705 2087.894 L -3454.705 2087.894 Z  M -3416.87 2112.729 L -3416.87 2112.729 L -3416.87 2112.729 Q -3413.769 2112.729 -3411.673 2110.98 L -3411.673 2110.98 L -3411.673 2110.98 Q -3409.576 2109.231 -3409.403 2106.452 L -3409.403 2106.452 L -3406.55 2106.452 L -3406.55 2106.452 Q -3406.674 2108.908 -3408.088 2110.93 L -3408.088 2110.93 L -3408.088 2110.93 Q -3409.502 2112.952 -3411.846 2114.093 L -3411.846 2114.093 L -3411.846 2114.093 Q -3414.191 2115.234 -3416.87 2115.234 L -3416.87 2115.234 L -3416.87 2115.234 Q -3422.155 2115.234 -3425.244 2111.563 L -3425.244 2111.563 L -3425.244 2111.563 Q -3428.332 2107.891 -3428.332 2101.688 L -3428.332 2101.688 L -3428.332 2100.795 L -3428.332 2100.795 Q -3428.332 2096.826 -3426.943 2093.774 L -3426.943 2093.774 L -3426.943 2093.774 Q -3425.554 2090.723 -3422.961 2089.06 L -3422.961 2089.06 L -3422.961 2089.06 Q -3420.368 2087.398 -3416.895 2087.398 L -3416.895 2087.398 L -3416.895 2087.398 Q -3412.479 2087.398 -3409.614 2090.028 L -3409.614 2090.028 L -3409.614 2090.028 Q -3406.748 2092.658 -3406.55 2096.95 L -3406.55 2096.95 L -3409.403 2096.95 L -3409.403 2096.95 Q -3409.601 2093.799 -3411.673 2091.864 L -3411.673 2091.864 L -3411.673 2091.864 Q -3413.744 2089.929 -3416.895 2089.929 L -3416.895 2089.929 L -3416.895 2089.929 Q -3420.914 2089.929 -3423.135 2092.831 L -3423.135 2092.831 L -3423.135 2092.831 Q -3425.355 2095.734 -3425.355 2100.969 L -3425.355 2100.969 L -3425.355 2101.837 L -3425.355 2101.837 Q -3425.355 2106.973 -3423.135 2109.851 L -3423.135 2109.851 L -3423.135 2109.851 Q -3420.914 2112.729 -3416.87 2112.729 L -3416.87 2112.729 Z  M -3400.446 2087.894 L -3392.11 2110.471 L -3384.271 2087.894 L -3381.07 2087.894 L -3392.532 2119.303 L -3393.128 2120.693 L -3393.128 2120.693 Q -3395.336 2125.58 -3399.95 2125.58 L -3399.95 2125.58 L -3399.95 2125.58 Q -3401.017 2125.58 -3402.233 2125.233 L -3402.233 2125.233 L -3402.257 2122.777 L -3400.719 2122.925 L -3400.719 2122.925 Q -3398.536 2122.925 -3397.184 2121.846 L -3397.184 2121.846 L -3397.184 2121.846 Q -3395.832 2120.767 -3394.889 2118.137 L -3394.889 2118.137 L -3393.574 2114.515 L -3403.696 2087.894 L -3400.446 2087.894 L -3400.446 2087.894 Z  M -3516.233 2114.738 L -3519.408 2114.738 L -3519.408 2114.738 Q -3519.855 2113.473 -3519.979 2110.992 L -3519.979 2110.992 L -3519.979 2110.992 Q -3521.542 2113.026 -3523.961 2114.13 L -3523.961 2114.13 L -3523.961 2114.13 Q -3526.38 2115.234 -3529.084 2115.234 L -3529.084 2115.234 L -3529.084 2115.234 Q -3532.954 2115.234 -3535.348 2113.076 L -3535.348 2113.076 L -3535.348 2113.076 Q -3537.743 2110.918 -3537.743 2107.618 L -3537.743 2107.618 L -3537.743 2107.618 Q -3537.743 2103.698 -3534.48 2101.416 L -3534.48 2101.416 L -3534.48 2101.416 Q -3531.218 2099.133 -3525.387 2099.133 L -3525.387 2099.133 L -3520.004 2099.133 L -3520.004 2096.081 L -3520.004 2096.081 Q -3520.004 2093.204 -3521.778 2091.554 L -3521.778 2091.554 L -3521.778 2091.554 Q -3523.552 2089.904 -3526.95 2089.904 L -3526.95 2089.904 L -3526.95 2089.904 Q -3530.052 2089.904 -3532.086 2091.492 L -3532.086 2091.492 L -3532.086 2091.492 Q -3534.12 2093.08 -3534.12 2095.312 L -3534.12 2095.312 L -3537.098 2095.288 L -3537.098 2095.288 Q -3537.098 2092.087 -3534.12 2089.743 L -3534.12 2089.743 L -3534.12 2089.743 Q -3531.143 2087.398 -3526.802 2087.398 L -3526.802 2087.398 L -3526.802 2087.398 Q -3522.311 2087.398 -3519.718 2089.643 L -3519.718 2089.643 L -3519.718 2089.643 Q -3517.126 2091.889 -3517.051 2095.908 L -3517.051 2095.908 L -3517.051 2108.61 L -3517.051 2108.61 Q -3517.051 2112.505 -3516.233 2114.441 L -3516.233 2114.441 L -3516.233 2114.738 L -3516.233 2114.738 Z  M -3470.558 2115.234 L -3470.558 2115.234 L -3470.558 2115.234 Q -3473.982 2115.234 -3476.748 2113.547 L -3476.748 2113.547 L -3476.748 2113.547 Q -3479.515 2111.86 -3481.053 2108.846 L -3481.053 2108.846 L -3481.053 2108.846 Q -3482.591 2105.832 -3482.591 2102.085 L -3482.591 2102.085 L -3482.591 2101.019 L -3482.591 2101.019 Q -3482.591 2097.148 -3481.09 2094.047 L -3481.09 2094.047 L -3481.09 2094.047 Q -3479.589 2090.946 -3476.91 2089.172 L -3476.91 2089.172 L -3476.91 2089.172 Q -3474.23 2087.398 -3471.104 2087.398 L -3471.104 2087.398 L -3471.104 2087.398 Q -3466.217 2087.398 -3463.351 2090.735 L -3463.351 2090.735 L -3463.351 2090.735 Q -3460.486 2094.072 -3460.486 2099.853 L -3460.486 2099.853 L -3460.486 2101.515 L -3479.639 2101.515 L -3479.639 2102.085 L -3479.639 2102.085 Q -3479.639 2106.65 -3477.021 2109.69 L -3477.021 2109.69 L -3477.021 2109.69 Q -3474.404 2112.729 -3470.434 2112.729 L -3470.434 2112.729 L -3470.434 2112.729 Q -3468.052 2112.729 -3466.229 2111.86 L -3466.229 2111.86 L -3466.229 2111.86 Q -3464.405 2110.992 -3462.917 2109.082 L -3462.917 2109.082 L -3461.056 2110.496 L -3461.056 2110.496 Q -3464.331 2115.234 -3470.558 2115.234 L -3470.558 2115.234 Z  M -3433.727 2036.925 L -3433.727 2075.032 L -3436.704 2075.032 L -3436.704 2036.925 L -3433.727 2036.925 L -3433.727 2036.925 Z  M -3528.226 2048.188 L -3528.226 2075.032 L -3531.204 2075.032 L -3531.204 2048.188 L -3528.226 2048.188 L -3528.226 2048.188 Z  M -3531.725 2040.423 L -3531.725 2040.423 L -3531.725 2040.423 Q -3531.725 2039.58 -3531.179 2038.997 L -3531.179 2038.997 L -3531.179 2038.997 Q -3530.633 2038.413 -3529.69 2038.413 L -3529.69 2038.413 L -3529.69 2038.413 Q -3528.747 2038.413 -3528.189 2038.997 L -3528.189 2038.997 L -3528.189 2038.997 Q -3527.631 2039.58 -3527.631 2040.423 L -3527.631 2040.423 L -3527.631 2040.423 Q -3527.631 2041.267 -3528.189 2041.837 L -3528.189 2041.837 L -3528.189 2041.837 Q -3528.747 2042.408 -3529.69 2042.408 L -3529.69 2042.408 L -3529.69 2042.408 Q -3530.633 2042.408 -3531.179 2041.837 L -3531.179 2041.837 L -3531.179 2041.837 Q -3531.725 2041.267 -3531.725 2040.423 L -3531.725 2040.423 Z  M -3456.651 2072.899 L -3456.651 2072.899 L -3456.651 2072.899 Q -3453.674 2072.899 -3451.329 2071.46 L -3451.329 2071.46 L -3451.329 2071.46 Q -3448.985 2070.021 -3447.918 2067.614 L -3447.918 2067.614 L -3447.918 2061.71 L -3453.227 2061.71 L -3453.227 2061.71 Q -3457.668 2061.759 -3460.174 2063.335 L -3460.174 2063.335 L -3460.174 2063.335 Q -3462.679 2064.91 -3462.679 2067.664 L -3462.679 2067.664 L -3462.679 2067.664 Q -3462.679 2069.922 -3461.005 2071.41 L -3461.005 2071.41 L -3461.005 2071.41 Q -3459.33 2072.899 -3456.651 2072.899 L -3456.651 2072.899 Z  M -3518.352 2061.883 L -3518.352 2061.883 L -3518.352 2061.883 Q -3518.352 2067.019 -3516.293 2069.984 L -3516.293 2069.984 L -3516.293 2069.984 Q -3514.234 2072.948 -3510.488 2072.948 L -3510.488 2072.948 L -3510.488 2072.948 Q -3505.005 2072.948 -3502.722 2068.036 L -3502.722 2068.036 L -3502.722 2055.557 L -3502.722 2055.557 Q -3503.764 2052.977 -3505.724 2051.625 L -3505.724 2051.625 L -3505.724 2051.625 Q -3507.684 2050.272 -3510.438 2050.272 L -3510.438 2050.272 L -3510.438 2050.272 Q -3514.184 2050.272 -3516.268 2053.212 L -3516.268 2053.212 L -3516.268 2053.212 Q -3518.352 2056.152 -3518.352 2061.883 L -3518.352 2061.883 Z  M -3557.973 2061.883 L -3557.973 2061.883 L -3557.973 2061.883 Q -3557.973 2067.019 -3555.914 2069.984 L -3555.914 2069.984 L -3555.914 2069.984 Q -3553.855 2072.948 -3550.108 2072.948 L -3550.108 2072.948 L -3550.108 2072.948 Q -3544.626 2072.948 -3542.318 2068.111 L -3542.318 2068.111 L -3542.318 2055.507 L -3542.318 2055.507 Q -3544.626 2050.272 -3550.059 2050.272 L -3550.059 2050.272 L -3550.059 2050.272 Q -3553.805 2050.272 -3555.889 2053.212 L -3555.889 2053.212 L -3555.889 2053.212 Q -3557.973 2056.152 -3557.973 2061.883 L -3557.973 2061.883 Z  M -3492.153 2040.423 L -3492.153 2040.423 L -3492.153 2040.423 Q -3492.153 2039.58 -3491.607 2038.997 L -3491.607 2038.997 L -3491.607 2038.997 Q -3491.062 2038.413 -3490.119 2038.413 L -3490.119 2038.413 L -3490.119 2038.413 Q -3489.176 2038.413 -3488.618 2038.997 L -3488.618 2038.997 L -3488.618 2038.997 Q -3488.06 2039.58 -3488.06 2040.423 L -3488.06 2040.423 L -3488.06 2040.423 Q -3488.06 2041.267 -3488.618 2041.837 L -3488.618 2041.837 L -3488.618 2041.837 Q -3489.176 2042.408 -3490.119 2042.408 L -3490.119 2042.408 L -3490.119 2042.408 Q -3491.062 2042.408 -3491.607 2041.837 L -3491.607 2041.837 L -3491.607 2041.837 Q -3492.153 2041.267 -3492.153 2040.423 L -3492.153 2040.423 Z  M -3478.955 2041.316 L -3475.977 2041.316 L -3475.977 2048.188 L -3470.42 2048.188 L -3470.42 2050.62 L -3475.977 2050.62 L -3475.977 2068.508 L -3475.977 2068.508 Q -3475.977 2070.74 -3475.171 2071.832 L -3475.171 2071.832 L -3475.171 2071.832 Q -3474.365 2072.924 -3472.479 2072.924 L -3472.479 2072.924 L -3472.479 2072.924 Q -3471.735 2072.924 -3470.073 2072.676 L -3470.073 2072.676 L -3469.949 2075.107 L -3469.949 2075.107 Q -3471.115 2075.529 -3473.124 2075.529 L -3473.124 2075.529 L -3473.124 2075.529 Q -3476.176 2075.529 -3477.565 2073.755 L -3477.565 2073.755 L -3477.565 2073.755 Q -3478.955 2071.981 -3478.955 2068.532 L -3478.955 2068.532 L -3478.955 2050.62 L -3483.892 2050.62 L -3483.892 2048.188 L -3478.955 2048.188 L -3478.955 2041.316 L -3478.955 2041.316 Z  M -3444.147 2075.032 L -3447.322 2075.032 L -3447.322 2075.032 Q -3447.769 2073.767 -3447.893 2071.286 L -3447.893 2071.286 L -3447.893 2071.286 Q -3449.456 2073.321 -3451.875 2074.425 L -3451.875 2074.425 L -3451.875 2074.425 Q -3454.294 2075.529 -3456.998 2075.529 L -3456.998 2075.529 L -3456.998 2075.529 Q -3460.868 2075.529 -3463.263 2073.37 L -3463.263 2073.37 L -3463.263 2073.37 Q -3465.657 2071.212 -3465.657 2067.912 L -3465.657 2067.912 L -3465.657 2067.912 Q -3465.657 2063.992 -3462.394 2061.71 L -3462.394 2061.71 L -3462.394 2061.71 Q -3459.132 2059.427 -3453.301 2059.427 L -3453.301 2059.427 L -3447.918 2059.427 L -3447.918 2056.376 L -3447.918 2056.376 Q -3447.918 2053.498 -3449.692 2051.848 L -3449.692 2051.848 L -3449.692 2051.848 Q -3451.466 2050.198 -3454.864 2050.198 L -3454.864 2050.198 L -3454.864 2050.198 Q -3457.966 2050.198 -3460 2051.786 L -3460 2051.786 L -3460 2051.786 Q -3462.034 2053.374 -3462.034 2055.607 L -3462.034 2055.607 L -3465.012 2055.582 L -3465.012 2055.582 Q -3465.012 2052.381 -3462.034 2050.037 L -3462.034 2050.037 L -3462.034 2050.037 Q -3459.057 2047.692 -3454.716 2047.692 L -3454.716 2047.692 L -3454.716 2047.692 Q -3450.225 2047.692 -3447.632 2049.938 L -3447.632 2049.938 L -3447.632 2049.938 Q -3445.04 2052.183 -3444.965 2056.202 L -3444.965 2056.202 L -3444.965 2068.904 L -3444.965 2068.904 Q -3444.965 2072.8 -3444.147 2074.735 L -3444.147 2074.735 L -3444.147 2075.032 L -3444.147 2075.032 Z  M -3521.354 2061.759 L -3521.354 2061.362 L -3521.354 2061.362 Q -3521.354 2055.061 -3518.563 2051.376 L -3518.563 2051.376 L -3518.563 2051.376 Q -3515.772 2047.692 -3510.984 2047.692 L -3510.984 2047.692 L -3510.984 2047.692 Q -3505.501 2047.692 -3502.648 2052.059 L -3502.648 2052.059 L -3502.499 2048.188 L -3499.72 2048.188 L -3499.72 2074.487 L -3499.72 2074.487 Q -3499.72 2079.672 -3502.623 2082.699 L -3502.623 2082.699 L -3502.623 2082.699 Q -3505.526 2085.725 -3510.488 2085.725 L -3510.488 2085.725 L -3510.488 2085.725 Q -3513.291 2085.725 -3515.834 2084.472 L -3515.834 2084.472 L -3515.834 2084.472 Q -3518.377 2083.22 -3519.841 2081.136 L -3519.841 2081.136 L -3518.179 2079.349 L -3518.179 2079.349 Q -3515.028 2083.22 -3510.686 2083.22 L -3510.686 2083.22 L -3510.686 2083.22 Q -3506.965 2083.22 -3504.881 2081.024 L -3504.881 2081.024 L -3504.881 2081.024 Q -3502.797 2078.828 -3502.722 2074.933 L -3502.722 2074.933 L -3502.722 2071.559 L -3502.722 2071.559 Q -3505.575 2075.529 -3511.033 2075.529 L -3511.033 2075.529 L -3511.033 2075.529 Q -3515.698 2075.529 -3518.526 2071.807 L -3518.526 2071.807 L -3518.526 2071.807 Q -3521.354 2068.086 -3521.354 2061.759 L -3521.354 2061.759 L -3521.354 2061.759 Z  M -3560.975 2061.71 L -3560.975 2061.362 L -3560.975 2061.362 Q -3560.975 2055.11 -3558.184 2051.401 L -3558.184 2051.401 L -3558.184 2051.401 Q -3555.393 2047.692 -3550.605 2047.692 L -3550.605 2047.692 L -3550.605 2047.692 Q -3545.171 2047.692 -3542.318 2051.984 L -3542.318 2051.984 L -3542.318 2036.925 L -3539.366 2036.925 L -3539.366 2075.032 L -3542.145 2075.032 L -3542.269 2071.46 L -3542.269 2071.46 Q -3545.122 2075.529 -3550.654 2075.529 L -3550.654 2075.529 L -3550.654 2075.529 Q -3555.294 2075.529 -3558.134 2071.795 L -3558.134 2071.795 L -3558.134 2071.795 Q -3560.975 2068.061 -3560.975 2061.71 L -3560.975 2061.71 L -3560.975 2061.71 Z " fill-rule="evenodd" fill="rgb(255,255,255)"/></g></g></svg>