<?xml version="1.0" encoding="UTF-8" standalone="no"?><!-- Generator: Gravit.io --><svg xmlns="http://www.w3.org/2000/svg" xmlns:xlink="http://www.w3.org/1999/xlink" style="isolation:isolate" viewBox="1076.497 175 125.673 108" width="125.673pt" height="108pt"><g><path d=" M 1200.206 249.618 L 1200.206 182.855 C 1200.206 181.771 1199.328 180.891 1198.242 180.891 L 1182.533 180.891 L 1182.533 178.927 L 1186.461 178.927 C 1187.546 178.927 1188.424 178.048 1188.424 176.964 C 1188.424 175.88 1187.546 175 1186.461 175 L 1174.679 175 C 1173.593 175 1172.715 175.88 1172.715 176.964 C 1172.715 178.048 1173.593 178.927 1174.679 178.927 L 1178.606 178.927 L 1178.606 180.891 L 1155.042 180.891 L 1155.042 178.927 L 1158.97 178.927 C 1160.056 178.927 1160.933 178.048 1160.933 176.964 C 1160.933 175.88 1160.056 175 1158.97 175 L 1147.188 175 C 1146.102 175 1145.224 175.88 1145.224 176.964 C 1145.224 178.048 1146.102 178.927 1147.188 178.927 L 1151.115 178.927 L 1151.115 180.891 L 1127.552 180.891 L 1127.552 178.927 L 1131.479 178.927 C 1132.565 178.927 1133.442 178.048 1133.442 176.964 C 1133.442 175.88 1132.565 175 1131.479 175 L 1119.697 175 C 1118.611 175 1117.733 175.88 1117.733 176.964 C 1117.733 178.048 1118.611 178.927 1119.697 178.927 L 1123.624 178.927 L 1123.624 180.891 L 1100.061 180.891 L 1100.061 178.927 L 1103.988 178.927 C 1105.074 178.927 1105.952 178.048 1105.952 176.964 C 1105.952 175.88 1105.074 175 1103.988 175 L 1092.206 175 C 1091.12 175 1090.242 175.88 1090.242 176.964 C 1090.242 178.048 1091.12 178.927 1092.206 178.927 L 1096.133 178.927 L 1096.133 180.891 L 1080.424 180.891 C 1079.338 180.891 1078.461 181.771 1078.461 182.855 L 1078.461 249.618 C 1077.375 249.618 1076.497 250.496 1076.497 251.582 C 1076.497 252.668 1077.375 253.545 1078.461 253.545 L 1131.479 253.545 L 1131.479 281.036 C 1131.479 282.122 1132.357 283 1133.442 283 C 1134.528 283 1135.406 282.122 1135.406 281.036 L 1135.406 253.545 L 1143.261 253.545 L 1143.261 281.036 C 1143.261 282.122 1144.138 283 1145.224 283 C 1146.31 283 1147.188 282.122 1147.188 281.036 L 1147.188 277.109 C 1148.274 277.109 1149.152 276.231 1149.152 275.145 C 1149.152 274.06 1148.274 273.182 1147.188 273.182 L 1147.188 269.255 C 1148.274 269.255 1149.152 268.377 1149.152 267.291 C 1149.152 266.205 1148.274 265.327 1147.188 265.327 L 1147.188 261.4 C 1148.274 261.4 1149.152 260.522 1149.152 259.436 C 1149.152 258.35 1148.274 257.473 1147.188 257.473 L 1147.188 253.545 L 1200.206 253.545 C 1201.292 253.545 1202.17 252.668 1202.17 251.582 C 1202.17 250.496 1201.292 249.618 1200.206 249.618 Z  M 1082.388 184.818 L 1196.279 184.818 L 1196.279 249.618 L 1082.388 249.618 L 1082.388 184.818 Z " fill="rgb(35,31,32)"/><path d=" M 1151.117 208.382 L 1186.463 208.382 C 1187.548 208.382 1188.426 207.502 1188.426 206.418 C 1188.426 205.334 1187.548 204.455 1186.463 204.455 L 1151.117 204.455 C 1150.031 204.455 1149.153 205.334 1149.153 206.418 C 1149.153 207.502 1150.031 208.382 1151.117 208.382 Z " fill="rgb(255,0,0)"/><path d=" M 1151.117 216.236 L 1186.463 216.236 C 1187.548 216.236 1188.426 215.357 1188.426 214.273 C 1188.426 213.189 1187.548 212.309 1186.463 212.309 L 1151.117 212.309 C 1150.031 212.309 1149.153 213.189 1149.153 214.273 C 1149.153 215.357 1150.031 216.236 1151.117 216.236 Z " fill="rgb(35,31,32)"/><path d=" M 1151.117 224.091 L 1186.463 224.091 C 1187.548 224.091 1188.426 223.211 1188.426 222.127 C 1188.426 221.043 1187.548 220.164 1186.463 220.164 L 1151.117 220.164 C 1150.031 220.164 1149.153 221.043 1149.153 222.127 C 1149.153 223.211 1150.031 224.091 1151.117 224.091 Z " fill="rgb(35,31,32)"/><path d=" M 1151.117 231.942 L 1168.79 231.942 C 1169.876 231.942 1170.753 231.064 1170.753 229.978 C 1170.753 228.894 1169.876 228.014 1168.79 228.014 L 1151.117 228.014 C 1150.031 228.014 1149.153 228.894 1149.153 229.978 C 1149.153 231.064 1150.031 231.942 1151.117 231.942 Z " fill="rgb(35,31,32)"/><path d=" M 1096.149 208.378 C 1099.397 208.378 1102.04 205.735 1102.04 202.487 C 1102.04 199.239 1099.397 196.596 1096.149 196.596 C 1092.901 196.596 1090.258 199.239 1090.258 202.487 C 1090.258 205.735 1092.901 208.378 1096.149 208.378 Z  M 1096.149 200.523 C 1097.233 200.523 1098.113 201.405 1098.113 202.487 C 1098.113 203.569 1097.233 204.451 1096.149 204.451 C 1095.065 204.451 1094.185 203.569 1094.185 202.487 C 1094.185 201.405 1095.065 200.523 1096.149 200.523 Z " fill="rgb(255,0,0)"/><path d=" M 1139.345 235.9 C 1139.424 235.9 1139.488 235.865 1139.565 235.857 C 1139.701 235.841 1139.836 235.82 1139.968 235.775 C 1140.078 235.737 1140.174 235.69 1140.274 235.635 C 1140.317 235.612 1140.364 235.602 1140.405 235.576 C 1140.447 235.551 1140.464 235.509 1140.504 235.482 C 1140.639 235.378 1140.759 235.266 1140.867 235.129 C 1140.926 235.052 1140.979 234.975 1141.028 234.891 C 1141.097 234.767 1141.152 234.64 1141.195 234.502 C 1141.232 234.38 1141.254 234.265 1141.268 234.137 C 1141.275 234.068 1141.309 234.009 1141.309 233.937 C 1141.309 233.88 1141.281 233.831 1141.275 233.776 C 1141.266 233.636 1141.234 233.503 1141.193 233.365 C 1141.158 233.251 1141.12 233.147 1141.067 233.041 C 1141.036 232.984 1141.032 232.917 1140.997 232.861 L 1123.324 205.403 C 1123.32 205.395 1123.31 205.393 1123.306 205.385 C 1123.233 205.273 1123.122 205.191 1123.025 205.097 C 1122.933 205.008 1122.856 204.9 1122.752 204.834 C 1122.745 204.828 1122.741 204.82 1122.733 204.814 C 1122.644 204.757 1122.544 204.745 1122.45 204.704 C 1122.318 204.645 1122.191 204.574 1122.049 204.547 C 1121.914 204.519 1121.778 204.535 1121.641 204.539 C 1121.525 204.539 1121.413 204.523 1121.297 204.545 C 1121.142 204.576 1121.003 204.649 1120.857 204.716 C 1120.775 204.755 1120.685 204.763 1120.606 204.814 C 1120.598 204.818 1120.594 204.828 1120.586 204.832 C 1120.482 204.9 1120.408 205.004 1120.317 205.093 C 1120.219 205.189 1120.107 205.271 1120.033 205.383 C 1120.029 205.389 1120.019 205.393 1120.015 205.401 L 1110.817 219.688 L 1106.621 213.232 C 1106.617 213.226 1106.611 213.224 1106.607 213.218 C 1106.541 213.116 1106.435 213.042 1106.346 212.953 C 1106.25 212.855 1106.168 212.741 1106.056 212.666 C 1106.052 212.665 1106.05 212.659 1106.044 212.655 C 1105.967 212.606 1105.881 212.596 1105.8 212.558 C 1105.653 212.49 1105.512 212.411 1105.351 212.38 C 1105.225 212.354 1105.099 212.374 1104.974 212.374 C 1104.848 212.374 1104.722 212.356 1104.599 212.38 C 1104.443 212.411 1104.306 212.486 1104.161 212.553 C 1104.076 212.592 1103.984 212.602 1103.903 212.655 C 1103.898 212.657 1103.896 212.663 1103.89 212.666 C 1103.784 212.737 1103.707 212.845 1103.615 212.937 C 1103.521 213.03 1103.411 213.11 1103.338 213.218 C 1103.334 213.224 1103.328 213.226 1103.324 213.232 L 1090.561 232.864 C 1090.527 232.914 1090.525 232.97 1090.5 233.022 C 1090.437 233.137 1090.394 233.255 1090.356 233.383 C 1090.317 233.512 1090.29 233.64 1090.278 233.772 C 1090.274 233.829 1090.244 233.878 1090.244 233.935 C 1090.244 234.003 1090.278 234.06 1090.284 234.129 C 1090.299 234.263 1090.323 234.39 1090.364 234.52 C 1090.403 234.642 1090.449 234.75 1090.508 234.861 C 1090.564 234.969 1090.631 235.066 1090.712 235.162 C 1090.798 235.268 1090.892 235.358 1090.998 235.445 C 1091.051 235.486 1091.083 235.545 1091.14 235.582 C 1091.205 235.623 1091.275 235.641 1091.344 235.676 C 1091.405 235.708 1091.466 235.737 1091.533 235.763 C 1091.754 235.843 1091.982 235.898 1092.21 235.898 L 1092.212 235.898 L 1139.345 235.898 L 1139.345 235.9 Z  M 1112.43 224.454 C 1112.453 224.421 1112.471 224.387 1112.492 224.354 L 1121.672 210.092 L 1135.756 231.973 L 1107.589 231.973 L 1112.43 224.454 Z  M 1102.92 231.973 L 1095.839 231.973 L 1104.981 217.907 L 1108.494 223.311 L 1102.92 231.973 Z " fill="rgb(35,31,32)"/></g></svg>