<?xml version="1.0" encoding="UTF-8" standalone="no"?><!-- Generator: Gravit.io --><svg xmlns="http://www.w3.org/2000/svg" xmlns:xlink="http://www.w3.org/1999/xlink" style="isolation:isolate" viewBox="182.444 439 91.111 108" width="91.111pt" height="108pt"><g><path d=" M 184.132 491.307 L 271.868 491.307 C 272.801 491.307 273.556 490.553 273.556 489.62 L 273.556 440.687 C 273.556 439.754 272.801 439 271.868 439 L 184.132 439 C 183.199 439 182.444 439.754 182.444 440.687 L 182.444 489.62 C 182.444 490.553 183.199 491.307 184.132 491.307 Z  M 185.819 442.375 L 270.181 442.375 L 270.181 487.932 L 185.819 487.932 L 185.819 442.375 Z " fill="rgb(35,31,32)"/><path d=" M 182.444 545.312 C 182.444 546.246 183.199 547 184.132 547 L 271.868 547 C 272.801 547 273.556 546.246 273.556 545.312 L 273.556 496.38 C 273.556 495.447 272.801 494.693 271.868 494.693 L 184.132 494.693 C 183.199 494.693 182.444 495.447 182.444 496.38 L 182.444 545.312 Z  M 185.819 498.068 L 270.181 498.068 L 270.181 543.625 L 185.819 543.625 L 185.819 498.068 Z " fill="rgb(35,31,32)"/><path d=" M 212.845 459.245 C 215.636 459.245 217.907 456.974 217.907 454.182 C 217.907 451.391 215.636 449.12 212.845 449.12 C 210.053 449.12 207.782 451.391 207.782 454.182 C 207.782 456.974 210.052 459.245 212.845 459.245 Z  M 212.845 452.495 C 213.776 452.495 214.532 453.251 214.532 454.182 C 214.532 455.114 213.776 455.87 212.845 455.87 C 211.913 455.87 211.157 455.114 211.157 454.182 C 211.157 453.251 211.913 452.495 212.845 452.495 Z " fill="rgb(255,0,0)"/><path d=" M 251.618 479.691 C 251.625 479.632 251.654 479.581 251.654 479.519 C 251.654 479.47 251.628 479.427 251.625 479.38 C 251.617 479.26 251.59 479.146 251.554 479.027 C 251.524 478.93 251.492 478.84 251.446 478.749 C 251.419 478.7 251.416 478.643 251.385 478.594 L 236.198 454.997 C 236.194 454.991 236.188 454.987 236.183 454.982 C 236.12 454.886 236.022 454.814 235.94 454.733 C 235.862 454.657 235.796 454.567 235.709 454.508 C 235.7 454.503 235.697 454.496 235.69 454.491 C 235.612 454.442 235.525 454.431 235.444 454.395 C 235.331 454.346 235.222 454.285 235.103 454.262 C 234.99 454.238 234.877 454.253 234.762 454.255 C 234.659 454.255 234.558 454.241 234.455 454.262 C 234.33 454.285 234.217 454.346 234.1 454.398 C 234.023 454.434 233.937 454.442 233.862 454.491 C 233.856 454.496 233.852 454.505 233.844 454.51 C 233.759 454.564 233.699 454.652 233.623 454.722 C 233.535 454.809 233.437 454.883 233.371 454.982 C 233.366 454.987 233.359 454.991 233.356 454.997 L 225.452 467.276 L 221.846 461.727 C 221.842 461.722 221.837 461.72 221.834 461.715 C 221.777 461.628 221.684 461.564 221.609 461.486 C 221.527 461.402 221.456 461.305 221.36 461.24 C 221.356 461.238 221.355 461.233 221.35 461.229 C 221.285 461.189 221.211 461.181 221.144 461.148 C 221.017 461.088 220.892 461.02 220.754 460.993 C 220.646 460.971 220.54 460.986 220.432 460.986 C 220.324 460.986 220.217 460.971 220.109 460.993 C 219.971 461.02 219.846 461.088 219.719 461.148 C 219.652 461.181 219.578 461.187 219.514 461.229 C 219.509 461.233 219.507 461.238 219.503 461.24 C 219.406 461.304 219.335 461.402 219.254 461.486 C 219.179 461.564 219.087 461.628 219.029 461.715 C 219.026 461.72 219.021 461.722 219.017 461.727 L 208.049 478.599 C 208.02 478.641 208.018 478.69 207.996 478.734 C 207.942 478.833 207.905 478.935 207.873 479.044 C 207.839 479.156 207.816 479.265 207.806 479.378 C 207.802 479.427 207.777 479.47 207.777 479.519 C 207.777 479.578 207.806 479.627 207.811 479.686 C 207.823 479.8 207.844 479.91 207.878 480.021 C 207.912 480.126 207.953 480.219 208.003 480.315 C 208.052 480.408 208.109 480.491 208.179 480.573 C 208.253 480.664 208.334 480.742 208.425 480.816 C 208.471 480.852 208.498 480.902 208.547 480.934 C 208.6 480.97 208.663 480.985 208.722 481.015 C 208.776 481.042 208.827 481.068 208.884 481.09 C 209.073 481.159 209.27 481.206 209.466 481.206 L 209.468 481.206 L 249.968 481.206 C 250.035 481.206 250.091 481.176 250.157 481.169 C 250.273 481.155 250.39 481.137 250.503 481.098 C 250.597 481.066 250.68 481.025 250.766 480.978 C 250.803 480.958 250.844 480.95 250.879 480.928 C 250.915 480.906 250.93 480.87 250.964 480.847 C 251.08 480.757 251.183 480.661 251.276 480.543 C 251.326 480.477 251.372 480.411 251.412 480.339 C 251.473 480.232 251.52 480.123 251.557 480.005 C 251.588 479.9 251.606 479.8 251.618 479.691 L 251.618 479.691 Z  M 226.836 471.371 C 226.856 471.343 226.871 471.316 226.89 471.285 L 234.779 459.029 L 246.881 477.833 L 222.676 477.833 L 226.836 471.371 Z  M 218.663 477.833 L 212.576 477.833 L 220.435 465.745 L 223.454 470.391 L 218.663 477.833 Z " fill="rgb(35,31,32)"/><path d=" M 195.939 513.252 C 198.73 513.252 201.002 510.98 201.002 508.189 C 201.002 505.398 198.73 503.127 195.939 503.127 C 193.148 503.127 190.877 505.398 190.877 508.189 C 190.877 510.98 193.148 513.252 195.939 513.252 Z  M 195.939 506.502 C 196.871 506.502 197.627 507.258 197.627 508.189 C 197.627 509.121 196.871 509.877 195.939 509.877 C 195.008 509.877 194.252 509.121 194.252 508.189 C 194.252 507.258 195.008 506.502 195.939 506.502 Z " fill="rgb(255,0,0)"/><path d=" M 219.568 506.502 L 206.064 506.502 C 205.131 506.502 204.377 507.256 204.377 508.189 C 204.377 509.122 205.131 509.877 206.064 509.877 L 219.568 509.877 C 220.501 509.877 221.255 509.122 221.255 508.189 C 221.255 507.256 220.501 506.502 219.568 506.502 Z " fill="rgb(35,31,32)"/><path d=" M 219.566 525.066 L 192.563 525.066 C 191.629 525.066 190.875 525.82 190.875 526.753 C 190.875 527.687 191.629 528.441 192.563 528.441 L 219.566 528.441 C 220.499 528.441 221.253 527.687 221.253 526.753 C 221.253 525.82 220.499 525.066 219.566 525.066 Z " fill="rgb(35,31,32)"/><path d=" M 219.566 530.128 L 192.563 530.128 C 191.629 530.128 190.875 530.883 190.875 531.816 C 190.875 532.749 191.629 533.503 192.563 533.503 L 219.566 533.503 C 220.499 533.503 221.253 532.749 221.253 531.816 C 221.253 530.883 220.499 530.128 219.566 530.128 Z " fill="rgb(35,31,32)"/><path d=" M 206.064 535.191 L 192.563 535.191 C 191.629 535.191 190.875 535.945 190.875 536.878 C 190.875 537.812 191.629 538.566 192.563 538.566 L 206.064 538.566 C 206.997 538.566 207.752 537.812 207.752 536.878 C 207.752 535.945 206.997 535.191 206.064 535.191 Z " fill="rgb(35,31,32)"/><path d=" M 241.497 528.441 L 263.432 528.441 C 264.366 528.441 265.12 527.687 265.12 526.753 C 265.12 525.82 264.366 525.066 263.432 525.066 L 241.497 525.066 C 240.563 525.066 239.809 525.82 239.809 526.753 C 239.809 527.687 240.563 528.441 241.497 528.441 Z " fill="rgb(35,31,32)"/><path d=" M 241.497 533.503 L 263.432 533.503 C 264.366 533.503 265.12 532.749 265.12 531.816 C 265.12 530.883 264.366 530.128 263.432 530.128 L 241.497 530.128 C 240.563 530.128 239.809 530.883 239.809 531.816 C 239.809 532.749 240.563 533.503 241.497 533.503 Z " fill="rgb(35,31,32)"/><path d=" M 263.444 535.191 L 241.497 535.191 C 240.563 535.191 239.809 535.945 239.809 536.878 C 239.809 537.812 240.563 538.566 241.497 538.566 L 263.444 538.566 C 264.377 538.566 265.132 537.812 265.132 536.878 C 265.132 535.945 264.377 535.191 263.444 535.191 Z " fill="rgb(35,31,32)"/><path d=" M 236.483 525.066 L 236.464 525.066 C 235.533 525.066 234.787 525.82 234.787 526.753 C 234.787 527.687 235.55 528.441 236.483 528.441 C 237.415 528.441 238.171 527.687 238.171 526.753 C 238.171 525.82 237.415 525.066 236.483 525.066 Z " fill="rgb(255,0,0)"/><path d=" M 236.483 530.128 L 236.464 530.128 C 235.533 530.128 234.787 530.883 234.787 531.816 C 234.787 532.749 235.55 533.503 236.483 533.503 C 237.415 533.503 238.171 532.749 238.171 531.816 C 238.171 530.883 237.415 530.128 236.483 530.128 Z " fill="rgb(255,0,0)"/><path d=" M 236.483 535.191 L 236.464 535.191 C 235.533 535.191 234.787 535.945 234.787 536.878 C 234.787 537.812 235.55 538.566 236.483 538.566 C 237.415 538.566 238.171 537.812 238.171 536.878 C 238.171 535.945 237.415 535.191 236.483 535.191 Z " fill="rgb(255,0,0)"/></g></svg>