<?xml version="1.0" encoding="UTF-8" standalone="no"?><!-- Generator: Gravit.io --><svg xmlns="http://www.w3.org/2000/svg" xmlns:xlink="http://www.w3.org/1999/xlink" style="isolation:isolate" viewBox="807.227 181 56.213 109" width="56.213pt" height="109pt"><g><path d=" M 807.342 283.758 C 807.378 283.853 807.428 283.933 807.477 284.019 C 807.538 284.124 807.596 284.225 807.678 284.317 C 807.739 284.385 807.813 284.436 807.884 284.494 C 807.985 284.574 808.082 284.649 808.199 284.705 C 808.281 284.744 808.369 284.763 808.456 284.79 C 808.552 284.819 808.633 284.868 808.734 284.88 L 853.019 289.99 C 853.087 289.997 853.15 290 853.214 290 L 853.216 290 C 853.439 290 853.652 289.952 853.85 289.872 C 853.925 289.842 853.983 289.789 854.051 289.75 C 854.165 289.685 854.279 289.622 854.374 289.532 C 854.441 289.47 854.483 289.394 854.539 289.322 C 854.614 289.225 854.689 289.135 854.74 289.022 C 854.781 288.936 854.798 288.844 854.826 288.748 C 854.851 288.661 854.895 288.583 854.906 288.493 C 854.909 288.459 854.895 288.43 854.897 288.396 C 854.899 288.36 854.918 288.333 854.918 288.297 L 854.918 284.884 L 861.737 284.884 C 862.679 284.884 863.44 284.123 863.44 283.181 L 863.44 182.703 C 863.44 181.763 862.679 181 861.737 181 L 808.93 181 C 808.848 181 808.78 181.036 808.702 181.046 C 808.586 181.063 808.473 181.075 808.366 181.114 C 808.257 181.153 808.163 181.211 808.066 181.269 C 807.979 181.322 807.893 181.37 807.818 181.438 C 807.726 181.518 807.656 181.61 807.584 181.707 C 807.525 181.787 807.465 181.86 807.419 181.95 C 807.366 182.058 807.339 182.17 807.308 182.289 C 807.29 182.364 807.247 182.429 807.237 182.509 C 807.233 182.543 807.247 182.574 807.245 182.606 C 807.245 182.64 807.227 182.669 807.227 182.703 L 807.227 283.181 C 807.227 283.264 807.262 283.336 807.273 283.416 C 807.29 283.533 807.303 283.649 807.342 283.758 L 807.342 283.758 Z  M 851.511 286.386 L 810.633 281.67 L 810.633 184.614 L 851.511 189.333 L 851.511 286.386 Z  M 854.87 187.577 C 854.853 187.465 854.841 187.356 854.803 187.25 C 854.768 187.145 854.71 187.055 854.654 186.959 C 854.597 186.867 854.546 186.777 854.476 186.697 C 854.402 186.614 854.315 186.55 854.228 186.484 C 854.143 186.419 854.061 186.355 853.966 186.307 C 853.862 186.256 853.751 186.23 853.639 186.2 C 853.557 186.177 853.49 186.135 853.409 186.125 L 838.527 184.406 L 860.034 184.406 L 860.034 281.478 L 854.918 281.478 L 854.918 187.816 C 854.918 187.732 854.882 187.659 854.87 187.577 Z " fill="rgb(35,31,32)"/><path d=" M 844.697 235.507 L 817.447 235.507 C 816.505 235.507 815.744 236.27 815.744 237.21 C 815.744 238.152 816.505 238.913 817.447 238.913 L 844.697 238.913 C 845.639 238.913 846.4 238.152 846.4 237.21 C 846.4 236.27 845.639 235.507 844.697 235.507 Z " fill="rgb(35,31,32)"/><path d=" M 844.697 240.616 L 817.447 240.616 C 816.505 240.616 815.744 241.377 815.744 242.319 C 815.744 243.261 816.505 244.022 817.447 244.022 L 844.697 244.022 C 845.639 244.022 846.4 243.261 846.4 242.319 C 846.4 241.377 845.639 240.616 844.697 240.616 Z " fill="rgb(35,31,32)"/><path d=" M 844.697 245.722 L 817.447 245.722 C 816.505 245.722 815.744 246.483 815.744 247.425 C 815.744 248.367 816.505 249.128 817.447 249.128 L 844.697 249.128 C 845.639 249.128 846.4 248.367 846.4 247.425 C 846.4 246.483 845.639 245.722 844.697 245.722 Z " fill="rgb(35,31,32)"/><path d=" M 839.583 250.832 L 822.562 250.832 C 821.62 250.832 820.858 251.593 820.858 252.535 C 820.858 253.476 821.62 254.238 822.562 254.238 L 839.583 254.238 C 840.524 254.238 841.286 253.476 841.286 252.535 C 841.286 251.593 840.524 250.832 839.583 250.832 Z " fill="rgb(35,31,32)"/><path d=" M 824.312 262.75 L 824.294 262.75 C 823.354 262.75 822.601 263.511 822.601 264.453 C 822.601 265.395 823.371 266.156 824.312 266.156 C 825.253 266.156 826.016 265.395 826.016 264.453 C 826.016 263.511 825.253 262.75 824.312 262.75 Z " fill="rgb(255,0,0)"/><path d=" M 831.125 262.75 L 831.106 262.75 C 830.166 262.75 829.413 263.511 829.413 264.453 C 829.413 265.395 830.183 266.156 831.125 266.156 C 832.065 266.156 832.828 265.395 832.828 264.453 C 832.828 263.511 832.065 262.75 831.125 262.75 Z " fill="rgb(255,0,0)"/><path d=" M 837.937 262.75 L 837.919 262.75 C 836.979 262.75 836.226 263.511 836.226 264.453 C 836.226 265.395 836.996 266.156 837.937 266.156 C 838.878 266.156 839.641 265.395 839.641 264.453 C 839.641 263.511 838.878 262.75 837.937 262.75 Z " fill="rgb(255,0,0)"/><path d=" M 824.782 215.112 C 824.679 215.132 824.585 215.177 824.483 215.216 C 824.375 215.258 824.268 215.299 824.168 215.366 C 824.14 215.384 824.108 215.388 824.081 215.407 C 824.014 215.456 823.979 215.527 823.922 215.584 C 823.863 215.643 823.79 215.679 823.738 215.749 L 816.078 225.968 C 816.039 226.022 816.028 226.085 815.994 226.141 C 815.935 226.244 815.882 226.344 815.843 226.458 C 815.807 226.571 815.788 226.681 815.775 226.799 C 815.768 226.865 815.737 226.921 815.737 226.989 C 815.737 227.03 815.758 227.064 815.761 227.104 C 815.77 227.223 815.797 227.334 815.831 227.449 C 815.86 227.552 815.885 227.65 815.933 227.742 C 815.979 227.836 816.044 227.918 816.11 228.003 C 816.182 228.098 816.252 228.187 816.343 228.263 C 816.374 228.291 816.388 228.326 816.422 228.352 C 816.493 228.406 816.575 228.43 816.652 228.471 C 816.716 228.505 816.773 228.544 816.841 228.57 C 817.035 228.643 817.236 228.691 817.442 228.691 L 817.444 228.691 L 824.265 228.691 L 827.662 228.691 L 844.702 228.691 L 844.704 228.691 C 844.908 228.691 845.109 228.643 845.305 228.57 C 845.373 228.544 845.429 228.505 845.494 228.471 C 845.571 228.43 845.653 228.405 845.726 228.35 C 845.76 228.325 845.773 228.289 845.804 228.262 C 845.894 228.185 845.964 228.097 846.036 228.001 C 846.1 227.916 846.165 227.836 846.213 227.741 C 846.259 227.647 846.286 227.546 846.317 227.444 C 846.349 227.332 846.376 227.223 846.385 227.104 C 846.388 227.063 846.409 227.029 846.409 226.988 C 846.409 226.918 846.376 226.86 846.37 226.792 C 846.356 226.678 846.339 226.569 846.303 226.458 C 846.266 226.344 846.211 226.244 846.152 226.141 C 846.118 226.083 846.109 226.02 846.068 225.966 L 835.844 212.341 C 835.795 212.274 835.723 212.239 835.665 212.181 C 835.609 212.123 835.572 212.05 835.504 212 C 835.475 211.98 835.442 211.976 835.413 211.958 C 835.315 211.891 835.211 211.852 835.102 211.81 C 835.001 211.77 834.908 211.724 834.802 211.706 C 834.696 211.685 834.592 211.69 834.485 211.689 C 834.374 211.689 834.267 211.684 834.158 211.706 C 834.056 211.726 833.962 211.769 833.864 211.808 C 833.755 211.85 833.649 211.891 833.548 211.956 C 833.52 211.976 833.485 211.98 833.456 212 C 833.387 212.053 833.349 212.126 833.29 212.186 C 833.235 212.242 833.165 212.276 833.116 212.341 L 828.516 218.477 L 826.469 215.745 C 826.416 215.676 826.341 215.638 826.281 215.579 C 826.227 215.522 826.191 215.453 826.126 215.405 C 826.099 215.384 826.068 215.383 826.041 215.366 C 825.935 215.296 825.826 215.253 825.712 215.209 C 825.619 215.173 825.53 215.131 825.433 215.11 C 825.321 215.088 825.21 215.093 825.096 215.093 C 824.987 215.097 824.885 215.091 824.782 215.112 L 824.782 215.112 Z  M 834.475 216.202 L 841.291 225.285 L 827.666 225.285 L 834.475 216.202 Z  M 823.41 225.285 L 820.845 225.285 L 825.101 219.606 L 826.385 221.316 L 823.41 225.285 Z " fill="rgb(35,31,32)"/><path d=" M 819.998 213.354 C 822.344 213.354 824.253 211.445 824.253 209.1 C 824.253 206.755 822.344 204.844 819.998 204.844 C 817.653 204.844 815.744 206.753 815.744 209.098 C 815.744 211.443 817.653 213.354 819.998 213.354 Z  M 819.998 208.25 C 820.465 208.25 820.847 208.632 820.847 209.098 C 820.847 209.565 820.465 209.946 819.998 209.946 C 819.532 209.946 819.15 209.565 819.15 209.098 C 819.15 208.632 819.532 208.25 819.998 208.25 Z " fill="rgb(255,0,0)"/></g></svg>