<?xml version="1.0" encoding="UTF-8" standalone="no"?><!-- Generator: Gravit.io --><svg xmlns="http://www.w3.org/2000/svg" xmlns:xlink="http://www.w3.org/1999/xlink" style="isolation:isolate" viewBox="174 175 108 108.096" width="108pt" height="108.096pt"><g><path d=" M 248.061 227.781 L 262.722 242.474 C 262.724 242.475 262.726 242.475 262.727 242.477 C 262.729 242.479 262.729 242.48 262.731 242.482 L 267.46 247.211 C 267.463 247.214 267.466 247.214 267.47 247.218 C 267.473 247.221 267.473 247.224 267.476 247.228 L 267.476 247.228 L 281.508 261.261 C 282.164 261.917 282.164 262.977 281.508 263.632 L 262.536 282.604 C 262.209 282.931 261.78 283.096 261.351 283.096 C 260.921 283.096 260.492 282.931 260.167 282.603 L 226.57 249.006 C 226.154 248.59 226.154 247.915 226.57 247.499 L 227.433 246.636 C 227.848 246.221 228.524 246.221 228.94 246.636 L 261.351 279.048 L 261.351 279.048 L 277.95 262.445 L 275.768 260.264 L 274.581 261.449 C 274.254 261.776 273.825 261.94 273.396 261.94 C 272.966 261.94 272.537 261.776 272.21 261.449 C 271.554 260.793 271.554 259.734 272.21 259.078 L 273.397 257.892 L 271.025 255.52 L 267.465 259.078 C 267.138 259.405 266.708 259.569 266.279 259.569 C 265.85 259.569 265.42 259.405 265.093 259.078 C 264.438 258.422 264.438 257.361 265.093 256.707 L 268.653 253.149 L 266.284 250.779 L 265.099 251.965 C 264.772 252.292 264.341 252.456 263.911 252.456 C 263.482 252.456 263.053 252.292 262.726 251.966 C 262.07 251.311 262.07 250.251 262.724 249.594 L 263.91 248.405 L 261.539 246.034 L 257.98 249.594 C 257.653 249.921 257.224 250.085 256.795 250.085 C 256.365 250.085 255.936 249.921 255.609 249.594 C 254.954 248.938 254.954 247.878 255.609 247.223 L 259.167 243.663 L 256.796 241.292 L 255.611 242.477 C 255.284 242.804 254.855 242.968 254.425 242.968 C 253.996 242.968 253.567 242.804 253.24 242.477 C 252.584 241.821 252.584 240.762 253.24 240.106 L 254.425 238.92 L 252.054 236.549 L 248.494 240.109 C 248.167 240.436 247.738 240.601 247.309 240.601 C 246.879 240.601 246.45 240.436 246.123 240.109 C 245.468 239.454 245.468 238.394 246.123 237.738 L 249.683 234.178 L 247.312 231.807 L 246.125 232.993 C 245.798 233.32 245.369 233.484 244.939 233.484 C 244.51 233.484 244.081 233.32 243.754 232.993 C 243.098 232.337 243.098 231.276 243.754 230.622 L 244.941 229.436 L 246.562 227.787 C 246.974 227.368 247.646 227.365 248.061 227.781 Z " fill="rgb(255,0,0)"/><path d=" M 229.314 208.939 L 214.622 194.278 C 214.62 194.276 214.62 194.274 214.619 194.273 C 214.617 194.271 214.615 194.271 214.614 194.269 L 209.885 189.54 C 209.881 189.537 209.881 189.534 209.878 189.53 C 209.875 189.527 209.871 189.527 209.868 189.524 L 209.868 189.524 L 195.834 175.492 C 195.179 174.836 194.119 174.836 193.463 175.492 L 174.491 194.464 C 174.164 194.791 174 195.22 174 195.649 C 174 196.079 174.164 196.508 174.493 196.833 L 208.09 230.43 C 208.506 230.846 209.181 230.846 209.597 230.43 L 210.459 229.567 C 210.875 229.152 210.875 228.476 210.459 228.06 L 178.048 195.649 L 178.048 195.649 L 194.651 179.05 L 196.832 181.232 L 195.647 182.419 C 195.32 182.746 195.155 183.175 195.155 183.604 C 195.155 184.034 195.32 184.463 195.647 184.79 C 196.302 185.446 197.362 185.446 198.018 184.79 L 199.203 183.603 L 201.576 185.975 L 198.018 189.535 C 197.691 189.862 197.526 190.292 197.526 190.721 C 197.526 191.15 197.691 191.58 198.018 191.907 C 198.673 192.562 199.735 192.562 200.389 191.907 L 203.947 188.347 L 206.316 190.716 L 205.131 191.901 C 204.804 192.228 204.64 192.659 204.64 193.089 C 204.64 193.518 204.804 193.947 205.129 194.274 C 205.785 194.93 206.845 194.93 207.502 194.276 L 208.691 193.09 L 211.062 195.461 L 207.502 199.02 C 207.175 199.347 207.011 199.776 207.011 200.205 C 207.011 200.635 207.175 201.064 207.502 201.391 C 208.158 202.046 209.217 202.046 209.873 201.391 L 213.433 197.833 L 215.804 200.204 L 214.619 201.389 C 214.292 201.716 214.127 202.145 214.127 202.575 C 214.127 203.004 214.292 203.433 214.619 203.76 C 215.274 204.416 216.334 204.416 216.99 203.76 L 218.175 202.575 L 220.546 204.946 L 216.986 208.506 C 216.659 208.833 216.495 209.262 216.495 209.691 C 216.495 210.121 216.659 210.55 216.986 210.877 C 217.642 211.532 218.702 211.532 219.357 210.877 L 222.917 207.317 L 225.288 209.688 L 224.103 210.875 C 223.776 211.202 223.612 211.631 223.612 212.061 C 223.612 212.49 223.776 212.919 224.103 213.246 C 224.759 213.902 225.82 213.902 226.474 213.246 L 227.659 212.059 L 229.309 210.438 C 229.728 210.026 229.731 209.354 229.314 208.939 Z " fill="rgb(255,0,0)"/><path d=" M 272.362 196.204 C 272.385 196.181 272.397 196.147 272.419 196.12 C 272.506 196.021 272.577 195.912 272.64 195.793 C 272.667 195.746 272.706 195.708 272.726 195.658 C 272.734 195.637 272.736 195.619 272.743 195.599 C 272.749 195.579 272.764 195.564 272.771 195.545 L 277.468 181.364 C 277.49 181.302 277.478 181.238 277.491 181.176 C 277.517 181.064 277.532 180.953 277.532 180.837 C 277.532 180.722 277.515 180.611 277.491 180.499 C 277.478 180.437 277.49 180.373 277.468 180.311 C 277.455 180.272 277.424 180.245 277.409 180.207 C 277.366 180.1 277.305 180.007 277.24 179.91 C 277.18 179.821 277.124 179.736 277.049 179.664 C 276.977 179.592 276.895 179.536 276.807 179.477 C 276.71 179.412 276.616 179.352 276.507 179.306 C 276.47 179.29 276.442 179.26 276.402 179.246 C 276.34 179.224 276.277 179.236 276.214 179.223 C 276.101 179.197 275.992 179.181 275.873 179.181 C 275.759 179.181 275.652 179.197 275.541 179.219 C 275.478 179.233 275.412 179.221 275.348 179.243 L 261.167 183.938 C 261.154 183.943 261.144 183.955 261.132 183.958 C 260.824 184.06 260.565 184.243 260.366 184.488 L 196.441 248.413 C 196.439 248.415 196.437 248.415 196.435 248.417 C 196.434 248.418 196.434 248.42 196.432 248.422 L 191.697 253.157 C 191.695 253.159 191.693 253.159 191.692 253.16 C 191.69 253.162 191.69 253.164 191.688 253.165 L 177.956 266.897 C 177.953 266.901 177.953 266.904 177.95 266.906 C 176.65 268.214 176.65 270.336 177.956 271.641 L 185.07 278.754 C 185.724 279.408 186.582 279.735 187.441 279.735 C 188.299 279.735 189.158 279.408 189.812 278.754 L 272.362 196.204 Z  M 207.107 256.719 L 199.994 249.605 L 259.972 189.626 L 259.972 195.017 C 259.972 195.944 260.721 196.694 261.649 196.694 L 267.134 196.694 L 207.107 256.719 L 207.107 256.719 Z  M 268.327 185.1 L 271.609 188.382 L 269.967 193.34 L 263.322 193.34 L 263.322 186.757 L 268.327 185.1 L 268.327 185.1 Z  M 272.791 184.818 L 271.892 183.921 L 273.236 183.477 L 272.791 184.818 L 272.791 184.818 Z  M 187.439 276.385 L 180.326 269.272 C 180.328 269.27 180.328 269.268 180.329 269.267 L 188.132 261.464 L 195.245 268.579 L 187.439 276.385 L 187.439 276.385 Z  M 197.616 266.208 L 190.503 259.093 L 192.877 256.719 C 193.204 257.046 193.632 257.21 194.061 257.21 C 194.49 257.21 194.92 257.046 195.247 256.719 C 195.902 256.063 195.902 255.005 195.247 254.349 L 197.621 251.977 L 204.734 259.09 L 202.362 261.463 C 201.706 260.807 200.646 260.807 199.99 261.463 C 199.335 262.118 199.335 263.178 199.99 263.834 L 197.616 266.208 L 197.616 266.208 Z " fill-rule="evenodd" fill="rgb(35,31,32)"/></g></svg>