<?xml version="1.0" encoding="UTF-8" standalone="no"?><!-- Generator: Gravit.io --><svg xmlns="http://www.w3.org/2000/svg" xmlns:xlink="http://www.w3.org/1999/xlink" style="isolation:isolate" viewBox="1078.712 439 121.242 108" width="121.242pt" height="108pt"><g><path d=" M 1080.607 546.989 L 1096.81 546.989 C 1096.838 546.991 1096.865 547 1096.893 547 C 1096.923 547 1096.95 546.991 1096.98 546.989 L 1103.271 546.989 C 1103.294 546.989 1103.317 546.998 1103.34 546.998 C 1103.364 546.998 1103.387 546.991 1103.412 546.989 L 1114.638 546.989 C 1114.663 546.991 1114.685 546.998 1114.71 546.998 C 1114.733 546.998 1114.755 546.989 1114.778 546.989 L 1132.805 546.989 C 1132.834 546.991 1132.86 547 1132.889 547 C 1132.919 547 1132.945 546.991 1132.976 546.989 L 1139.267 546.989 C 1139.29 546.989 1139.311 546.998 1139.335 546.998 C 1139.36 546.998 1139.383 546.991 1139.407 546.989 L 1150.633 546.989 C 1150.658 546.991 1150.681 546.998 1150.705 546.998 C 1150.73 546.998 1150.751 546.989 1150.774 546.989 L 1168.801 546.989 C 1168.829 546.991 1168.856 547 1168.884 547 C 1168.914 547 1168.941 546.991 1168.971 546.989 L 1175.263 546.989 C 1175.285 546.989 1175.308 546.998 1175.331 546.998 C 1175.355 546.998 1175.378 546.991 1175.403 546.989 L 1186.629 546.989 C 1186.654 546.991 1186.676 546.998 1186.701 546.998 C 1186.724 546.998 1186.746 546.989 1186.769 546.989 L 1198.06 546.989 C 1199.107 546.989 1199.954 546.142 1199.954 545.094 L 1199.954 444.683 C 1199.954 441.55 1197.404 439 1194.271 439 L 1084.396 439 C 1081.262 439 1078.712 441.55 1078.712 444.683 L 1078.712 545.094 C 1078.712 546.142 1079.559 546.989 1080.607 546.989 Z  M 1187.766 543.2 L 1182.643 534.656 C 1182.624 534.624 1182.594 534.609 1182.573 534.578 C 1182.518 534.495 1182.441 534.433 1182.372 534.359 C 1182.266 534.245 1182.166 534.137 1182.039 534.056 C 1182.018 534.042 1182.007 534.02 1181.988 534.008 C 1181.921 533.968 1181.849 533.966 1181.781 533.934 C 1181.647 533.874 1181.514 533.815 1181.37 533.788 C 1181.251 533.764 1181.135 533.769 1181.016 533.769 C 1180.897 533.769 1180.783 533.764 1180.662 533.788 C 1180.518 533.817 1180.385 533.874 1180.251 533.934 C 1180.182 533.966 1180.11 533.97 1180.044 534.008 C 1180.023 534.021 1180.012 534.044 1179.993 534.056 C 1179.868 534.137 1179.766 534.247 1179.66 534.359 C 1179.591 534.433 1179.514 534.495 1179.459 534.578 C 1179.438 534.609 1179.408 534.624 1179.389 534.656 L 1176.663 539.205 L 1175.071 536.552 C 1175.047 536.511 1175.005 536.488 1174.977 536.448 C 1174.941 536.399 1174.893 536.361 1174.855 536.314 C 1174.73 536.17 1174.6 536.037 1174.44 535.939 C 1174.425 535.929 1174.418 535.912 1174.401 535.903 C 1174.351 535.872 1174.295 535.87 1174.243 535.848 C 1174.094 535.776 1173.946 535.713 1173.783 535.683 C 1173.666 535.66 1173.556 535.664 1173.438 535.664 C 1173.319 535.664 1173.207 535.66 1173.09 535.683 C 1172.931 535.713 1172.787 535.776 1172.639 535.844 C 1172.584 535.87 1172.523 535.872 1172.47 535.903 C 1172.453 535.914 1172.444 535.931 1172.429 535.942 C 1172.275 536.039 1172.15 536.168 1172.027 536.308 C 1171.985 536.357 1171.932 536.399 1171.896 536.452 C 1171.868 536.492 1171.828 536.513 1171.803 536.554 L 1167.819 543.2 L 1162.064 543.2 L 1162.064 524.269 L 1188.586 524.269 L 1188.586 543.2 L 1187.766 543.2 Z  M 1172.235 543.2 L 1173.436 541.196 L 1174.452 542.889 L 1174.264 543.2 L 1172.235 543.2 Z  M 1181.016 539.309 L 1183.348 543.2 L 1178.682 543.2 L 1181.016 539.309 Z  M 1190.48 520.48 L 1160.17 520.48 C 1159.122 520.48 1158.275 521.327 1158.275 522.375 L 1158.275 543.2 L 1156.383 543.2 L 1156.383 522.375 C 1156.383 521.327 1155.536 520.48 1154.489 520.48 L 1124.178 520.48 C 1123.13 520.48 1122.284 521.327 1122.284 522.375 L 1122.284 543.2 L 1120.391 543.2 L 1120.391 522.375 C 1120.391 521.327 1119.544 520.48 1118.497 520.48 L 1088.186 520.48 C 1087.139 520.48 1086.292 521.327 1086.292 522.375 L 1086.292 543.2 L 1082.501 543.2 L 1082.501 450.366 L 1196.165 450.366 L 1196.165 543.2 L 1192.375 543.2 L 1192.375 522.375 C 1192.375 521.327 1191.528 520.48 1190.48 520.48 Z  M 1151.77 543.2 L 1146.648 534.656 C 1146.629 534.624 1146.598 534.609 1146.578 534.578 C 1146.523 534.495 1146.445 534.433 1146.377 534.359 C 1146.271 534.245 1146.17 534.137 1146.043 534.056 C 1146.022 534.042 1146.011 534.02 1145.992 534.008 C 1145.926 533.968 1145.852 533.965 1145.784 533.934 C 1145.649 533.874 1145.519 533.815 1145.375 533.788 C 1145.255 533.766 1145.142 533.769 1145.02 533.769 C 1144.899 533.769 1144.785 533.766 1144.666 533.788 C 1144.522 533.817 1144.391 533.874 1144.259 533.934 C 1144.189 533.965 1144.115 533.968 1144.049 534.008 C 1144.028 534.021 1144.016 534.044 1143.995 534.056 C 1143.872 534.137 1143.77 534.247 1143.664 534.357 C 1143.596 534.431 1143.518 534.495 1143.463 534.578 C 1143.442 534.609 1143.412 534.624 1143.393 534.656 L 1140.667 539.205 L 1139.076 536.552 C 1139.049 536.513 1139.009 536.488 1138.981 536.448 C 1138.945 536.399 1138.898 536.359 1138.858 536.314 C 1138.735 536.17 1138.604 536.037 1138.447 535.94 C 1138.43 535.929 1138.422 535.912 1138.407 535.903 C 1138.358 535.87 1138.299 535.87 1138.248 535.846 C 1138.098 535.776 1137.952 535.713 1137.789 535.683 C 1137.674 535.66 1137.562 535.664 1137.445 535.664 C 1137.325 535.664 1137.213 535.66 1137.096 535.683 C 1136.939 535.713 1136.797 535.774 1136.651 535.842 C 1136.594 535.868 1136.532 535.87 1136.477 535.903 C 1136.458 535.914 1136.45 535.933 1136.433 535.942 C 1136.281 536.037 1136.156 536.166 1136.037 536.302 C 1135.993 536.353 1135.939 536.397 1135.903 536.45 C 1135.874 536.49 1135.834 536.511 1135.81 536.552 L 1131.826 543.198 L 1126.073 543.198 L 1126.073 524.267 L 1152.594 524.267 L 1152.594 543.198 L 1151.77 543.198 L 1151.77 543.2 Z  M 1136.24 543.2 L 1137.441 541.196 L 1138.456 542.889 L 1138.269 543.2 L 1136.24 543.2 Z  M 1145.02 539.309 L 1147.352 543.2 L 1142.686 543.2 L 1145.02 539.309 Z  M 1115.775 543.2 L 1110.652 534.656 C 1110.633 534.624 1110.603 534.609 1110.582 534.578 C 1110.527 534.495 1110.449 534.433 1110.381 534.359 C 1110.275 534.245 1110.175 534.137 1110.048 534.056 C 1110.027 534.042 1110.016 534.02 1109.997 534.008 C 1109.93 533.968 1109.858 533.966 1109.79 533.934 C 1109.656 533.874 1109.523 533.815 1109.379 533.788 C 1109.26 533.764 1109.144 533.769 1109.025 533.769 C 1108.905 533.769 1108.792 533.764 1108.671 533.788 C 1108.527 533.817 1108.394 533.874 1108.259 533.934 C 1108.191 533.966 1108.119 533.97 1108.053 534.008 C 1108.032 534.021 1108.021 534.044 1108.002 534.056 C 1107.877 534.137 1107.774 534.247 1107.668 534.359 C 1107.6 534.433 1107.522 534.495 1107.468 534.578 C 1107.447 534.609 1107.416 534.624 1107.397 534.656 L 1104.671 539.205 L 1103.08 536.552 C 1103.055 536.511 1103.014 536.488 1102.985 536.448 C 1102.949 536.399 1102.902 536.361 1102.864 536.314 C 1102.739 536.17 1102.608 536.037 1102.449 535.939 C 1102.434 535.929 1102.427 535.912 1102.409 535.903 C 1102.36 535.872 1102.303 535.87 1102.252 535.848 C 1102.103 535.776 1101.955 535.713 1101.792 535.683 C 1101.674 535.66 1101.565 535.664 1101.447 535.664 C 1101.328 535.664 1101.216 535.66 1101.099 535.683 C 1100.939 535.713 1100.797 535.774 1100.651 535.842 C 1100.595 535.868 1100.532 535.87 1100.479 535.903 C 1100.46 535.914 1100.453 535.933 1100.436 535.942 C 1100.284 536.039 1100.159 536.168 1100.038 536.306 C 1099.996 536.355 1099.941 536.399 1099.905 536.452 C 1099.877 536.492 1099.837 536.513 1099.812 536.554 L 1095.828 543.2 L 1090.081 543.2 L 1090.081 524.269 L 1116.602 524.269 L 1116.602 543.2 L 1115.775 543.2 Z  M 1100.244 543.2 L 1101.445 541.196 L 1102.461 542.889 L 1102.273 543.2 L 1100.244 543.2 Z  M 1109.025 539.309 L 1111.357 543.2 L 1106.693 543.2 L 1109.025 539.309 Z  M 1084.396 442.789 L 1086.328 442.789 C 1085.282 442.789 1084.445 443.636 1084.445 444.683 C 1084.445 445.731 1085.301 446.578 1086.349 446.578 C 1087.394 446.578 1088.243 445.731 1088.243 444.683 C 1088.243 443.636 1087.394 442.789 1086.349 442.789 L 1092.009 442.789 C 1090.964 442.789 1090.126 443.636 1090.126 444.683 C 1090.126 445.731 1090.982 446.578 1092.03 446.578 C 1093.076 446.578 1093.924 445.731 1093.924 444.683 C 1093.924 443.636 1093.076 442.789 1092.03 442.789 L 1097.698 442.789 C 1096.652 442.789 1095.815 443.636 1095.815 444.683 C 1095.815 445.731 1096.671 446.578 1097.719 446.578 C 1098.765 446.578 1099.613 445.731 1099.613 444.683 C 1099.613 443.636 1098.765 442.789 1097.719 442.789 L 1194.271 442.789 C 1195.317 442.789 1196.165 443.638 1196.165 444.683 L 1196.165 446.578 L 1097.717 446.578 L 1092.028 446.578 L 1086.347 446.578 L 1082.501 446.578 L 1082.501 444.683 C 1082.501 443.638 1083.35 442.789 1084.396 442.789 Z " fill="rgb(35,31,32)"/><path d=" M 1160.172 475.001 L 1190.48 475.001 C 1191.528 475.001 1192.375 474.154 1192.375 473.107 C 1192.375 472.059 1191.528 471.212 1190.48 471.212 L 1160.172 471.212 C 1159.124 471.212 1158.277 472.059 1158.277 473.107 C 1158.277 474.154 1159.124 475.001 1160.172 475.001 Z " fill="rgb(35,31,32)"/><path d=" M 1160.172 469.318 L 1190.48 469.318 C 1191.528 469.318 1192.375 468.471 1192.375 467.424 C 1192.375 466.376 1191.528 465.529 1190.48 465.529 L 1160.172 465.529 C 1159.124 465.529 1158.277 466.376 1158.277 467.424 C 1158.277 468.471 1159.124 469.318 1160.172 469.318 Z " fill="rgb(255,0,0)"/><path d=" M 1160.172 480.684 L 1175.31 480.684 C 1176.358 480.684 1177.204 479.838 1177.204 478.79 C 1177.204 477.742 1176.358 476.896 1175.31 476.896 L 1160.172 476.896 C 1159.124 476.896 1158.277 477.742 1158.277 478.79 C 1158.277 479.838 1159.124 480.684 1160.172 480.684 Z " fill="rgb(35,31,32)"/><path d=" M 1160.172 490.153 L 1175.31 490.153 C 1176.358 490.153 1177.204 489.306 1177.204 488.258 C 1177.204 487.211 1176.358 486.364 1175.31 486.364 L 1160.172 486.364 C 1159.124 486.364 1158.277 487.211 1158.277 488.258 C 1158.277 489.306 1159.124 490.153 1160.172 490.153 Z " fill="rgb(35,31,32)"/><path d=" M 1192.377 497.727 C 1192.377 496.679 1191.53 495.832 1190.482 495.832 L 1160.172 495.832 C 1159.124 495.832 1158.277 496.679 1158.277 497.727 L 1158.277 503.41 C 1158.277 504.457 1159.124 505.304 1160.172 505.304 L 1190.482 505.304 C 1191.53 505.304 1192.377 504.457 1192.377 503.41 L 1192.377 497.727 Z  M 1188.588 501.515 L 1162.066 501.515 L 1162.066 499.621 L 1188.588 499.621 L 1188.588 501.515 Z " fill="rgb(35,31,32)"/><path d=" M 1184.799 486.368 C 1184.799 485.32 1183.952 484.473 1182.905 484.473 L 1181.012 484.473 C 1180.989 484.473 1180.972 484.485 1180.952 484.487 C 1180.832 484.49 1180.717 484.53 1180.595 484.557 C 1180.468 484.587 1180.336 484.604 1180.22 484.659 C 1180.203 484.667 1180.182 484.665 1180.165 484.674 C 1180.08 484.716 1180.027 484.79 1179.953 484.841 C 1179.838 484.92 1179.724 484.99 1179.631 485.093 C 1179.548 485.182 1179.495 485.288 1179.43 485.39 C 1179.368 485.494 1179.298 485.587 1179.254 485.703 C 1179.205 485.832 1179.193 485.968 1179.173 486.104 C 1179.159 486.195 1179.12 486.275 1179.12 486.37 C 1179.12 486.39 1179.131 486.407 1179.131 486.426 C 1179.135 486.551 1179.176 486.673 1179.207 486.798 C 1179.237 486.921 1179.25 487.046 1179.305 487.158 C 1179.313 487.177 1179.311 487.197 1179.32 487.214 L 1180.006 488.59 C 1179.485 488.927 1179.12 489.486 1179.12 490.153 C 1179.12 491.2 1179.966 492.047 1181.014 492.047 L 1182.905 492.047 L 1182.907 492.047 C 1182.91 492.047 1182.914 492.045 1182.918 492.045 C 1183.198 492.043 1183.46 491.971 1183.7 491.86 C 1183.717 491.85 1183.736 491.856 1183.751 491.846 C 1183.837 491.805 1183.89 491.731 1183.966 491.68 C 1184.079 491.6 1184.193 491.53 1184.286 491.428 C 1184.369 491.339 1184.422 491.233 1184.486 491.13 C 1184.549 491.026 1184.619 490.933 1184.665 490.816 C 1184.712 490.689 1184.723 490.552 1184.744 490.416 C 1184.757 490.325 1184.797 490.246 1184.797 490.151 C 1184.797 490.13 1184.786 490.113 1184.786 490.094 C 1184.782 489.969 1184.74 489.848 1184.71 489.725 C 1184.68 489.601 1184.666 489.475 1184.611 489.361 C 1184.604 489.344 1184.606 489.323 1184.596 489.306 L 1183.911 487.931 C 1184.433 487.593 1184.799 487.036 1184.799 486.368 L 1184.799 486.368 Z " fill="rgb(255,0,0)"/><path d=" M 1154.489 454.153 L 1088.186 454.153 C 1087.139 454.153 1086.292 455 1086.292 456.048 L 1086.292 514.776 C 1086.292 515.824 1087.139 516.671 1088.186 516.671 L 1154.489 516.671 C 1155.536 516.671 1156.383 515.824 1156.383 514.776 L 1156.383 456.048 C 1156.383 455 1155.536 454.153 1154.489 454.153 Z  M 1152.594 512.882 L 1090.081 512.882 L 1090.081 457.942 L 1152.594 457.942 L 1152.594 512.882 Z " fill="rgb(35,31,32)"/><path d=" M 1101.477 499.816 C 1101.491 499.958 1101.517 500.093 1101.561 500.229 C 1101.597 500.335 1101.633 500.43 1101.682 500.526 C 1101.743 500.642 1101.813 500.741 1101.896 500.843 C 1101.974 500.938 1102.055 501.021 1102.152 501.099 C 1102.201 501.14 1102.23 501.197 1102.284 501.233 C 1102.353 501.277 1102.428 501.297 1102.499 501.335 C 1102.559 501.366 1102.616 501.394 1102.679 501.419 C 1102.893 501.498 1103.112 501.551 1103.334 501.551 L 1103.338 501.551 L 1103.34 501.551 L 1143.13 501.551 L 1143.132 501.551 C 1143.351 501.551 1143.569 501.5 1143.783 501.421 C 1143.851 501.394 1143.912 501.362 1143.978 501.328 C 1144.047 501.294 1144.117 501.277 1144.181 501.233 C 1144.232 501.197 1144.261 501.144 1144.306 501.108 C 1144.41 501.023 1144.499 500.934 1144.581 500.831 C 1144.657 500.737 1144.721 500.644 1144.778 500.542 C 1144.835 500.436 1144.878 500.329 1144.914 500.212 C 1144.952 500.087 1144.977 499.966 1144.99 499.835 C 1144.996 499.774 1145.026 499.719 1145.026 499.657 C 1145.026 499.598 1144.998 499.545 1144.992 499.488 C 1144.981 499.361 1144.952 499.242 1144.916 499.119 C 1144.878 498.994 1144.833 498.876 1144.772 498.763 C 1144.744 498.712 1144.74 498.653 1144.708 498.606 L 1129.558 475.869 C 1129.263 475.428 1128.814 475.151 1128.331 475.062 C 1128.211 475.037 1128.094 475.06 1127.974 475.06 C 1127.855 475.06 1127.738 475.037 1127.618 475.062 C 1127.133 475.151 1126.686 475.426 1126.393 475.869 L 1119.444 486.298 L 1116.284 481.552 C 1115.99 481.111 1115.542 480.836 1115.06 480.745 C 1114.941 480.72 1114.822 480.743 1114.702 480.743 C 1114.583 480.743 1114.464 480.72 1114.346 480.745 C 1113.863 480.836 1113.418 481.109 1113.122 481.552 L 1101.76 498.606 C 1101.724 498.659 1101.72 498.721 1101.69 498.776 C 1101.635 498.88 1101.593 498.984 1101.559 499.1 C 1101.517 499.234 1101.487 499.367 1101.476 499.507 C 1101.472 499.558 1101.445 499.602 1101.445 499.657 C 1101.445 499.714 1101.474 499.759 1101.477 499.816 L 1101.477 499.816 Z  M 1127.974 480.328 L 1139.591 497.763 L 1116.36 497.763 L 1127.974 480.328 Z  M 1111.808 497.763 L 1106.875 497.763 L 1114.702 486.013 L 1117.169 489.715 L 1111.808 497.763 Z " fill="rgb(35,31,32)"/><path d=" M 1109.029 476.918 C 1112.162 476.918 1114.712 474.369 1114.712 471.235 C 1114.712 468.102 1112.162 465.552 1109.029 465.552 C 1105.895 465.552 1103.345 468.102 1103.345 471.235 C 1103.345 474.369 1105.895 476.918 1109.029 476.918 Z  M 1109.029 469.341 C 1110.074 469.341 1110.923 470.189 1110.923 471.235 C 1110.923 472.281 1110.074 473.13 1109.029 473.13 C 1107.983 473.13 1107.134 472.281 1107.134 471.235 C 1107.134 470.189 1107.983 469.341 1109.029 469.341 Z " fill="rgb(255,0,0)"/><path d=" M 1095.813 528.048 L 1095.794 528.048 C 1094.749 528.048 1093.911 528.895 1093.911 529.943 C 1093.911 530.99 1094.767 531.837 1095.815 531.837 C 1096.861 531.837 1097.709 530.99 1097.709 529.943 C 1097.709 528.895 1096.859 528.048 1095.813 528.048 Z " fill="rgb(255,0,0)"/><path d=" M 1131.809 528.048 L 1131.788 528.048 C 1130.742 528.048 1129.905 528.895 1129.905 529.943 C 1129.905 530.99 1130.761 531.837 1131.809 531.837 C 1132.854 531.837 1133.703 530.99 1133.703 529.943 C 1133.703 528.895 1132.854 528.048 1131.809 528.048 Z " fill="rgb(255,0,0)"/><path d=" M 1167.804 528.048 L 1167.784 528.048 C 1166.738 528.048 1165.9 528.895 1165.9 529.943 C 1165.9 530.99 1166.757 531.837 1167.804 531.837 C 1168.85 531.837 1169.699 530.99 1169.699 529.943 C 1169.699 528.895 1168.85 528.048 1167.804 528.048 Z " fill="rgb(255,0,0)"/></g></svg>