<?xml version="1.0" encoding="UTF-8" standalone="no"?><!-- Generator: Gravit.io --><svg xmlns="http://www.w3.org/2000/svg" xmlns:xlink="http://www.w3.org/1999/xlink" style="isolation:isolate" viewBox="503.625 175 60.75 108" width="60.75pt" height="108pt"><g><path d=" M 528.988 183.438 C 529.92 183.438 530.676 182.683 530.676 181.75 C 530.676 180.817 529.92 180.063 528.988 180.063 L 528.971 180.063 C 528.04 180.063 527.294 180.817 527.294 181.75 C 527.294 182.683 528.057 183.438 528.988 183.438 Z " fill="rgb(0,0,0)"/><path d=" M 534 183.438 L 539.063 183.438 C 539.996 183.438 540.75 182.683 540.75 181.75 C 540.75 180.817 539.996 180.063 539.063 180.063 L 534 180.063 C 533.067 180.063 532.313 180.817 532.313 181.75 C 532.313 182.683 533.067 183.438 534 183.438 Z " fill="rgb(0,0,0)"/><path d=" M 554.272 175.005 C 554.265 175.005 554.258 175 554.25 175 L 513.75 175 C 508.166 175 503.625 179.541 503.625 185.125 L 503.625 271.188 C 503.625 277.7 508.925 283 515.438 283 L 552.563 283 C 559.075 283 564.375 277.7 564.375 271.188 L 564.375 185.128 C 564.375 179.551 559.844 175.017 554.272 175.005 Z  M 513.75 178.375 L 554.233 178.375 C 554.24 178.375 554.243 178.378 554.25 178.378 C 557.973 178.378 561 181.406 561 185.128 L 507 185.128 L 507 185.125 C 507 181.402 510.027 178.375 513.75 178.375 Z  M 552.563 272.875 L 534 272.875 L 515.438 272.875 C 510.785 272.875 507 269.09 507 264.438 L 507 262.75 L 534 262.75 L 561 262.75 L 561 264.438 C 561 269.09 557.215 272.875 552.563 272.875 Z  M 507 188.503 L 561 188.503 L 561 259.375 L 507 259.375 L 507 188.503 Z  M 552.563 279.625 L 515.438 279.625 C 511.357 279.625 507.948 276.712 507.169 272.858 C 509.302 274.952 512.221 276.25 515.438 276.25 L 552.563 276.25 C 555.779 276.25 558.698 274.952 560.831 272.858 C 560.052 276.712 556.643 279.625 552.563 279.625 Z " fill="rgb(35,31,32)"/><path d=" M 538.45 267.813 C 538.45 265.359 536.453 263.363 534 263.363 C 531.547 263.363 529.55 265.359 529.55 267.813 C 529.55 270.266 531.547 272.262 534 272.262 C 536.453 272.262 538.45 270.266 538.45 267.813 Z  M 534 269.296 C 533.181 269.296 532.517 268.631 532.517 267.813 C 532.517 266.994 533.181 266.329 534 266.329 C 534.819 266.329 535.483 266.994 535.483 267.813 C 535.483 268.631 534.819 269.296 534 269.296 Z " fill="rgb(35,31,32)"/><path d=" M 549.188 200.309 L 518.813 200.309 C 514.16 200.309 510.375 204.094 510.375 208.747 L 510.375 239.122 C 510.375 243.774 514.16 247.559 518.813 247.559 L 549.188 247.559 C 553.84 247.559 557.625 243.774 557.625 239.122 L 557.625 208.747 C 557.625 204.094 553.84 200.309 549.188 200.309 Z  M 554.25 239.122 C 554.25 241.913 551.979 244.184 549.188 244.184 L 518.813 244.184 C 516.021 244.184 513.75 241.913 513.75 239.122 L 513.75 208.747 C 513.75 205.955 516.021 203.684 518.813 203.684 L 549.188 203.684 C 551.979 203.684 554.25 205.955 554.25 208.747 L 554.25 239.122 Z " fill="rgb(35,31,32)"/><path d=" M 550.835 233.877 C 550.821 233.764 550.804 233.656 550.769 233.546 C 550.732 233.435 550.678 233.334 550.618 233.232 C 550.585 233.177 550.576 233.112 550.536 233.057 L 540.406 219.557 C 540.355 219.488 540.281 219.45 540.222 219.393 C 540.168 219.337 540.132 219.268 540.068 219.219 C 540.041 219.199 540.011 219.196 539.982 219.179 C 539.881 219.111 539.773 219.071 539.662 219.027 C 539.565 218.99 539.476 218.946 539.376 218.927 C 539.27 218.905 539.169 218.91 539.061 218.91 C 538.951 218.91 538.843 218.905 538.733 218.927 C 538.636 218.948 538.546 218.988 538.45 219.027 C 538.34 219.069 538.234 219.111 538.133 219.177 C 538.102 219.197 538.07 219.199 538.042 219.219 C 537.972 219.27 537.935 219.344 537.876 219.403 C 537.822 219.457 537.753 219.493 537.704 219.557 L 533.146 225.638 L 531.118 222.932 C 531.065 222.863 530.991 222.825 530.932 222.765 C 530.876 222.711 530.843 222.642 530.779 222.593 C 530.753 222.572 530.723 222.571 530.696 222.554 C 530.59 222.483 530.477 222.439 530.358 222.393 C 530.269 222.36 530.186 222.319 530.095 222.301 C 529.98 222.277 529.867 222.282 529.751 222.284 C 529.648 222.284 529.552 222.279 529.452 222.299 C 529.349 222.319 529.256 222.361 529.157 222.402 C 529.047 222.444 528.941 222.486 528.84 222.554 C 528.813 222.571 528.782 222.574 528.755 222.593 C 528.691 222.64 528.656 222.709 528.602 222.765 C 528.541 222.824 528.467 222.863 528.416 222.932 L 520.826 233.057 C 520.787 233.109 520.777 233.172 520.743 233.229 C 520.684 233.33 520.632 233.43 520.593 233.544 C 520.557 233.654 520.539 233.766 520.525 233.88 C 520.519 233.944 520.488 234.002 520.488 234.069 C 520.488 234.11 520.508 234.144 520.512 234.182 C 520.52 234.3 520.547 234.41 520.581 234.523 C 520.61 234.626 520.635 234.722 520.684 234.817 C 520.728 234.908 520.79 234.987 520.854 235.068 C 520.927 235.166 520.999 235.254 521.091 235.333 C 521.121 235.359 521.134 235.394 521.167 235.418 C 521.236 235.47 521.315 235.493 521.389 235.534 C 521.455 235.569 521.513 235.608 521.583 235.635 C 521.776 235.71 521.975 235.755 522.177 235.755 L 522.179 235.755 L 528.938 235.755 L 532.304 235.755 L 549.188 235.755 L 549.189 235.755 C 549.39 235.755 549.589 235.71 549.783 235.635 C 549.852 235.608 549.91 235.571 549.974 235.536 C 550.05 235.495 550.131 235.47 550.202 235.418 C 550.235 235.392 550.249 235.357 550.279 235.33 C 550.369 235.254 550.438 235.164 550.509 235.073 C 550.573 234.989 550.637 234.908 550.684 234.815 C 550.73 234.722 550.757 234.624 550.787 234.521 C 550.819 234.41 550.846 234.3 550.855 234.184 C 550.858 234.145 550.878 234.11 550.878 234.069 C 550.873 234.002 550.841 233.944 550.835 233.877 Z  M 532.309 232.383 L 539.056 223.384 L 545.809 232.383 L 532.309 232.383 Z  M 528.092 232.383 L 525.551 232.383 L 529.769 226.757 L 531.04 228.452 L 528.092 232.383 Z " fill="rgb(35,31,32)"/><path d=" M 524.712 220.561 C 527.036 220.561 528.927 218.669 528.927 216.345 C 528.927 214.022 527.036 212.13 524.712 212.13 C 522.388 212.13 520.497 214.022 520.497 216.345 C 520.497 218.669 522.388 220.561 524.712 220.561 Z  M 524.712 215.505 C 525.174 215.505 525.552 215.883 525.552 216.345 C 525.552 216.808 525.174 217.186 524.712 217.186 C 524.25 217.186 523.872 216.808 523.872 216.345 C 523.872 215.883 524.25 215.505 524.712 215.505 Z " fill="rgb(255,0,0)"/></g></svg>