<?xml version="1.0" encoding="UTF-8" standalone="no"?><!-- Generator: Gravit.io --><svg xmlns="http://www.w3.org/2000/svg" xmlns:xlink="http://www.w3.org/1999/xlink" style="isolation:isolate" viewBox="451.246 438.5 165.509 109" width="165.509pt" height="109pt"><g><path d=" M 613.684 439 L 551.983 439 L 544.272 439 C 542.85 439 541.701 440.149 541.701 441.57 L 541.701 536.718 L 541.701 544.43 C 541.701 545.851 542.85 547 544.272 547 L 613.684 547 C 615.105 547 616.254 545.851 616.254 544.43 L 616.254 536.718 L 616.254 441.57 C 616.254 440.149 615.105 439 613.684 439 Z  M 546.842 539.289 L 551.983 539.289 L 603.402 539.289 L 603.402 541.859 L 546.842 541.859 L 546.842 539.289 Z  M 554.553 534.148 L 554.553 444.141 L 611.113 444.141 L 611.113 534.148 L 554.553 534.148 Z  M 608.543 539.289 L 611.113 539.289 L 611.113 541.859 L 608.543 541.859 L 608.543 539.289 Z  M 546.842 444.141 L 549.412 444.141 L 549.412 534.148 L 546.842 534.148 L 546.842 444.141 Z " fill="rgb(35,31,32)" vector-effect="non-scaling-stroke" stroke-width="1" stroke="rgb(255,255,255)" stroke-linejoin="miter" stroke-linecap="butt" stroke-miterlimit="4"/><path d=" M 454.316 477.557 L 513.431 477.557 C 514.853 477.557 516.002 476.408 516.002 474.986 L 516.002 441.57 C 516.002 440.149 514.853 439 513.431 439 L 454.316 439 C 452.895 439 451.746 440.149 451.746 441.57 L 451.746 474.986 C 451.746 476.408 452.895 477.557 454.316 477.557 Z  M 456.887 444.141 L 483.879 444.141 L 510.861 444.141 L 510.861 472.416 L 483.879 472.416 L 456.887 472.416 L 456.887 444.141 Z " fill="rgb(35,31,32)" vector-effect="non-scaling-stroke" stroke-width="1" stroke="rgb(255,255,255)" stroke-linejoin="miter" stroke-linecap="butt" stroke-miterlimit="4"/><path d=" M 454.316 521.254 L 513.431 521.254 C 514.853 521.254 516.002 520.105 516.002 518.684 L 516.002 485.268 C 516.002 483.847 514.853 482.698 513.431 482.698 L 454.316 482.698 C 452.895 482.698 451.746 483.847 451.746 485.268 L 451.746 518.684 C 451.746 520.105 452.895 521.254 454.316 521.254 Z  M 456.887 487.839 L 510.861 487.839 L 510.861 516.113 L 456.887 516.113 L 456.887 487.839 Z " fill="rgb(35,31,32)" vector-effect="non-scaling-stroke" stroke-width="1" stroke="rgb(255,255,255)" stroke-linejoin="miter" stroke-linecap="butt" stroke-miterlimit="4"/><path d=" M 534.005 546.969 C 535.427 546.969 536.576 545.82 536.576 544.399 L 536.576 451.863 C 536.576 451.85 536.568 451.837 536.565 451.824 C 536.563 451.472 536.475 451.127 536.324 450.801 C 536.311 450.773 536.316 450.742 536.303 450.714 L 531.16 440.421 C 530.291 438.679 527.43 438.679 526.561 440.421 L 521.42 450.714 C 521.405 450.742 521.413 450.773 521.4 450.804 C 521.243 451.14 521.148 451.5 521.148 451.863 L 521.148 544.399 C 521.148 545.82 522.297 546.969 523.718 546.969 L 534.005 546.969 Z  M 527.042 458.816 C 527.543 459.317 528.201 459.569 528.859 459.569 C 529.517 459.569 530.175 459.317 530.676 458.816 L 531.435 458.057 L 531.435 516.119 L 526.291 516.119 L 526.291 458.065 L 527.042 458.816 Z  M 526.291 523.83 L 526.291 521.26 L 531.435 521.26 L 531.435 523.83 L 531.432 523.83 C 530.011 523.83 528.862 524.979 528.862 526.4 C 528.862 527.822 530.011 528.971 531.432 528.971 L 531.435 528.971 L 531.435 531.546 L 526.291 531.546 L 526.291 528.971 C 527.713 528.971 528.862 527.822 528.862 526.4 C 528.862 524.979 527.713 523.83 526.291 523.83 Z  M 526.291 541.828 L 526.291 536.687 L 531.435 536.687 L 531.435 541.828 L 526.291 541.828 Z  M 528.862 447.321 L 530.874 451.348 L 528.859 453.364 L 526.849 451.356 L 528.862 447.321 Z " fill="rgb(35,31,32)" vector-effect="non-scaling-stroke" stroke-width="1" stroke="rgb(255,255,255)" stroke-linejoin="miter" stroke-linecap="butt" stroke-miterlimit="4"/><path d=" M 461.678 546.928 C 461.796 546.946 461.904 547 462.027 547 L 482.581 547 C 484.002 547 485.151 545.851 485.151 544.43 L 485.151 544.388 L 492.863 544.388 C 494.284 544.388 495.433 543.239 495.433 541.818 L 495.433 531.536 C 495.433 530.115 494.284 528.966 492.863 528.966 L 485.151 528.966 C 485.146 527.547 484 526.4 482.581 526.4 L 462.027 526.4 C 456.357 526.4 451.746 531.012 451.746 536.682 C 451.746 542.232 456.175 546.74 461.678 546.928 Z  M 485.151 534.107 L 490.292 534.107 L 490.292 539.248 L 485.151 539.248 L 485.151 534.107 Z  M 462.027 531.541 L 480.01 531.541 L 480.01 541.859 L 462.2 541.859 C 462.141 541.854 462.089 541.823 462.027 541.823 C 459.192 541.823 456.887 539.517 456.887 536.682 C 456.887 533.847 459.192 531.541 462.027 531.541 Z " fill="rgb(35,31,32)" vector-effect="non-scaling-stroke" stroke-width="1" stroke="rgb(255,255,255)" stroke-linejoin="miter" stroke-linecap="butt" stroke-miterlimit="4"/><path d=" M 505.728 526.395 L 500.582 526.395 C 499.16 526.395 498.011 527.544 498.011 528.966 L 498.011 544.388 C 498.011 545.81 499.16 546.959 500.582 546.959 L 505.728 546.959 C 511.398 546.959 516.009 542.347 516.009 536.677 C 516.009 531.007 511.398 526.395 505.728 526.395 Z  M 505.728 541.818 L 503.152 541.818 L 503.152 531.536 L 505.728 531.536 C 508.563 531.536 510.869 533.842 510.869 536.677 C 510.869 539.512 508.563 541.818 505.728 541.818 Z " fill="rgb(255,0,0)" vector-effect="non-scaling-stroke" stroke-width="1" stroke="rgb(255,255,255)" stroke-linejoin="miter" stroke-linecap="butt" stroke-miterlimit="4"/><mask id="_mask_W7sfkS0vYqExOAVnrcbShjEe7NdxWJIH" x="-200%" y="-200%" width="400%" height="400%"><rect x="-200%" y="-200%" width="400%" height="400%" style="fill:white;"/><path d=" M 480.1 456.993 C 481.519 456.993 482.671 455.844 482.671 454.423 C 482.671 453.001 481.519 451.852 480.1 451.852 L 480.072 451.852 C 478.653 451.852 477.517 453.001 477.517 454.423 C 477.517 455.844 478.681 456.993 480.1 456.993 Z " fill="black" stroke="none"/></mask><path d=" M 480.1 456.993 C 481.519 456.993 482.671 455.844 482.671 454.423 C 482.671 453.001 481.519 451.852 480.1 451.852 L 480.072 451.852 C 478.653 451.852 477.517 453.001 477.517 454.423 C 477.517 455.844 478.681 456.993 480.1 456.993 Z " fill="rgb(35,31,32)" mask="url(#_mask_W7sfkS0vYqExOAVnrcbShjEe7NdxWJIH)" vector-effect="non-scaling-stroke" stroke-width="2" stroke="rgb(255,255,255)" stroke-linejoin="miter" stroke-linecap="butt" stroke-miterlimit="4"/><path d=" M 480.1 456.993 C 481.519 456.993 482.671 455.844 482.671 454.423 C 482.671 453.001 481.519 451.852 480.1 451.852 L 480.072 451.852 C 478.653 451.852 477.517 453.001 477.517 454.423 C 477.517 455.844 478.681 456.993 480.1 456.993 Z " fill="rgb(35,31,32)"/><path d=" M 469.741 458.278 C 469.741 466.072 476.085 472.416 483.879 472.416 C 488.77 472.416 493.091 469.912 495.631 466.123 C 495.687 466.039 495.741 465.956 495.79 465.861 C 497.194 463.666 498.016 461.07 498.016 458.278 C 498.016 450.485 491.672 444.141 483.879 444.141 C 476.085 444.141 469.741 450.485 469.741 458.278 Z  M 483.879 467.275 C 483.676 467.275 483.483 467.226 483.282 467.216 L 487.737 461.276 L 490.248 464.625 C 488.619 466.262 486.364 467.275 483.879 467.275 Z  M 483.879 449.282 C 488.84 449.282 492.875 453.317 492.875 458.278 C 492.875 458.664 492.809 459.034 492.76 459.409 L 489.793 455.451 C 489.719 455.348 489.608 455.294 489.521 455.207 C 489.436 455.119 489.38 455.011 489.279 454.937 C 489.238 454.906 489.189 454.901 489.148 454.875 C 488.991 454.772 488.827 454.708 488.655 454.639 C 488.511 454.585 488.377 454.52 488.231 454.492 C 488.063 454.456 487.899 454.464 487.729 454.464 C 487.567 454.466 487.413 454.459 487.251 454.49 C 487.097 454.52 486.961 454.585 486.812 454.644 C 486.645 454.708 486.48 454.772 486.328 454.875 C 486.287 454.903 486.238 454.909 486.197 454.937 C 486.097 455.011 486.041 455.119 485.956 455.207 C 485.868 455.294 485.758 455.348 485.683 455.451 L 478.309 465.283 C 476.237 463.633 474.885 461.124 474.885 458.276 C 474.882 453.32 478.918 449.282 483.879 449.282 Z " fill="rgb(255,0,0)" vector-effect="non-scaling-stroke" stroke-width="1" stroke="rgb(255,255,255)" stroke-linejoin="miter" stroke-linecap="butt" stroke-miterlimit="4"/><mask id="_mask_60MpdOsXd1ldI8GsmC0xwAgfa7sKZce5" x="-200%" y="-200%" width="400%" height="400%"><rect x="-200%" y="-200%" width="400%" height="400%" style="fill:white;"/><path d=" M 498.346 495.55 L 469.411 495.55 C 468.181 495.55 467.186 496.544 467.186 497.775 C 467.186 499.005 468.181 500 469.411 500 L 498.346 500 C 499.577 500 500.571 499.005 500.571 497.775 C 500.571 496.544 499.577 495.55 498.346 495.55 Z " fill="black" stroke="none"/></mask><path d=" M 498.346 495.55 L 469.411 495.55 C 468.181 495.55 467.186 496.544 467.186 497.775 C 467.186 499.005 468.181 500 469.411 500 L 498.346 500 C 499.577 500 500.571 499.005 500.571 497.775 C 500.571 496.544 499.577 495.55 498.346 495.55 Z " fill="rgb(255,0,0)" mask="url(#_mask_60MpdOsXd1ldI8GsmC0xwAgfa7sKZce5)" vector-effect="non-scaling-stroke" stroke-width="4" stroke="rgb(255,255,255)" stroke-linejoin="miter" stroke-linecap="butt" stroke-miterlimit="4"/><path d=" M 498.346 495.55 L 469.411 495.55 C 468.181 495.55 467.186 496.544 467.186 497.775 C 467.186 499.005 468.181 500 469.411 500 L 498.346 500 C 499.577 500 500.571 499.005 500.571 497.775 C 500.571 496.544 499.577 495.55 498.346 495.55 Z " fill="rgb(255,0,0)"/><mask id="_mask_pSrfVr0lqJzxwNQHGH28hEIiI7Z8g59U" x="-200%" y="-200%" width="400%" height="400%"><rect x="-200%" y="-200%" width="400%" height="400%" style="fill:white;"/><path d=" M 490.745 503.261 L 477.012 503.261 C 475.927 503.261 475.05 504.138 475.05 505.223 C 475.05 506.308 475.927 507.185 477.012 507.185 L 490.745 507.185 C 491.83 507.185 492.707 506.308 492.707 505.223 C 492.707 504.138 491.83 503.261 490.745 503.261 Z " fill="black" stroke="none"/></mask><path d=" M 490.745 503.261 L 477.012 503.261 C 475.927 503.261 475.05 504.138 475.05 505.223 C 475.05 506.308 475.927 507.185 477.012 507.185 L 490.745 507.185 C 491.83 507.185 492.707 506.308 492.707 505.223 C 492.707 504.138 491.83 503.261 490.745 503.261 Z " fill="rgb(35,31,32)" mask="url(#_mask_pSrfVr0lqJzxwNQHGH28hEIiI7Z8g59U)" vector-effect="non-scaling-stroke" stroke-width="2" stroke="rgb(255,255,255)" stroke-linejoin="miter" stroke-linecap="butt" stroke-miterlimit="4"/><path d=" M 490.745 503.261 L 477.012 503.261 C 475.927 503.261 475.05 504.138 475.05 505.223 C 475.05 506.308 475.927 507.185 477.012 507.185 L 490.745 507.185 C 491.83 507.185 492.707 506.308 492.707 505.223 C 492.707 504.138 491.83 503.261 490.745 503.261 Z " fill="rgb(35,31,32)"/><path d=" M 559.841 491.093 C 559.884 491.25 559.923 491.396 559.998 491.54 C 560.064 491.679 560.159 491.8 560.257 491.923 C 560.368 492.072 560.478 492.206 560.617 492.327 C 560.663 492.365 560.684 492.419 560.733 492.455 C 560.838 492.535 560.959 492.573 561.072 492.632 C 561.172 492.686 561.26 492.746 561.368 492.787 C 561.661 492.9 561.964 492.969 562.272 492.969 L 562.275 492.969 L 572.57 492.969 L 577.698 492.969 L 603.415 492.969 L 603.418 492.969 C 603.723 492.969 604.027 492.9 604.322 492.787 C 604.428 492.746 604.515 492.689 604.613 492.635 C 604.728 492.573 604.852 492.535 604.96 492.455 C 605.011 492.417 605.032 492.363 605.078 492.321 C 605.214 492.206 605.32 492.069 605.428 491.931 C 605.525 491.8 605.623 491.679 605.695 491.537 C 605.764 491.396 605.806 491.247 605.852 491.09 C 605.901 490.921 605.942 490.753 605.955 490.576 C 605.96 490.517 605.991 490.463 605.991 490.401 C 605.991 490.296 605.942 490.208 605.931 490.106 C 605.911 489.933 605.885 489.769 605.831 489.602 C 605.775 489.432 605.692 489.278 605.602 489.124 C 605.551 489.039 605.538 488.941 605.476 488.856 L 590.046 468.293 C 589.969 468.187 589.856 468.131 589.766 468.041 C 589.684 467.959 589.63 467.853 589.532 467.779 C 589.491 467.748 589.445 467.745 589.403 467.72 C 589.244 467.614 589.08 467.55 588.905 467.481 C 588.763 467.427 588.63 467.365 588.483 467.334 C 588.319 467.301 588.157 467.308 587.99 467.308 C 587.825 467.308 587.666 467.303 587.506 467.334 C 587.352 467.365 587.216 467.429 587.069 467.486 C 586.902 467.55 586.738 467.614 586.586 467.714 C 586.54 467.743 586.491 467.748 586.447 467.779 C 586.342 467.856 586.286 467.969 586.196 468.059 C 586.113 468.141 586.008 468.195 585.933 468.293 L 578.991 477.557 L 575.901 473.434 C 575.821 473.326 575.708 473.269 575.616 473.177 C 575.533 473.094 575.479 472.992 575.384 472.917 C 575.346 472.889 575.299 472.884 575.258 472.858 C 575.096 472.75 574.927 472.686 574.749 472.614 C 574.611 472.562 574.482 472.501 574.341 472.472 C 574.171 472.436 574.001 472.444 573.829 472.447 C 573.67 472.447 573.518 472.439 573.361 472.47 C 573.207 472.501 573.068 472.565 572.919 472.624 C 572.752 472.688 572.585 472.755 572.433 472.858 C 572.392 472.884 572.346 472.889 572.305 472.917 C 572.207 472.989 572.156 473.094 572.071 473.179 C 571.981 473.269 571.868 473.328 571.788 473.434 L 560.226 488.856 C 560.167 488.936 560.152 489.031 560.1 489.119 C 560.01 489.273 559.931 489.425 559.872 489.597 C 559.818 489.766 559.789 489.936 559.769 490.111 C 559.758 490.208 559.712 490.296 559.712 490.399 C 559.712 490.458 559.743 490.512 559.748 490.571 C 559.748 490.751 559.789 490.918 559.841 491.093 Z  M 587.979 474.117 L 598.266 487.828 L 577.703 487.828 L 587.979 474.117 Z  M 571.279 487.828 L 567.408 487.828 L 573.834 479.258 L 575.77 481.839 L 571.279 487.828 Z " fill="rgb(35,31,32)" vector-effect="non-scaling-stroke" stroke-width="1" stroke="rgb(255,255,255)" stroke-linejoin="miter" stroke-linecap="butt" stroke-miterlimit="4"/><path d=" M 566.131 469.82 C 569.67 469.82 572.552 466.938 572.552 463.399 C 572.552 459.859 569.67 456.978 566.131 456.978 C 562.591 456.978 559.71 459.859 559.71 463.399 C 559.71 466.938 562.591 469.82 566.131 469.82 Z  M 566.131 462.119 C 566.835 462.119 567.411 462.694 567.411 463.399 C 567.411 464.103 566.835 464.679 566.131 464.679 C 565.426 464.679 564.851 464.103 564.851 463.399 C 564.851 462.694 565.426 462.119 566.131 462.119 Z " fill="rgb(255,0,0)" vector-effect="non-scaling-stroke" stroke-width="1" stroke="rgb(255,255,255)" stroke-linejoin="miter" stroke-linecap="butt" stroke-miterlimit="4"/><mask id="_mask_kKD5JSbUWF4BGVa5WJPf8dcAI3ZVmY50" x="-200%" y="-200%" width="400%" height="400%"><rect x="-200%" y="-200%" width="400%" height="400%" style="fill:white;"/><path d=" M 600.144 500.696 L 565.546 500.696 C 564.35 500.696 563.383 501.663 563.383 502.859 C 563.383 504.055 564.35 505.022 565.546 505.022 L 600.144 505.022 C 601.34 505.022 602.307 504.055 602.307 502.859 C 602.307 501.663 601.34 500.696 600.144 500.696 Z " fill="black" stroke="none"/></mask><path d=" M 600.144 500.696 L 565.546 500.696 C 564.35 500.696 563.383 501.663 563.383 502.859 C 563.383 504.055 564.35 505.022 565.546 505.022 L 600.144 505.022 C 601.34 505.022 602.307 504.055 602.307 502.859 C 602.307 501.663 601.34 500.696 600.144 500.696 Z " fill="rgb(255,0,0)" mask="url(#_mask_kKD5JSbUWF4BGVa5WJPf8dcAI3ZVmY50)" vector-effect="non-scaling-stroke" stroke-width="4" stroke="rgb(255,255,255)" stroke-linejoin="miter" stroke-linecap="butt" stroke-miterlimit="4"/><path d=" M 600.144 500.696 L 565.546 500.696 C 564.35 500.696 563.383 501.663 563.383 502.859 C 563.383 504.055 564.35 505.022 565.546 505.022 L 600.144 505.022 C 601.34 505.022 602.307 504.055 602.307 502.859 C 602.307 501.663 601.34 500.696 600.144 500.696 Z " fill="rgb(255,0,0)"/><mask id="_mask_cYFnKx3w2OF7OQCpEeLwyrUGizJYg3yn" x="-200%" y="-200%" width="400%" height="400%"><rect x="-200%" y="-200%" width="400%" height="400%" style="fill:white;"/><path d=" M 600.144 507.185 L 565.546 507.185 C 564.35 507.185 563.383 508.152 563.383 509.348 C 563.383 510.544 564.35 511.511 565.546 511.511 L 600.144 511.511 C 601.34 511.511 602.307 510.544 602.307 509.348 C 602.307 508.152 601.34 507.185 600.144 507.185 Z " fill="black" stroke="none"/></mask><path d=" M 600.144 507.185 L 565.546 507.185 C 564.35 507.185 563.383 508.152 563.383 509.348 C 563.383 510.544 564.35 511.511 565.546 511.511 L 600.144 511.511 C 601.34 511.511 602.307 510.544 602.307 509.348 C 602.307 508.152 601.34 507.185 600.144 507.185 Z " fill="rgb(35,31,32)" mask="url(#_mask_cYFnKx3w2OF7OQCpEeLwyrUGizJYg3yn)" vector-effect="non-scaling-stroke" stroke-width="4" stroke="rgb(255,255,255)" stroke-linejoin="miter" stroke-linecap="butt" stroke-miterlimit="4"/><path d=" M 600.144 507.185 L 565.546 507.185 C 564.35 507.185 563.383 508.152 563.383 509.348 C 563.383 510.544 564.35 511.511 565.546 511.511 L 600.144 511.511 C 601.34 511.511 602.307 510.544 602.307 509.348 C 602.307 508.152 601.34 507.185 600.144 507.185 Z " fill="rgb(35,31,32)"/><mask id="_mask_2uYQw3T9GYJNd6gQhMDrPAiObCdxNupM" x="-200%" y="-200%" width="400%" height="400%"><rect x="-200%" y="-200%" width="400%" height="400%" style="fill:white;"/><path d=" M 591.492 513.674 L 574.198 513.674 C 573.002 513.674 572.035 514.641 572.035 515.837 C 572.035 517.033 573.002 518 574.198 518 L 591.492 518 C 592.688 518 593.655 517.033 593.655 515.837 C 593.655 514.641 592.688 513.674 591.492 513.674 Z " fill="black" stroke="none"/></mask><path d=" M 591.492 513.674 L 574.198 513.674 C 573.002 513.674 572.035 514.641 572.035 515.837 C 572.035 517.033 573.002 518 574.198 518 L 591.492 518 C 592.688 518 593.655 517.033 593.655 515.837 C 593.655 514.641 592.688 513.674 591.492 513.674 Z " fill="rgb(35,31,32)" mask="url(#_mask_2uYQw3T9GYJNd6gQhMDrPAiObCdxNupM)" vector-effect="non-scaling-stroke" stroke-width="4" stroke="rgb(255,255,255)" stroke-linejoin="miter" stroke-linecap="butt" stroke-miterlimit="4"/><path d=" M 591.492 513.674 L 574.198 513.674 C 573.002 513.674 572.035 514.641 572.035 515.837 C 572.035 517.033 573.002 518 574.198 518 L 591.492 518 C 592.688 518 593.655 517.033 593.655 515.837 C 593.655 514.641 592.688 513.674 591.492 513.674 Z " fill="rgb(35,31,32)"/><mask id="_mask_rOzGmlPPqeFIde4LTgxK2LG9sImECRuG" x="-200%" y="-200%" width="400%" height="400%"><rect x="-200%" y="-200%" width="400%" height="400%" style="fill:white;"/><path d=" M 469.813 539.268 C 471.232 539.268 472.384 538.119 472.384 536.698 C 472.384 535.276 471.232 534.127 469.813 534.127 L 469.788 534.127 C 468.369 534.127 467.233 535.276 467.233 536.698 C 467.233 538.119 468.394 539.268 469.813 539.268 Z " fill="black" stroke="none"/></mask><path d=" M 469.813 539.268 C 471.232 539.268 472.384 538.119 472.384 536.698 C 472.384 535.276 471.232 534.127 469.813 534.127 L 469.788 534.127 C 468.369 534.127 467.233 535.276 467.233 536.698 C 467.233 538.119 468.394 539.268 469.813 539.268 Z " fill="rgb(255,0,0)" mask="url(#_mask_rOzGmlPPqeFIde4LTgxK2LG9sImECRuG)" vector-effect="non-scaling-stroke" stroke-width="2" stroke="rgb(255,255,255)" stroke-linejoin="miter" stroke-linecap="butt" stroke-miterlimit="4"/><path d=" M 469.813 539.268 C 471.232 539.268 472.384 538.119 472.384 536.698 C 472.384 535.276 471.232 534.127 469.813 534.127 L 469.788 534.127 C 468.369 534.127 467.233 535.276 467.233 536.698 C 467.233 538.119 468.394 539.268 469.813 539.268 Z " fill="rgb(255,0,0)"/></g></svg>